Fira Mono-Bold.ufo
<glyph name="exclam" format="1">
  <advance width="600"/>
  <unicode hex="0021"/>
  <outline>
    <contour>
      <point x="215" y="693" type="line"/>
      <point x="236" y="256" type="line"/>
      <point x="365" y="256" type="line"/>
      <point x="385" y="693" type="line"/>
    </contour>
    <contour>
      <point x="250" y="165"/>
      <point x="209" y="124"/>
      <point x="209" y="74" type="curve" smooth="yes"/>
      <point x="209" y="24"/>
      <point x="250" y="-17"/>
      <point x="300" y="-17" type="curve" smooth="yes"/>
      <point x="351" y="-17"/>
      <point x="391" y="24"/>
      <point x="391" y="74" type="curve" smooth="yes"/>
      <point x="391" y="124"/>
      <point x="351" y="165"/>
      <point x="300" y="165" type="curve" smooth="yes"/>
    </contour>
  </outline>
</glyph>
<glyph name="quotedbl" format="1">
  <advance width="600"/>
  <unicode hex="0022"/>
  <outline>
    <contour>
      <point x="260" y="462" type="line"/>
      <point x="279" y="742" type="line"/>
      <point x="128" y="742" type="line"/>
      <point x="147" y="462" type="line"/>
    </contour>
    <contour>
      <point x="453" y="462" type="line"/>
      <point x="472" y="742" type="line"/>
      <point x="320" y="742" type="line"/>
      <point x="339" y="462" type="line"/>
    </contour>
  </outline>
</glyph>
<glyph name="numbersign" format="1">
  <advance width="600"/>
  <unicode hex="0023"/>
  <outline>
    <contour>
      <point x="566" y="446" type="line"/>
      <point x="566" y="552" type="line"/>
      <point x="506" y="552" type="line"/>
      <point x="525" y="693" type="line"/>
      <point x="393" y="693" type="line"/>
      <point x="374" y="552" type="line"/>
      <point x="280" y="552" type="line"/>
      <point x="299" y="693" type="line"/>
      <point x="166" y="693" type="line"/>
      <point x="148" y="552" type="line"/>
      <point x="72" y="552" type="line"/>
      <point x="72" y="446" type="line"/>
      <point x="134" y="446" type="line"/>
      <point x="108" y="249" type="line"/>
      <point x="35" y="249" type="line"/>
      <point x="35" y="144" type="line"/>
      <point x="94" y="144" type="line"/>
      <point x="76" y="0" type="line"/>
      <point x="208" y="0" type="line"/>
      <point x="227" y="144" type="line"/>
      <point x="321" y="144" type="line"/>
      <point x="302" y="0" type="line"/>
      <point x="434" y="0" type="line"/>
      <point x="453" y="144" type="line"/>
      <point x="529" y="144" type="line"/>
      <point x="529" y="249" type="line"/>
      <point x="467" y="249" type="line"/>
      <point x="492" y="446" type="line"/>
    </contour>
    <contour>
      <point x="266" y="446" type="line"/>
      <point x="360" y="446" type="line"/>
      <point x="334" y="249" type="line"/>
      <point x="240" y="249" type="line"/>
    </contour>
  </outline>
</glyph>
<glyph name="dollar" format="1">
  <advance width="600"/>
  <unicode hex="0024"/>
  <outline>
    <contour>
      <point x="268" y="856" type="line"/>
      <point x="268" y="707" type="line"/>
      <point x="144" y="694"/>
      <point x="66" y="620"/>
      <point x="66" y="511" type="curve" smooth="yes"/>
      <point x="66" y="416"/>
      <point x="123" y="355"/>
      <point x="268" y="307" type="curve"/>
      <point x="268" y="101" type="line"/>
      <point x="209" y="105"/>
      <point x="163" y="129"/>
      <point x="118" y="168" type="curve"/>
      <point x="41" y="79" type="line"/>
      <point x="90" y="32"/>
      <point x="169" y="-9"/>
      <point x="268" y="-16" type="curve"/>
      <point x="268" y="-162" type="line"/>
      <point x="349" y="-162" type="line"/>
      <point x="349" y="-13" type="line"/>
      <point x="484" y="4"/>
      <point x="559" y="92"/>
      <point x="559" y="204" type="curve" smooth="yes"/>
      <point x="559" y="324"/>
      <point x="484" y="378"/>
      <point x="349" y="423" type="curve"/>
      <point x="349" y="596" type="line"/>
      <point x="390" y="593"/>
      <point x="432" y="578"/>
      <point x="469" y="548" type="curve"/>
      <point x="546" y="629" type="line"/>
      <point x="497" y="670"/>
      <point x="431" y="701"/>
      <point x="349" y="708" type="curve"/>
      <point x="349" y="856" type="line"/>
    </contour>
    <contour>
      <point x="398" y="250"/>
      <point x="410" y="223"/>
      <point x="410" y="185" type="curve" smooth="yes"/>
      <point x="410" y="141"/>
      <point x="389" y="113"/>
      <point x="349" y="104" type="curve"/>
      <point x="349" y="275" type="line"/>
    </contour>
    <contour>
      <point x="268" y="454" type="line"/>
      <point x="216" y="478"/>
      <point x="209" y="497"/>
      <point x="209" y="530" type="curve" smooth="yes"/>
      <point x="209" y="561"/>
      <point x="228" y="588"/>
      <point x="268" y="595" type="curve"/>
    </contour>
  </outline>
</glyph>
<glyph name="percent" format="1">
  <advance width="600"/>
  <unicode hex="0025"/>
  <outline>
    <contour>
      <point x="86" y="6" type="line"/>
      <point x="170" y="-29" type="line"/>
      <point x="508" y="681" type="line"/>
      <point x="423" y="716" type="line"/>
    </contour>
    <contour>
      <point x="487" y="229"/>
      <point x="493" y="203"/>
      <point x="493" y="150" type="curve" smooth="yes"/>
      <point x="493" y="101"/>
      <point x="487" y="72"/>
      <point x="454" y="72" type="curve" smooth="yes"/>
      <point x="423" y="72"/>
      <point x="415" y="103"/>
      <point x="415" y="150" type="curve" smooth="yes"/>
      <point x="415" y="199"/>
      <point x="421" y="229"/>
      <point x="454" y="229" type="curve" smooth="yes"/>
    </contour>
    <contour>
      <point x="179" y="633"/>
      <point x="185" y="607"/>
      <point x="185" y="554" type="curve" smooth="yes"/>
      <point x="185" y="505"/>
      <point x="179" y="476"/>
      <point x="146" y="476" type="curve" smooth="yes"/>
      <point x="115" y="476"/>
      <point x="107" y="507"/>
      <point x="107" y="554" type="curve" smooth="yes"/>
      <point x="107" y="603"/>
      <point x="113" y="633"/>
      <point x="146" y="633" type="curve" smooth="yes"/>
    </contour>
    <contour>
      <point x="56" y="711"/>
      <point x="3" y="645"/>
      <point x="3" y="554" type="curve" smooth="yes"/>
      <point x="3" y="459"/>
      <point x="56" y="398"/>
      <point x="146" y="398" type="curve" smooth="yes"/>
      <point x="235" y="398"/>
      <point x="288" y="459"/>
      <point x="288" y="554" type="curve" smooth="yes"/>
      <point x="288" y="649"/>
      <point x="235" y="711"/>
      <point x="146" y="711" type="curve" smooth="yes"/>
    </contour>
    <contour>
      <point x="364" y="307"/>
      <point x="311" y="241"/>
      <point x="311" y="150" type="curve" smooth="yes"/>
      <point x="311" y="55"/>
      <point x="364" y="-6"/>
      <point x="454" y="-6" type="curve" smooth="yes"/>
      <point x="543" y="-6"/>
      <point x="596" y="55"/>
      <point x="596" y="150" type="curve" smooth="yes"/>
      <point x="596" y="245"/>
      <point x="543" y="307"/>
      <point x="454" y="307" type="curve" smooth="yes"/>
    </contour>
  </outline>
</glyph>
<glyph name="quotesingle" format="1">
  <advance width="600"/>
  <unicode hex="0027"/>
  <outline>
    <contour>
      <point x="356" y="462" type="line"/>
      <point x="375" y="742" type="line"/>
      <point x="224" y="742" type="line"/>
      <point x="243" y="462" type="line"/>
    </contour>
  </outline>
</glyph>
<glyph name="parenleft" format="1">
  <advance width="600"/>
  <unicode hex="0028"/>
  <outline>
    <contour>
      <point x="262" y="514"/>
      <point x="317" y="627"/>
      <point x="451" y="774" type="curve"/>
      <point x="358" y="858" type="line"/>
      <point x="200" y="722"/>
      <point x="100" y="569"/>
      <point x="100" y="350" type="curve" smooth="yes"/>
      <point x="100" y="131"/>
      <point x="200" y="-22"/>
      <point x="358" y="-158" type="curve"/>
      <point x="451" y="-74" type="line"/>
      <point x="307" y="83"/>
      <point x="262" y="186"/>
      <point x="262" y="350" type="curve" smooth="yes"/>
    </contour>
  </outline>
</glyph>
<glyph name="parenright" format="1">
  <advance width="600"/>
  <unicode hex="0029"/>
  <outline>
    <contour>
      <point x="338" y="186"/>
      <point x="293" y="83"/>
      <point x="149" y="-74" type="curve"/>
      <point x="242" y="-158" type="line"/>
      <point x="400" y="-22"/>
      <point x="500" y="131"/>
      <point x="500" y="350" type="curve" smooth="yes"/>
      <point x="500" y="569"/>
      <point x="400" y="722"/>
      <point x="242" y="858" type="curve"/>
      <point x="149" y="774" type="line"/>
      <point x="283" y="627"/>
      <point x="338" y="514"/>
      <point x="338" y="350" type="curve" smooth="yes"/>
    </contour>
  </outline>
</glyph>
<glyph name="asterisk" format="1">
  <advance width="600"/>
  <unicode hex="002A"/>
  <outline>
    <contour>
      <point x="231" y="531" type="line"/>
      <point x="253" y="381" type="line"/>
      <point x="117" y="445" type="line"/>
      <point x="77" y="319" type="line"/>
      <point x="224" y="293" type="line"/>
      <point x="120" y="182" type="line"/>
      <point x="230" y="102" type="line"/>
      <point x="299" y="237" type="line"/>
      <point x="371" y="103" type="line"/>
      <point x="481" y="183" type="line"/>
      <point x="375" y="292" type="line"/>
      <point x="523" y="319" type="line"/>
      <point x="482" y="445" type="line"/>
      <point x="346" y="380" type="line"/>
      <point x="368" y="531" type="line"/>
    </contour>
  </outline>
</glyph>
<glyph name="plus" format="1">
  <advance width="600"/>
  <unicode hex="002B"/>
  <outline>
    <contour>
      <point x="233" y="530" type="line"/>
      <point x="233" y="374" type="line"/>
      <point x="82" y="374" type="line"/>
      <point x="82" y="251" type="line"/>
      <point x="233" y="251" type="line"/>
      <point x="233" y="95" type="line"/>
      <point x="366" y="95" type="line"/>
      <point x="366" y="251" type="line"/>
      <point x="518" y="251" type="line"/>
      <point x="518" y="374" type="line"/>
      <point x="366" y="374" type="line"/>
      <point x="366" y="530" type="line"/>
    </contour>
  </outline>
</glyph>
<glyph name="comma" format="1">
  <advance width="600"/>
  <unicode hex="002C"/>
  <outline>
    <contour>
      <point x="238" y="207"/>
      <point x="191" y="160"/>
      <point x="191" y="99" type="curve" smooth="yes"/>
      <point x="191" y="61"/>
      <point x="208" y="28"/>
      <point x="239" y="9" type="curve"/>
      <point x="188" y="-204" type="line"/>
      <point x="294" y="-204" type="line"/>
      <point x="366" y="-41" type="line" smooth="yes"/>
      <point x="395" y="25"/>
      <point x="410" y="58"/>
      <point x="410" y="98" type="curve" smooth="yes"/>
      <point x="410" y="160"/>
      <point x="363" y="207"/>
      <point x="300" y="207" type="curve" smooth="yes"/>
    </contour>
  </outline>
</glyph>
<glyph name="hyphen" format="1">
  <advance width="600"/>
  <unicode hex="002D"/>
  <outline>
    <contour>
      <point x="492" y="251" type="line"/>
      <point x="492" y="375" type="line"/>
      <point x="108" y="375" type="line"/>
      <point x="108" y="251" type="line"/>
    </contour>
  </outline>
</glyph>
<glyph name="period" format="1">
  <advance width="600"/>
  <unicode hex="002E"/>
  <outline>
    <contour>
      <point x="188" y="34"/>
      <point x="238" y="-17"/>
      <point x="300" y="-17" type="curve" smooth="yes"/>
      <point x="362" y="-17"/>
      <point x="412" y="34"/>
      <point x="412" y="95" type="curve" smooth="yes"/>
      <point x="412" y="156"/>
      <point x="362" y="207"/>
      <point x="300" y="207" type="curve" smooth="yes"/>
      <point x="238" y="207"/>
      <point x="188" y="156"/>
      <point x="188" y="95" type="curve" smooth="yes"/>
    </contour>
  </outline>
</glyph>
<glyph name="slash" format="1">
  <advance width="600"/>
  <unicode hex="002F"/>
  <outline>
    <contour>
      <point x="572" y="760" type="line"/>
      <point x="448" y="817" type="line"/>
      <point x="28" y="-55" type="line"/>
      <point x="153" y="-112" type="line"/>
    </contour>
  </outline>
</glyph>
<glyph name="zero" format="1">
  <advance width="600"/>
  <unicode hex="0030"/>
  <outline>
    <contour>
      <point x="133" y="711"/>
      <point x="49" y="576"/>
      <point x="49" y="348" type="curve" smooth="yes"/>
      <point x="49" y="119"/>
      <point x="133" y="-17"/>
      <point x="300" y="-17" type="curve" smooth="yes"/>
      <point x="466" y="-17"/>
      <point x="551" y="119"/>
      <point x="551" y="348" type="curve" smooth="yes"/>
      <point x="551" y="576"/>
      <point x="466" y="711"/>
      <point x="300" y="711" type="curve" smooth="yes"/>
    </contour>
    <contour>
      <point x="363" y="595"/>
      <point x="395" y="532"/>
      <point x="395" y="348" type="curve" smooth="yes"/>
      <point x="395" y="163"/>
      <point x="365" y="98"/>
      <point x="300" y="98" type="curve" smooth="yes"/>
      <point x="236" y="98"/>
      <point x="204" y="160"/>
      <point x="204" y="348" type="curve" smooth="yes"/>
      <point x="204" y="527"/>
      <point x="235" y="595"/>
      <point x="300" y="595" type="curve" smooth="yes"/>
    </contour>
    <contour>
      <point x="262" y="410"/>
      <point x="234" y="381"/>
      <point x="234" y="345" type="curve" smooth="yes"/>
      <point x="234" y="308"/>
      <point x="262" y="279"/>
      <point x="299" y="279" type="curve" smooth="yes"/>
      <point x="337" y="279"/>
      <point x="365" y="308"/>
      <point x="365" y="345" type="curve" smooth="yes"/>
      <point x="365" y="381"/>
      <point x="337" y="410"/>
      <point x="299" y="410" type="curve" smooth="yes"/>
    </contour>
  </outline>
</glyph>
<glyph name="one" format="1">
  <advance width="600"/>
  <unicode hex="0031"/>
  <outline>
    <contour>
      <point x="281" y="693" type="line"/>
      <point x="57" y="557" type="line"/>
      <point x="125" y="447" type="line"/>
      <point x="267" y="536" type="line"/>
      <point x="267" y="20" type="line"/>
      <point x="423" y="20" type="line"/>
      <point x="423" y="693" type="line"/>
    </contour>
    <contour>
      <point x="100" y="121" type="line"/>
      <point x="100" y="0" type="line"/>
      <point x="552" y="0" type="line"/>
      <point x="552" y="121" type="line"/>
    </contour>
  </outline>
</glyph>
<glyph name="two" format="1">
  <advance width="600"/>
  <unicode hex="0032"/>
  <outline>
    <contour>
      <point x="164" y="711"/>
      <point x="91" y="664"/>
      <point x="39" y="592" type="curve"/>
      <point x="137" y="518" type="line"/>
      <point x="173" y="567"/>
      <point x="209" y="588"/>
      <point x="261" y="588" type="curve" smooth="yes"/>
      <point x="320" y="588"/>
      <point x="353" y="553"/>
      <point x="353" y="498" type="curve" smooth="yes"/>
      <point x="353" y="416"/>
      <point x="280" y="333"/>
      <point x="53" y="113" type="curve"/>
      <point x="53" y="0" type="line"/>
      <point x="515" y="0" type="line"/>
      <point x="532" y="122" type="line"/>
      <point x="237" y="122" type="line"/>
      <point x="447" y="310"/>
      <point x="516" y="400"/>
      <point x="516" y="512" type="curve" smooth="yes"/>
      <point x="516" y="618"/>
      <point x="435" y="711"/>
      <point x="276" y="711" type="curve" smooth="yes"/>
    </contour>
  </outline>
</glyph>
<glyph name="three" format="1">
  <advance width="600"/>
  <unicode hex="0033"/>
  <outline>
    <contour>
      <point x="176" y="711"/>
      <point x="97" y="678"/>
      <point x="34" y="617" type="curve"/>
      <point x="116" y="532" type="line"/>
      <point x="155" y="569"/>
      <point x="199" y="592"/>
      <point x="254" y="592" type="curve" smooth="yes"/>
      <point x="313" y="592"/>
      <point x="354" y="560"/>
      <point x="354" y="509" type="curve" smooth="yes"/>
      <point x="354" y="449"/>
      <point x="311" y="419"/>
      <point x="250" y="419" type="curve" smooth="yes"/>
      <point x="205" y="419" type="line"/>
      <point x="187" y="309" type="line"/>
      <point x="250" y="309" type="line" smooth="yes"/>
      <point x="324" y="309"/>
      <point x="367" y="279"/>
      <point x="367" y="206" type="curve" smooth="yes"/>
      <point x="367" y="141"/>
      <point x="319" y="105"/>
      <point x="251" y="105" type="curve" smooth="yes"/>
      <point x="197" y="105"/>
      <point x="147" y="125"/>
      <point x="107" y="171" type="curve"/>
      <point x="17" y="87" type="line"/>
      <point x="75" y="21"/>
      <point x="158" y="-17"/>
      <point x="262" y="-17" type="curve" smooth="yes"/>
      <point x="429" y="-17"/>
      <point x="531" y="78"/>
      <point x="531" y="195" type="curve" smooth="yes"/>
      <point x="531" y="307"/>
      <point x="463" y="354"/>
      <point x="367" y="367" type="curve"/>
      <point x="453" y="392"/>
      <point x="509" y="445"/>
      <point x="509" y="533" type="curve" smooth="yes"/>
      <point x="509" y="630"/>
      <point x="422" y="711"/>
      <point x="272" y="711" type="curve" smooth="yes"/>
    </contour>
  </outline>
</glyph>
<glyph name="four" format="1">
  <advance width="600"/>
  <unicode hex="0034"/>
  <outline>
    <contour>
      <point x="44" y="251" type="line"/>
      <point x="44" y="145" type="line"/>
      <point x="554" y="145" type="line"/>
      <point x="554" y="265" type="line"/>
      <point x="209" y="265" type="line"/>
      <point x="372" y="661" type="line"/>
      <point x="236" y="711" type="line"/>
    </contour>
    <contour>
      <point x="350" y="431" type="line"/>
      <point x="330" y="249" type="line"/>
      <point x="332" y="0" type="line"/>
      <point x="485" y="0" type="line"/>
      <point x="485" y="431" type="line"/>
    </contour>
  </outline>
</glyph>
<glyph name="five" format="1">
  <advance width="600"/>
  <unicode hex="0035"/>
  <outline>
    <contour>
      <point x="92" y="693" type="line"/>
      <point x="92" y="320" type="line"/>
      <point x="200" y="320" type="line"/>
      <point x="230" y="337"/>
      <point x="259" y="343"/>
      <point x="284" y="343" type="curve" smooth="yes"/>
      <point x="340" y="343"/>
      <point x="377" y="310"/>
      <point x="377" y="225" type="curve" smooth="yes"/>
      <point x="377" y="154"/>
      <point x="329" y="105"/>
      <point x="256" y="105" type="curve" smooth="yes"/>
      <point x="208" y="105"/>
      <point x="163" y="128"/>
      <point x="130" y="171" type="curve"/>
      <point x="38" y="87" type="line"/>
      <point x="89" y="24"/>
      <point x="168" y="-17"/>
      <point x="269" y="-17" type="curve" smooth="yes"/>
      <point x="432" y="-17"/>
      <point x="542" y="87"/>
      <point x="542" y="228" type="curve" smooth="yes"/>
      <point x="542" y="368"/>
      <point x="454" y="453"/>
      <point x="347" y="453" type="curve" smooth="yes"/>
      <point x="317" y="453"/>
      <point x="279" y="447"/>
      <point x="245" y="431" type="curve"/>
      <point x="245" y="579" type="line"/>
      <point x="498" y="579" type="line"/>
      <point x="516" y="693" type="line"/>
    </contour>
  </outline>
</glyph>
<glyph name="seven" format="1">
  <advance width="600"/>
  <unicode hex="0037"/>
  <outline>
    <contour>
      <point x="533" y="585" type="line"/>
      <point x="533" y="693" type="line"/>
      <point x="67" y="693" type="line"/>
      <point x="67" y="573" type="line"/>
      <point x="371" y="573" type="line"/>
      <point x="113" y="31" type="line"/>
      <point x="265" y="-16" type="line"/>
    </contour>
  </outline>
</glyph>
<glyph name="nine" format="1">
  <advance width="600"/>
  <unicode hex="0039"/>
  <outline>
    <contour>
      <point x="152" y="711"/>
      <point x="43" y="611"/>
      <point x="43" y="461" type="curve" smooth="yes"/>
      <point x="43" y="327"/>
      <point x="130" y="239"/>
      <point x="239" y="239" type="curve" smooth="yes"/>
      <point x="308" y="239"/>
      <point x="356" y="269"/>
      <point x="405" y="319" type="curve"/>
      <point x="407" y="408" type="line"/>
      <point x="369" y="371"/>
      <point x="334" y="351"/>
      <point x="289" y="351" type="curve" smooth="yes"/>
      <point x="242" y="351"/>
      <point x="204" y="381"/>
      <point x="204" y="466" type="curve" smooth="yes"/>
      <point x="204" y="556"/>
      <point x="239" y="597"/>
      <point x="295" y="597" type="curve" smooth="yes"/>
      <point x="376" y="597"/>
      <point x="389" y="526"/>
      <point x="387" y="380" type="curve"/>
      <point x="387" y="326" type="line"/>
      <point x="364" y="199"/>
      <point x="273" y="127"/>
      <point x="95" y="82" type="curve"/>
      <point x="128" y="-30" type="line"/>
      <point x="420" y="30"/>
      <point x="552" y="169"/>
      <point x="552" y="434" type="curve" smooth="yes"/>
      <point x="552" y="598"/>
      <point x="466" y="711"/>
      <point x="296" y="711" type="curve" smooth="yes"/>
    </contour>
  </outline>
</glyph>
<glyph name="semicolon" format="1">
  <advance width="600"/>
  <unicode hex="003B"/>
  <outline>
    <contour>
      <point x="240" y="198"/>
      <point x="194" y="153"/>
      <point x="194" y="94" type="curve" smooth="yes"/>
      <point x="194" y="57"/>
      <point x="211" y="26"/>
      <point x="240" y="7" type="curve"/>
      <point x="191" y="-198" type="line"/>
      <point x="294" y="-198" type="line"/>
      <point x="363" y="-41" type="line" smooth="yes"/>
      <point x="390" y="21"/>
      <point x="405" y="56"/>
      <point x="405" y="93" type="curve" smooth="yes"/>
      <point x="405" y="153"/>
      <point x="360" y="198"/>
      <point x="300" y="198" type="curve" smooth="yes"/>
    </contour>
    <contour>
      <point x="241" y="540"/>
      <point x="194" y="491"/>
      <point x="194" y="434" type="curve" smooth="yes"/>
      <point x="194" y="377"/>
      <point x="241" y="329"/>
      <point x="300" y="329" type="curve" smooth="yes"/>
      <point x="359" y="329"/>
      <point x="405" y="377"/>
      <point x="405" y="434" type="curve" smooth="yes"/>
      <point x="405" y="491"/>
      <point x="359" y="540"/>
      <point x="300" y="540" type="curve" smooth="yes"/>
    </contour>
  </outline>
</glyph>
<glyph name="less" format="1">
  <advance width="600"/>
  <unicode hex="003C"/>
  <outline>
    <contour>
      <point x="69" y="370" type="line"/>
      <point x="69" y="257" type="line"/>
      <point x="459" y="15" type="line"/>
      <point x="531" y="129" type="line"/>
      <point x="207" y="314" type="line"/>
      <point x="531" y="503" type="line"/>
      <point x="461" y="613" type="line"/>
    </contour>
  </outline>
</glyph>
<glyph name="greater" format="1">
  <advance width="600"/>
  <unicode hex="003E"/>
  <outline>
    <contour>
      <point x="69" y="498" type="line"/>
      <point x="393" y="314" type="line"/>
      <point x="69" y="124" type="line"/>
      <point x="141" y="15" type="line"/>
      <point x="531" y="257" type="line"/>
      <point x="531" y="371" type="line"/>
      <point x="140" y="613" type="line"/>
    </contour>
  </outline>
</glyph>
<glyph name="question" format="1">
  <advance width="600"/>
  <unicode hex="003F"/>
  <outline>
    <contour>
      <point x="191" y="711"/>
      <point x="112" y="670"/>
      <point x="55" y="603" type="curve"/>
      <point x="156" y="524" type="line"/>
      <point x="192" y="565"/>
      <point x="236" y="585"/>
      <point x="281" y="585" type="curve" smooth="yes"/>
      <point x="327" y="585"/>
      <point x="360" y="565"/>
      <point x="360" y="529" type="curve" smooth="yes"/>
      <point x="360" y="447"/>
      <point x="195" y="453"/>
      <point x="195" y="281" type="curve" smooth="yes"/>
      <point x="195" y="256" type="line"/>
      <point x="341" y="256" type="line"/>
      <point x="341" y="276" type="line" smooth="yes"/>
      <point x="341" y="392"/>
      <point x="527" y="381"/>
      <point x="527" y="543" type="curve" smooth="yes"/>
      <point x="527" y="632"/>
      <point x="449" y="711"/>
      <point x="296" y="711" type="curve" smooth="yes"/>
    </contour>
    <contour>
      <point x="219" y="165"/>
      <point x="179" y="124"/>
      <point x="179" y="74" type="curve" smooth="yes"/>
      <point x="179" y="24"/>
      <point x="219" y="-17"/>
      <point x="270" y="-17" type="curve" smooth="yes"/>
      <point x="320" y="-17"/>
      <point x="361" y="24"/>
      <point x="361" y="74" type="curve" smooth="yes"/>
      <point x="361" y="124"/>
      <point x="320" y="165"/>
      <point x="270" y="165" type="curve" smooth="yes"/>
    </contour>
  </outline>
</glyph>
<glyph name="A" format="1">
  <advance width="600"/>
  <unicode hex="0041"/>
  <outline>
    <contour>
      <point x="435" y="0" type="line"/>
      <point x="613" y="0" type="line"/>
      <point x="401" y="693" type="line"/>
      <point x="200" y="693" type="line"/>
      <point x="-12" y="0" type="line"/>
      <point x="162" y="0" type="line"/>
      <point x="198" y="149" type="line"/>
      <point x="399" y="149" type="line"/>
    </contour>
    <contour>
      <point x="298" y="574" type="line"/>
      <point x="372" y="269" type="line"/>
      <point x="224" y="269" type="line"/>
    </contour>
    <contour>
      <point x="543" y="0" type="move" name="ogonek"/>
    </contour>
    <contour>
      <point x="301" y="693" type="move" name="top"/>
    </contour>
    <contour>
      <point x="180" y="693" type="move" name="topleft"/>
    </contour>
  </outline>
</glyph>
<glyph name="B" format="1">
  <advance width="600"/>
  <unicode hex="0042"/>
  <outline>
    <contour>
      <point x="401" y="135"/>
      <point x="344" y="121"/>
      <point x="280" y="121" type="curve" smooth="yes"/>
      <point x="221" y="121" type="line"/>
      <point x="221" y="306" type="line"/>
      <point x="287" y="306" type="line" smooth="yes"/>
      <point x="356" y="306"/>
      <point x="401" y="282"/>
      <point x="401" y="210" type="curve" smooth="yes"/>
    </contour>
    <contour>
      <point x="375" y="441"/>
      <point x="345" y="417"/>
      <point x="275" y="417" type="curve" smooth="yes"/>
      <point x="221" y="417" type="line"/>
      <point x="221" y="576" type="line"/>
      <point x="270" y="576" type="line" smooth="yes"/>
      <point x="342" y="576"/>
      <point x="375" y="553"/>
      <point x="375" y="499" type="curve" smooth="yes"/>
    </contour>
    <contour>
      <point x="572" y="314"/>
      <point x="489" y="355"/>
      <point x="415" y="367" type="curve"/>
      <point x="483" y="384"/>
      <point x="542" y="433"/>
      <point x="542" y="516" type="curve" smooth="yes"/>
      <point x="542" y="651"/>
      <point x="419" y="693"/>
      <point x="276" y="693" type="curve" smooth="yes"/>
      <point x="55" y="693" type="line"/>
      <point x="55" y="0" type="line"/>
      <point x="286" y="0" type="line" smooth="yes"/>
      <point x="437" y="0"/>
      <point x="572" y="43"/>
      <point x="572" y="203" type="curve" smooth="yes"/>
    </contour>
    <contour>
      <point x="300" y="693" type="move" name="top"/>
    </contour>
    <contour>
      <point x="300" y="0" type="move" name="bottom"/>
    </contour>
  </outline>
</glyph>
<glyph name="E" format="1">
  <advance width="600"/>
  <unicode hex="0045"/>
  <outline>
    <contour>
      <point x="530" y="575" type="line"/>
      <point x="547" y="693" type="line"/>
      <point x="92" y="693" type="line"/>
      <point x="92" y="0" type="line"/>
      <point x="547" y="0" type="line"/>
      <point x="547" y="119" type="line"/>
      <point x="258" y="119" type="line"/>
      <point x="258" y="294" type="line"/>
      <point x="498" y="294" type="line"/>
      <point x="498" y="410" type="line"/>
      <point x="258" y="410" type="line"/>
      <point x="258" y="575" type="line"/>
    </contour>
    <contour>
      <point x="477" y="0" type="move" name="ogonek"/>
    </contour>
    <contour>
      <point x="320" y="693" type="move" name="top"/>
    </contour>
    <contour>
      <point x="74" y="693" type="move" name="topleft"/>
    </contour>
    <contour>
      <point x="320" y="0" type="move" name="bottom"/>
    </contour>
  </outline>
</glyph>
<glyph name="F" format="1">
  <advance width="600"/>
  <unicode hex="0046"/>
  <outline>
    <contour>
      <point x="547" y="575" type="line"/>
      <point x="564" y="693" type="line"/>
      <point x="107" y="693" type="line"/>
      <point x="107" y="0" type="line"/>
      <point x="274" y="0" type="line"/>
      <point x="274" y="274" type="line"/>
      <point x="516" y="274" type="line"/>
      <point x="516" y="393" type="line"/>
      <point x="274" y="393" type="line"/>
      <point x="274" y="575" type="line"/>
    </contour>
  </outline>
</glyph>
<glyph name="G" format="1">
  <advance width="600"/>
  <unicode hex="0047"/>
  <outline>
    <contour>
      <point x="420" y="-17"/>
      <point x="499" y="10"/>
      <point x="569" y="53" type="curve"/>
      <point x="569" y="398" type="line"/>
      <point x="310" y="398" type="line"/>
      <point x="326" y="282" type="line"/>
      <point x="412" y="282" type="line"/>
      <point x="412" y="125" type="line"/>
      <point x="388" y="112"/>
      <point x="359" y="104"/>
      <point x="327" y="104" type="curve" smooth="yes"/>
      <point x="236" y="104"/>
      <point x="193" y="166"/>
      <point x="193" y="347" type="curve" smooth="yes"/>
      <point x="193" y="520"/>
      <point x="260" y="590"/>
      <point x="353" y="590" type="curve" smooth="yes"/>
      <point x="402" y="590"/>
      <point x="437" y="572"/>
      <point x="479" y="535" type="curve"/>
      <point x="566" y="625" type="line"/>
      <point x="512" y="676"/>
      <point x="446" y="711"/>
      <point x="345" y="711" type="curve" smooth="yes"/>
      <point x="164" y="711"/>
      <point x="22" y="584"/>
      <point x="22" y="348" type="curve" smooth="yes"/>
      <point x="22" y="110"/>
      <point x="128" y="-17"/>
      <point x="326" y="-17" type="curve" smooth="yes"/>
    </contour>
    <contour>
      <point x="330" y="693" type="move" name="top"/>
    </contour>
    <contour>
      <point x="327" y="0" type="move" name="bottom"/>
    </contour>
  </outline>
</glyph>
<glyph name="I" format="1">
  <advance width="600"/>
  <unicode hex="0049"/>
  <outline>
    <contour>
      <point x="74" y="693" type="line"/>
      <point x="74" y="572" type="line"/>
      <point x="217" y="572" type="line"/>
      <point x="217" y="122" type="line"/>
      <point x="74" y="122" type="line"/>
      <point x="74" y="0" type="line"/>
      <point x="526" y="0" type="line"/>
      <point x="526" y="122" type="line"/>
      <point x="383" y="122" type="line"/>
      <point x="383" y="572" type="line"/>
      <point x="526" y="572" type="line"/>
      <point x="526" y="693" type="line"/>
    </contour>
    <contour>
      <point x="393" y="0" type="move" name="ogonek"/>
    </contour>
    <contour>
      <point x="300" y="693" type="move" name="top"/>
    </contour>
    <contour>
      <point x="64" y="693" type="move" name="topleft"/>
    </contour>
  </outline>
</glyph>
<glyph name="J" format="1">
  <advance width="600"/>
  <unicode hex="004A"/>
  <outline>
    <contour>
      <point x="149" y="693" type="line"/>
      <point x="149" y="572" type="line"/>
      <point x="362" y="572" type="line"/>
      <point x="362" y="248" type="line" smooth="yes"/>
      <point x="362" y="152"/>
      <point x="308" y="108"/>
      <point x="238" y="108" type="curve" smooth="yes"/>
      <point x="185" y="108"/>
      <point x="148" y="120"/>
      <point x="101" y="152" type="curve"/>
      <point x="38" y="50" type="line"/>
      <point x="98" y="9"/>
      <point x="158" y="-15"/>
      <point x="248" y="-15" type="curve" smooth="yes"/>
      <point x="425" y="-15"/>
      <point x="528" y="87"/>
      <point x="528" y="250" type="curve" smooth="yes"/>
      <point x="528" y="693" type="line"/>
    </contour>
    <contour>
      <point x="352" y="693" type="move" name="top"/>
    </contour>
  </outline>
</glyph>
<glyph name="K" format="1">
  <advance width="600"/>
  <unicode hex="004B"/>
  <outline>
    <contour>
      <point x="224" y="693" type="line"/>
      <point x="58" y="693" type="line"/>
      <point x="58" y="0" type="line"/>
      <point x="224" y="0" type="line"/>
    </contour>
    <contour>
      <point x="417" y="0" type="line"/>
      <point x="609" y="0" type="line"/>
      <point x="396" y="382" type="line"/>
      <point x="590" y="693" type="line"/>
      <point x="416" y="693" type="line"/>
      <point x="229" y="370" type="line"/>
    </contour>
    <contour>
      <point x="300" y="693" type="move" name="top"/>
    </contour>
    <contour>
      <point x="300" y="0" type="move" name="bottom"/>
    </contour>
  </outline>
</glyph>
<glyph name="L" format="1">
  <advance width="600"/>
  <unicode hex="004C"/>
  <outline>
    <contour>
      <point x="541" y="0" type="line"/>
      <point x="558" y="131" type="line"/>
      <point x="258" y="131" type="line"/>
      <point x="258" y="693" type="line"/>
      <point x="92" y="693" type="line"/>
      <point x="92" y="0" type="line"/>
    </contour>
    <contour>
      <point x="317" y="0" type="move" name="bottom"/>
    </contour>
    <contour>
      <point x="175" y="693" type="move" name="top"/>
    </contour>
    <contour>
      <point x="308" y="693" type="move" name="topright"/>
    </contour>
    <contour>
      <point x="466" y="385" type="move" name="center"/>
    </contour>
  </outline>
</glyph>
<glyph name="M" format="1">
  <advance width="600"/>
  <unicode hex="004D"/>
  <outline>
    <contour>
      <point x="374" y="693" type="line"/>
      <point x="302" y="246" type="line"/>
      <point x="226" y="693" type="line"/>
      <point x="56" y="693" type="line"/>
      <point x="17" y="0" type="line"/>
      <point x="159" y="0" type="line"/>
      <point x="164" y="292" type="line" smooth="yes"/>
      <point x="166" y="404"/>
      <point x="162" y="463"/>
      <point x="154" y="537" type="curve"/>
      <point x="158" y="537" type="line"/>
      <point x="237" y="118" type="line"/>
      <point x="362" y="118" type="line"/>
      <point x="435" y="537" type="line"/>
      <point x="439" y="537" type="line"/>
      <point x="432" y="458"/>
      <point x="427" y="405"/>
      <point x="430" y="295" type="curve" smooth="yes"/>
      <point x="438" y="0" type="line"/>
      <point x="583" y="0" type="line"/>
      <point x="544" y="693" type="line"/>
    </contour>
  </outline>
</glyph>
<glyph name="Q" format="1">
  <advance width="600"/>
  <unicode hex="0051"/>
  <outline>
    <contour>
      <point x="575" y="572"/>
      <point x="485" y="711"/>
      <point x="303" y="711" type="curve" smooth="yes"/>
      <point x="121" y="711"/>
      <point x="32" y="567"/>
      <point x="32" y="347" type="curve" smooth="yes"/>
      <point x="32" y="122"/>
      <point x="116" y="-14"/>
      <point x="290" y="-14" type="curve" smooth="yes"/>
      <point x="411" y="-14"/>
      <point x="456" y="-69"/>
      <point x="500" y="-173" type="curve"/>
      <point x="635" y="-127" type="line"/>
      <point x="597" y="-15"/>
      <point x="538" y="22"/>
      <point x="429" y="40" type="curve"/>
      <point x="539" y="96"/>
      <point x="575" y="211"/>
      <point x="575" y="347" type="curve" smooth="yes"/>
    </contour>
    <contour>
      <point x="402" y="179"/>
      <point x="382" y="104"/>
      <point x="303" y="104" type="curve" smooth="yes"/>
      <point x="227" y="104"/>
      <point x="204" y="178"/>
      <point x="204" y="347" type="curve" smooth="yes"/>
      <point x="204" y="515"/>
      <point x="226" y="589"/>
      <point x="303" y="589" type="curve" smooth="yes"/>
      <point x="381" y="589"/>
      <point x="402" y="516"/>
      <point x="402" y="347" type="curve" smooth="yes"/>
    </contour>
    <contour>
      <point x="300" y="693" type="move" name="top"/>
    </contour>
    <contour>
      <point x="300" y="0" type="move" name="bottom"/>
    </contour>
  </outline>
</glyph>
<glyph name="R" format="1">
  <advance width="600"/>
  <unicode hex="0052"/>
  <outline>
    <contour>
      <point x="562" y="626"/>
      <point x="465" y="693"/>
      <point x="276" y="693" type="curve" smooth="yes"/>
      <point x="57" y="693" type="line"/>
      <point x="57" y="0" type="line"/>
      <point x="223" y="0" type="line"/>
      <point x="223" y="264" type="line"/>
      <point x="268" y="264" type="line"/>
      <point x="417" y="0" type="line"/>
      <point x="605" y="0" type="line"/>
      <point x="424" y="292" type="line"/>
      <point x="501" y="323"/>
      <point x="562" y="383"/>
      <point x="562" y="482" type="curve" smooth="yes"/>
    </contour>
    <contour>
      <point x="391" y="409"/>
      <point x="353" y="378"/>
      <point x="283" y="378" type="curve" smooth="yes"/>
      <point x="223" y="378" type="line"/>
      <point x="223" y="577" type="line"/>
      <point x="276" y="577" type="line" smooth="yes"/>
      <point x="352" y="577"/>
      <point x="391" y="548"/>
      <point x="391" y="482" type="curve" smooth="yes"/>
    </contour>
    <contour>
      <point x="300" y="693" type="move" name="top"/>
    </contour>
    <contour>
      <point x="310" y="0" type="move" name="bottom"/>
    </contour>
  </outline>
</glyph>
<glyph name="S" format="1">
  <advance width="600"/>
  <unicode hex="0053"/>
  <outline>
    <contour>
      <point x="569" y="330"/>
      <point x="492" y="386"/>
      <point x="360" y="427" type="curve" smooth="yes"/>
      <point x="250" y="461"/>
      <point x="219" y="478"/>
      <point x="219" y="522" type="curve" smooth="yes"/>
      <point x="219" y="566"/>
      <point x="260" y="589"/>
      <point x="322" y="589" type="curve" smooth="yes"/>
      <point x="378" y="589"/>
      <point x="433" y="570"/>
      <point x="480" y="531" type="curve"/>
      <point x="558" y="621" type="line"/>
      <point x="498" y="678"/>
      <point x="416" y="711"/>
      <point x="309" y="711" type="curve" smooth="yes"/>
      <point x="165" y="711"/>
      <point x="47" y="637"/>
      <point x="47" y="509" type="curve" smooth="yes"/>
      <point x="47" y="404"/>
      <point x="108" y="342"/>
      <point x="271" y="292" type="curve" smooth="yes"/>
      <point x="367" y="263"/>
      <point x="396" y="240"/>
      <point x="396" y="190" type="curve" smooth="yes"/>
      <point x="396" y="137"/>
      <point x="350" y="106"/>
      <point x="282" y="106" type="curve" smooth="yes"/>
      <point x="208" y="106"/>
      <point x="146" y="131"/>
      <point x="95" y="176" type="curve"/>
      <point x="11" y="83" type="line"/>
      <point x="69" y="26"/>
      <point x="154" y="-17"/>
      <point x="286" y="-17" type="curve" smooth="yes"/>
      <point x="463" y="-17"/>
      <point x="569" y="73"/>
      <point x="569" y="203" type="curve" smooth="yes"/>
    </contour>
    <contour>
      <point x="310" y="693" type="move" name="top"/>
    </contour>
    <contour>
      <point x="300" y="0" type="move" name="bottom"/>
    </contour>
  </outline>
</glyph>
<glyph name="T" format="1">
  <advance width="600"/>
  <unicode hex="0054"/>
  <outline>
    <contour>
      <point x="567" y="566" type="line"/>
      <point x="584" y="693" type="line"/>
      <point x="22" y="693" type="line"/>
      <point x="22" y="566" type="line"/>
      <point x="216" y="566" type="line"/>
      <point x="216" y="0" type="line"/>
      <point x="382" y="0" type="line"/>
      <point x="382" y="566" type="line"/>
    </contour>
    <contour>
      <point x="299" y="0" type="move" name="bottom"/>
    </contour>
    <contour>
      <point x="299" y="693" type="move" name="top"/>
    </contour>
    <contour>
      <point x="392" y="0" type="move" name="bottomright"/>
    </contour>
    <contour>
      <point x="300" y="347" type="move" name="center"/>
    </contour>
  </outline>
</glyph>
<glyph name="V" format="1">
  <advance width="600"/>
  <unicode hex="0056"/>
  <outline>
    <contour>
      <point x="175" y="693" type="line"/>
      <point x="-1" y="693" type="line"/>
      <point x="197" y="0" type="line"/>
      <point x="403" y="0" type="line"/>
      <point x="602" y="693" type="line"/>
      <point x="432" y="693" type="line"/>
      <point x="303" y="129" type="line"/>
    </contour>
    <contour>
      <point x="300" y="693" type="move" name="top"/>
    </contour>
    <contour>
      <point x="300" y="0" type="move" name="bottom"/>
    </contour>
  </outline>
</glyph>
<glyph name="W" format="1">
  <advance width="600"/>
  <unicode hex="0057"/>
  <outline>
    <contour>
      <point x="459" y="693" type="line"/>
      <point x="426" y="141" type="line"/>
      <point x="373" y="613" type="line"/>
      <point x="231" y="613" type="line"/>
      <point x="174" y="141" type="line"/>
      <point x="152" y="693" type="line"/>
      <point x="-3" y="693" type="line"/>
      <point x="71" y="0" type="line"/>
      <point x="246" y="0" type="line"/>
      <point x="301" y="495" type="line"/>
      <point x="351" y="0" type="line"/>
      <point x="523" y="0" type="line"/>
      <point x="603" y="693" type="line"/>
    </contour>
    <contour>
      <point x="300" y="693" type="move" name="top"/>
    </contour>
  </outline>
</glyph>
<glyph name="X" format="1">
  <advance width="600"/>
  <unicode hex="0058"/>
  <outline>
    <contour>
      <point x="199" y="368" type="line"/>
      <point x="3" y="0" type="line"/>
      <point x="179" y="0" type="line"/>
      <point x="298" y="263" type="line"/>
      <point x="419" y="0" type="line"/>
      <point x="598" y="0" type="line"/>
      <point x="397" y="375" type="line"/>
      <point x="581" y="693" type="line"/>
      <point x="406" y="693" type="line"/>
      <point x="300" y="472" type="line"/>
      <point x="197" y="693" type="line"/>
      <point x="18" y="693" type="line"/>
    </contour>
    <contour>
      <point x="300" y="693" type="move" name="top"/>
    </contour>
    <contour>
      <point x="300" y="0" type="move" name="bottom"/>
    </contour>
    <contour>
      <point x="560" y="0" type="move" name="bottomright"/>
    </contour>
  </outline>
</glyph>
<glyph name="Y" format="1">
  <advance width="600"/>
  <unicode hex="0059"/>
  <outline>
    <contour>
      <point x="609" y="693" type="line"/>
      <point x="434" y="693" type="line"/>
      <point x="303" y="396" type="line"/>
      <point x="173" y="693" type="line"/>
      <point x="-9" y="693" type="line"/>
      <point x="217" y="259" type="line"/>
      <point x="217" y="0" type="line"/>
      <point x="383" y="0" type="line"/>
      <point x="383" y="260" type="line"/>
    </contour>
    <contour>
      <point x="300" y="693" type="move" name="top"/>
    </contour>
    <contour>
      <point x="-9" y="693" type="move" name="topleft"/>
    </contour>
  </outline>
</glyph>
<glyph name="Z" format="1">
  <advance width="600"/>
  <unicode hex="005A"/>
  <outline>
    <contour>
      <point x="555" y="568" type="line"/>
      <point x="555" y="693" type="line"/>
      <point x="74" y="693" type="line"/>
      <point x="74" y="565" type="line"/>
      <point x="366" y="565" type="line"/>
      <point x="38" y="124" type="line"/>
      <point x="38" y="0" type="line"/>
      <point x="546" y="0" type="line"/>
      <point x="563" y="132" type="line"/>
      <point x="234" y="132" type="line"/>
    </contour>
    <contour>
      <point x="313" y="693" type="move" name="top"/>
    </contour>
  </outline>
</glyph>
<glyph name="bracketleft" format="1">
  <advance width="600"/>
  <unicode hex="005B"/>
  <outline>
    <contour>
      <point x="465" y="-123" type="line"/>
      <point x="465" y="-5" type="line"/>
      <point x="306" y="-5" type="line"/>
      <point x="306" y="704" type="line"/>
      <point x="465" y="704" type="line"/>
      <point x="465" y="823" type="line"/>
      <point x="155" y="823" type="line"/>
      <point x="155" y="-123" type="line"/>
    </contour>
  </outline>
</glyph>
<glyph name="backslash" format="1">
  <advance width="600"/>
  <unicode hex="005C"/>
  <outline>
    <contour>
      <point x="447" y="-112" type="line"/>
      <point x="572" y="-55" type="line"/>
      <point x="153" y="817" type="line"/>
      <point x="28" y="760" type="line"/>
    </contour>
  </outline>
</glyph>
<glyph name="bracketright" format="1">
  <advance width="600"/>
  <unicode hex="005D"/>
  <outline>
    <contour>
      <point x="135" y="823" type="line"/>
      <point x="135" y="704" type="line"/>
      <point x="294" y="704" type="line"/>
      <point x="294" y="-4" type="line"/>
      <point x="135" y="-4" type="line"/>
      <point x="135" y="-123" type="line"/>
      <point x="445" y="-123" type="line"/>
      <point x="445" y="823" type="line"/>
    </contour>
  </outline>
</glyph>
<glyph name="asciicircum" format="1">
  <advance width="600"/>
  <unicode hex="005E"/>
  <outline>
    <contour>
      <point x="227" y="844" type="line"/>
      <point x="38" y="527" type="line"/>
      <point x="196" y="527" type="line"/>
      <point x="299" y="725" type="line"/>
      <point x="406" y="527" type="line"/>
      <point x="562" y="527" type="line"/>
      <point x="373" y="844" type="line"/>
    </contour>
  </outline>
</glyph>
<glyph name="grave" format="1">
  <advance width="600"/>
  <unicode hex="0060"/>
  <outline>
    <contour>
      <point x="443" y="703" type="line"/>
      <point x="224" y="836" type="line"/>
      <point x="162" y="716" type="line"/>
      <point x="399" y="622" type="line"/>
    </contour>
    <contour>
      <point x="300" y="531" type="move" name="_top"/>
    </contour>
  </outline>
</glyph>
<glyph name="a" format="1">
  <advance width="600"/>
  <unicode hex="0061"/>
  <outline>
    <contour>
      <point x="518" y="361" type="line" smooth="yes"/>
      <point x="518" y="483"/>
      <point x="444" y="549"/>
      <point x="285" y="549" type="curve" smooth="yes"/>
      <point x="226" y="549"/>
      <point x="146" y="535"/>
      <point x="77" y="509" type="curve"/>
      <point x="114" y="403" type="line"/>
      <point x="167" y="421"/>
      <point x="226" y="431"/>
      <point x="260" y="431" type="curve" smooth="yes"/>
      <point x="328" y="431"/>
      <point x="364" y="405"/>
      <point x="364" y="350" type="curve" smooth="yes"/>
      <point x="364" y="331" type="line"/>
      <point x="293" y="331" type="line" smooth="yes"/>
      <point x="129" y="331"/>
      <point x="34" y="265"/>
      <point x="34" y="150" type="curve" smooth="yes"/>
      <point x="34" y="52"/>
      <point x="104" y="-17"/>
      <point x="214" y="-17" type="curve" smooth="yes"/>
      <point x="280" y="-17"/>
      <point x="348" y="6"/>
      <point x="389" y="55" type="curve"/>
      <point x="414" y="11"/>
      <point x="457" y="-9"/>
      <point x="520" y="-15" type="curve"/>
      <point x="553" y="90" type="line"/>
      <point x="528" y="99"/>
      <point x="518" y="114"/>
      <point x="518" y="154" type="curve" smooth="yes"/>
    </contour>
    <contour>
      <point x="225" y="97"/>
      <point x="199" y="121"/>
      <point x="199" y="161" type="curve" smooth="yes"/>
      <point x="199" y="213"/>
      <point x="239" y="240"/>
      <point x="326" y="240" type="curve" smooth="yes"/>
      <point x="364" y="240" type="line"/>
      <point x="364" y="155" type="line"/>
      <point x="345" y="118"/>
      <point x="303" y="97"/>
      <point x="269" y="97" type="curve" smooth="yes"/>
    </contour>
    <contour>
      <point x="530" y="-15" type="move" name="ogonek"/>
    </contour>
    <contour>
      <point x="293" y="531" type="move" name="top"/>
    </contour>
  </outline>
</glyph>
<glyph name="b" format="1">
  <advance width="600"/>
  <unicode hex="0062"/>
  <outline>
    <contour>
      <point x="229" y="759" type="line"/>
      <point x="69" y="742" type="line"/>
      <point x="69" y="0" type="line"/>
      <point x="211" y="0" type="line"/>
      <point x="217" y="48" type="line"/>
      <point x="248" y="6"/>
      <point x="295" y="-17"/>
      <point x="348" y="-17" type="curve" smooth="yes"/>
      <point x="486" y="-17"/>
      <point x="561" y="103"/>
      <point x="561" y="267" type="curve" smooth="yes"/>
      <point x="561" y="440"/>
      <point x="501" y="549"/>
      <point x="365" y="549" type="curve" smooth="yes"/>
      <point x="311" y="549"/>
      <point x="262" y="521"/>
      <point x="229" y="477" type="curve"/>
    </contour>
    <contour>
      <point x="272" y="99"/>
      <point x="249" y="116"/>
      <point x="229" y="147" type="curve"/>
      <point x="229" y="370" type="line"/>
      <point x="252" y="408"/>
      <point x="279" y="431"/>
      <point x="314" y="431" type="curve" smooth="yes"/>
      <point x="363" y="431"/>
      <point x="396" y="397"/>
      <point x="396" y="265" type="curve" smooth="yes"/>
      <point x="396" y="146"/>
      <point x="361" y="99"/>
      <point x="306" y="99" type="curve" smooth="yes"/>
    </contour>
  </outline>
</glyph>
<glyph name="c" format="1">
  <advance width="600"/>
  <unicode hex="0063"/>
  <outline>
    <contour>
      <point x="285" y="109"/>
      <point x="235" y="145"/>
      <point x="235" y="262" type="curve" smooth="yes"/>
      <point x="235" y="381"/>
      <point x="282" y="426"/>
      <point x="353" y="426" type="curve" smooth="yes"/>
      <point x="396" y="426"/>
      <point x="436" y="411"/>
      <point x="472" y="386" type="curve"/>
      <point x="541" y="482" type="line"/>
      <point x="488" y="526"/>
      <point x="427" y="549"/>
      <point x="346" y="549" type="curve" smooth="yes"/>
      <point x="175" y="549"/>
      <point x="68" y="428"/>
      <point x="68" y="262" type="curve" smooth="yes"/>
      <point x="68" y="96"/>
      <point x="171" y="-17"/>
      <point x="343" y="-17" type="curve" smooth="yes"/>
      <point x="426" y="-17"/>
      <point x="494" y="13"/>
      <point x="541" y="53" type="curve"/>
      <point x="470" y="154" type="line"/>
      <point x="432" y="128"/>
      <point x="395" y="109"/>
      <point x="352" y="109" type="curve" smooth="yes"/>
    </contour>
    <contour>
      <point x="344" y="518" type="move" name="top"/>
    </contour>
    <contour>
      <point x="339" y="0" type="move" name="bottom"/>
    </contour>
    <contour>
      <point x="339" y="0" type="move" name="bottomAttach"/>
    </contour>
  </outline>
</glyph>
<glyph name="d" format="1">
  <advance width="600"/>
  <unicode hex="0064"/>
  <outline>
    <contour>
      <point x="371" y="500" type="line"/>
      <point x="339" y="532"/>
      <point x="298" y="549"/>
      <point x="251" y="549" type="curve" smooth="yes"/>
      <point x="120" y="549"/>
      <point x="39" y="431"/>
      <point x="39" y="267" type="curve" smooth="yes"/>
      <point x="39" y="96"/>
      <point x="102" y="-17"/>
      <point x="234" y="-17" type="curve" smooth="yes"/>
      <point x="304" y="-17"/>
      <point x="352" y="17"/>
      <point x="381" y="58" type="curve"/>
      <point x="389" y="0" type="line"/>
      <point x="531" y="0" type="line"/>
      <point x="531" y="742" type="line"/>
      <point x="371" y="759" type="line"/>
    </contour>
    <contour>
      <point x="326" y="432"/>
      <point x="349" y="416"/>
      <point x="371" y="389" type="curve"/>
      <point x="371" y="161" type="line"/>
      <point x="348" y="123"/>
      <point x="320" y="100"/>
      <point x="285" y="100" type="curve" smooth="yes"/>
      <point x="238" y="100"/>
      <point x="204" y="135"/>
      <point x="204" y="266" type="curve" smooth="yes"/>
      <point x="204" y="385"/>
      <point x="240" y="432"/>
      <point x="294" y="432" type="curve" smooth="yes"/>
    </contour>
    <contour>
      <point x="300" y="266" type="move" name="center"/>
    </contour>
    <contour>
      <point x="551" y="742" type="move" name="topright"/>
    </contour>
  </outline>
</glyph>
<glyph name="f" format="1">
  <advance width="600"/>
  <unicode hex="0066"/>
  <outline>
    <contour>
      <point x="263" y="759"/>
      <point x="187" y="679"/>
      <point x="187" y="574" type="curve" smooth="yes"/>
      <point x="187" y="498" type="line"/>
      <point x="76" y="498" type="line"/>
      <point x="76" y="387" type="line"/>
      <point x="187" y="387" type="line"/>
      <point x="187" y="0" type="line"/>
      <point x="346" y="0" type="line"/>
      <point x="346" y="387" type="line"/>
      <point x="501" y="387" type="line"/>
      <point x="519" y="498" type="line"/>
      <point x="346" y="498" type="line"/>
      <point x="346" y="568" type="line" smooth="yes"/>
      <point x="346" y="620"/>
      <point x="371" y="641"/>
      <point x="433" y="641" type="curve" smooth="yes"/>
      <point x="471" y="641"/>
      <point x="510" y="635"/>
      <point x="547" y="621" type="curve"/>
      <point x="591" y="725" type="line"/>
      <point x="544" y="745"/>
      <point x="486" y="759"/>
      <point x="408" y="759" type="curve" smooth="yes"/>
    </contour>
  </outline>
</glyph>
<glyph name="g" format="1">
  <advance width="600"/>
  <unicode hex="0067"/>
  <outline>
    <contour>
      <point x="478" y="579"/>
      <point x="410" y="545"/>
      <point x="292" y="548" type="curve" smooth="yes"/>
      <point x="153" y="548"/>
      <point x="54" y="474"/>
      <point x="54" y="354" type="curve" smooth="yes"/>
      <point x="54" y="285"/>
      <point x="81" y="238"/>
      <point x="149" y="202" type="curve"/>
      <point x="111" y="178"/>
      <point x="89" y="140"/>
      <point x="89" y="101" type="curve" smooth="yes"/>
      <point x="89" y="44"/>
      <point x="138" y="-5"/>
      <point x="254" y="-5" type="curve" smooth="yes"/>
      <point x="338" y="-5" type="line" smooth="yes"/>
      <point x="391" y="-5"/>
      <point x="414" y="-26"/>
      <point x="414" y="-57" type="curve" smooth="yes"/>
      <point x="414" y="-91"/>
      <point x="392" y="-117"/>
      <point x="292" y="-117" type="curve" smooth="yes"/>
      <point x="192" y="-117"/>
      <point x="172" y="-97"/>
      <point x="172" y="-51" type="curve"/>
      <point x="30" y="-51" type="line"/>
      <point x="30" y="-156"/>
      <point x="83" y="-222"/>
      <point x="288" y="-222" type="curve" smooth="yes"/>
      <point x="477" y="-222"/>
      <point x="573" y="-155"/>
      <point x="573" y="-46" type="curve" smooth="yes"/>
      <point x="573" y="43"/>
      <point x="494" y="108"/>
      <point x="370" y="108" type="curve" smooth="yes"/>
      <point x="283" y="108" type="line" smooth="yes"/>
      <point x="232" y="108"/>
      <point x="225" y="124"/>
      <point x="225" y="140" type="curve" smooth="yes"/>
      <point x="225" y="152"/>
      <point x="231" y="164"/>
      <point x="242" y="170" type="curve"/>
      <point x="261" y="166"/>
      <point x="281" y="164"/>
      <point x="303" y="164" type="curve" smooth="yes"/>
      <point x="441" y="164"/>
      <point x="529" y="239"/>
      <point x="529" y="342" type="curve" smooth="yes"/>
      <point x="529" y="411"/>
      <point x="493" y="450"/>
      <point x="426" y="479" type="curve"/>
      <point x="493" y="479"/>
      <point x="542" y="485"/>
      <point x="579" y="500" type="curve"/>
      <point x="542" y="617" type="line"/>
    </contour>
    <contour>
      <point x="349" y="444"/>
      <point x="376" y="417"/>
      <point x="376" y="358" type="curve" smooth="yes"/>
      <point x="376" y="297"/>
      <point x="348" y="266"/>
      <point x="296" y="266" type="curve" smooth="yes"/>
      <point x="248" y="266"/>
      <point x="216" y="298"/>
      <point x="216" y="356" type="curve" smooth="yes"/>
      <point x="216" y="411"/>
      <point x="247" y="444"/>
      <point x="296" y="444" type="curve" smooth="yes"/>
    </contour>
    <contour>
      <point x="300" y="-222" type="move" name="bottom "/>
    </contour>
    <contour>
      <point x="301" y="531" type="move" name="top"/>
    </contour>
  </outline>
</glyph>
<glyph name="h" format="1">
  <advance width="600"/>
  <unicode hex="0068"/>
  <outline>
    <contour>
      <point x="69" y="742" type="line"/>
      <point x="69" y="0" type="line"/>
      <point x="229" y="0" type="line"/>
      <point x="229" y="367" type="line"/>
      <point x="259" y="407"/>
      <point x="288" y="431"/>
      <point x="321" y="431" type="curve" smooth="yes"/>
      <point x="359" y="431"/>
      <point x="371" y="409"/>
      <point x="371" y="345" type="curve" smooth="yes"/>
      <point x="371" y="0" type="line"/>
      <point x="531" y="0" type="line"/>
      <point x="531" y="390" type="line" smooth="yes"/>
      <point x="531" y="491"/>
      <point x="479" y="549"/>
      <point x="385" y="549" type="curve" smooth="yes"/>
      <point x="326" y="549"/>
      <point x="274" y="526"/>
      <point x="229" y="479" type="curve"/>
      <point x="229" y="758" type="line"/>
    </contour>
    <contour>
      <point x="300" y="266" type="move" name="center"/>
    </contour>
    <contour>
      <point x="300" y="0" type="move" name="bottom"/>
    </contour>
    <contour>
      <point x="300" y="742" type="move" name="top"/>
    </contour>
  </outline>
</glyph>
<glyph name="j" format="1">
  <advance width="600"/>
  <unicode hex="006A"/>
  <outline>
    <contour>
      <point x="123" y="531" type="line"/>
      <point x="123" y="422" type="line"/>
      <point x="313" y="422" type="line"/>
      <point x="313" y="146" type="line" smooth="yes"/>
      <point x="313" y="-9"/>
      <point x="230" y="-63"/>
      <point x="69" y="-100" type="curve"/>
      <point x="94" y="-222" type="line"/>
      <point x="343" y="-173"/>
      <point x="473" y="-76"/>
      <point x="473" y="156" type="curve" smooth="yes"/>
      <point x="473" y="531" type="line"/>
    </contour>
    <contour>
      <point x="314" y="810"/>
      <point x="275" y="771"/>
      <point x="275" y="720" type="curve" smooth="yes"/>
      <point x="275" y="669"/>
      <point x="314" y="630"/>
      <point x="370" y="630" type="curve" smooth="yes"/>
      <point x="425" y="630"/>
      <point x="464" y="669"/>
      <point x="464" y="720" type="curve" smooth="yes"/>
      <point x="464" y="771"/>
      <point x="425" y="810"/>
      <point x="370" y="810" type="curve" smooth="yes"/>
    </contour>
    <contour>
      <point x="370" y="531" type="move" name="top"/>
    </contour>
  </outline>
</glyph>
<glyph name="l" format="1">
  <advance width="600"/>
  <unicode hex="006C"/>
  <outline>
    <contour>
      <point x="32" y="742" type="line"/>
      <point x="32" y="633" type="line"/>
      <point x="188" y="633" type="line"/>
      <point x="188" y="188" type="line" smooth="yes"/>
      <point x="188" y="63"/>
      <point x="246" y="-17"/>
      <point x="375" y="-17" type="curve" smooth="yes"/>
      <point x="443" y="-17"/>
      <point x="493" y="-1"/>
      <point x="529" y="18" type="curve"/>
      <point x="491" y="125" type="line"/>
      <point x="469" y="116"/>
      <point x="443" y="109"/>
      <point x="416" y="109" type="curve" smooth="yes"/>
      <point x="374" y="109"/>
      <point x="348" y="125"/>
      <point x="348" y="168" type="curve" smooth="yes"/>
      <point x="348" y="742" type="line"/>
    </contour>
    <contour>
      <point x="355" y="0" type="move" name="bottom"/>
    </contour>
    <contour>
      <point x="256" y="742" type="move" name="top"/>
    </contour>
    <contour>
      <point x="378" y="742" type="move" name="topright"/>
    </contour>
    <contour>
      <point x="568" y="383" type="move" name="center"/>
    </contour>
  </outline>
</glyph>
<glyph name="m" format="1">
  <advance width="600"/>
  <unicode hex="006D"/>
  <outline>
    <contour>
      <point x="416" y="549"/>
      <point x="378" y="523"/>
      <point x="346" y="486" type="curve"/>
      <point x="334" y="529"/>
      <point x="305" y="549"/>
      <point x="265" y="549" type="curve" smooth="yes"/>
      <point x="218" y="549"/>
      <point x="187" y="525"/>
      <point x="154" y="480" type="curve"/>
      <point x="143" y="531" type="line"/>
      <point x="26" y="531" type="line"/>
      <point x="26" y="0" type="line"/>
      <point x="165" y="0" type="line"/>
      <point x="165" y="391" type="line"/>
      <point x="186" y="417"/>
      <point x="203" y="425"/>
      <point x="219" y="425" type="curve" smooth="yes"/>
      <point x="240" y="425"/>
      <point x="245" y="411"/>
      <point x="245" y="375" type="curve" smooth="yes"/>
      <point x="245" y="0" type="line"/>
      <point x="357" y="0" type="line"/>
      <point x="357" y="391" type="line"/>
      <point x="378" y="417"/>
      <point x="395" y="425"/>
      <point x="411" y="425" type="curve" smooth="yes"/>
      <point x="432" y="425"/>
      <point x="437" y="411"/>
      <point x="437" y="375" type="curve" smooth="yes"/>
      <point x="437" y="0" type="line"/>
      <point x="574" y="0" type="line"/>
      <point x="574" y="393" type="line" smooth="yes"/>
      <point x="574" y="502"/>
      <point x="539" y="549"/>
      <point x="463" y="549" type="curve" smooth="yes"/>
    </contour>
  </outline>
</glyph>
<glyph name="n" format="1">
  <advance width="600"/>
  <unicode hex="006E"/>
  <outline>
    <contour>
      <point x="229" y="0" type="line"/>
      <point x="229" y="371" type="line"/>
      <point x="259" y="409"/>
      <point x="288" y="431"/>
      <point x="321" y="431" type="curve" smooth="yes"/>
      <point x="359" y="431"/>
      <point x="371" y="409"/>
      <point x="371" y="345" type="curve" smooth="yes"/>
      <point x="371" y="0" type="line"/>
      <point x="531" y="0" type="line"/>
      <point x="531" y="390" type="line" smooth="yes"/>
      <point x="531" y="491"/>
      <point x="475" y="549"/>
      <point x="385" y="549" type="curve" smooth="yes"/>
      <point x="317" y="549"/>
      <point x="267" y="523"/>
      <point x="220" y="470" type="curve"/>
      <point x="209" y="531" type="line"/>
      <point x="69" y="531" type="line"/>
      <point x="69" y="0" type="line"/>
    </contour>
    <contour>
      <point x="301" y="531" type="move" name="top"/>
    </contour>
    <contour>
      <point x="301" y="0" type="move" name="bottom"/>
    </contour>
  </outline>
</glyph>
<glyph name="o" format="1">
  <advance width="600"/>
  <unicode hex="006F"/>
  <outline>
    <contour>
      <point x="137" y="549"/>
      <point x="41" y="435"/>
      <point x="41" y="266" type="curve" smooth="yes"/>
      <point x="41" y="87"/>
      <point x="137" y="-17"/>
      <point x="300" y="-17" type="curve" smooth="yes"/>
      <point x="463" y="-17"/>
      <point x="559" y="89"/>
      <point x="559" y="267" type="curve" smooth="yes"/>
      <point x="559" y="437"/>
      <point x="464" y="549"/>
      <point x="300" y="549" type="curve" smooth="yes"/>
    </contour>
    <contour>
      <point x="364" y="431"/>
      <point x="394" y="381"/>
      <point x="394" y="267" type="curve" smooth="yes"/>
      <point x="394" y="149"/>
      <point x="364" y="100"/>
      <point x="300" y="100" type="curve" smooth="yes"/>
      <point x="236" y="100"/>
      <point x="206" y="149"/>
      <point x="206" y="266" type="curve" smooth="yes"/>
      <point x="206" y="381"/>
      <point x="236" y="431"/>
      <point x="300" y="431" type="curve" smooth="yes"/>
    </contour>
    <contour>
      <point x="300" y="531" type="move" name="top"/>
    </contour>
  </outline>
</glyph>
<glyph name="q" format="1">
  <advance width="600"/>
  <unicode hex="0071"/>
  <outline>
    <contour>
      <point x="118" y="549"/>
      <point x="41" y="431"/>
      <point x="41" y="267" type="curve" smooth="yes"/>
      <point x="41" y="95"/>
      <point x="99" y="-17"/>
      <point x="235" y="-17" type="curve" smooth="yes"/>
      <point x="298" y="-17"/>
      <point x="340" y="8"/>
      <point x="371" y="44" type="curve"/>
      <point x="371" y="-205" type="line"/>
      <point x="531" y="-222" type="line"/>
      <point x="531" y="531" type="line"/>
      <point x="391" y="531" type="line"/>
      <point x="384" y="489" type="line"/>
      <point x="352" y="528"/>
      <point x="306" y="549"/>
      <point x="254" y="549" type="curve" smooth="yes"/>
    </contour>
    <contour>
      <point x="328" y="432"/>
      <point x="350" y="416"/>
      <point x="371" y="389" type="curve"/>
      <point x="371" y="161" type="line"/>
      <point x="349" y="123"/>
      <point x="322" y="101"/>
      <point x="286" y="101" type="curve" smooth="yes"/>
      <point x="238" y="101"/>
      <point x="206" y="135"/>
      <point x="206" y="266" type="curve" smooth="yes"/>
      <point x="206" y="385"/>
      <point x="239" y="432"/>
      <point x="296" y="432" type="curve" smooth="yes"/>
    </contour>
  </outline>
</glyph>
<glyph name="r" format="1">
  <advance width="600"/>
  <unicode hex="0072"/>
  <outline>
    <contour>
      <point x="409" y="0" type="line"/>
      <point x="409" y="107" type="line"/>
      <point x="304" y="107" type="line"/>
      <point x="304" y="257" type="line"/>
      <point x="331" y="344"/>
      <point x="385" y="407"/>
      <point x="454" y="407" type="curve" smooth="yes"/>
      <point x="478" y="407"/>
      <point x="496" y="404"/>
      <point x="515" y="399" type="curve"/>
      <point x="564" y="531" type="line"/>
      <point x="539" y="541"/>
      <point x="512" y="547"/>
      <point x="476" y="547" type="curve" smooth="yes"/>
      <point x="391" y="547"/>
      <point x="333" y="503"/>
      <point x="295" y="412" type="curve"/>
      <point x="266" y="531" type="line"/>
      <point x="74" y="531" type="line"/>
      <point x="74" y="425" type="line"/>
      <point x="144" y="425" type="line"/>
      <point x="144" y="107" type="line"/>
      <point x="74" y="107" type="line"/>
      <point x="74" y="0" type="line"/>
    </contour>
    <contour>
      <point x="534" y="308" type="line"/>
      <point x="564" y="531" type="line"/>
      <point x="458" y="531" type="line"/>
      <point x="434" y="464" type="line"/>
      <point x="434" y="308" type="line"/>
    </contour>
    <contour>
      <point x="325" y="531" type="move" name="top"/>
    </contour>
    <contour>
      <point x="224" y="0" type="move" name="bottom"/>
    </contour>
  </outline>
</glyph>
<glyph name="s" format="1">
  <advance width="600"/>
  <unicode hex="0073"/>
  <outline>
    <contour>
      <point x="221" y="97"/>
      <point x="168" y="121"/>
      <point x="127" y="153" type="curve"/>
      <point x="47" y="63" type="line"/>
      <point x="102" y="15"/>
      <point x="181" y="-17"/>
      <point x="284" y="-17" type="curve" smooth="yes"/>
      <point x="420" y="-17"/>
      <point x="536" y="42"/>
      <point x="536" y="159" type="curve" smooth="yes"/>
      <point x="536" y="263"/>
      <point x="469" y="298"/>
      <point x="366" y="327" type="curve" smooth="yes"/>
      <point x="262" y="357"/>
      <point x="241" y="368"/>
      <point x="241" y="395" type="curve" smooth="yes"/>
      <point x="241" y="422"/>
      <point x="265" y="435"/>
      <point x="316" y="435" type="curve" smooth="yes"/>
      <point x="367" y="435"/>
      <point x="419" y="417"/>
      <point x="463" y="390" type="curve"/>
      <point x="527" y="484" type="line"/>
      <point x="475" y="522"/>
      <point x="406" y="549"/>
      <point x="311" y="549" type="curve" smooth="yes"/>
      <point x="161" y="549"/>
      <point x="80" y="479"/>
      <point x="80" y="384" type="curve" smooth="yes"/>
      <point x="80" y="290"/>
      <point x="147" y="247"/>
      <point x="244" y="221" type="curve" smooth="yes"/>
      <point x="350" y="192"/>
      <point x="370" y="180"/>
      <point x="370" y="146" type="curve" smooth="yes"/>
      <point x="370" y="113"/>
      <point x="335" y="97"/>
      <point x="283" y="97" type="curve" smooth="yes"/>
    </contour>
    <contour>
      <point x="313" y="531" type="move" name="top"/>
    </contour>
    <contour>
      <point x="301" y="0" type="move" name="bottom"/>
    </contour>
  </outline>
</glyph>
<glyph name="v" format="1">
  <advance width="600"/>
  <unicode hex="0076"/>
  <outline>
    <contour>
      <point x="410" y="531" type="line"/>
      <point x="303" y="122" type="line"/>
      <point x="201" y="531" type="line"/>
      <point x="28" y="531" type="line"/>
      <point x="207" y="0" type="line"/>
      <point x="395" y="0" type="line"/>
      <point x="572" y="531" type="line"/>
    </contour>
    <contour>
      <point x="300" y="531" type="move" name="top"/>
    </contour>
    <contour>
      <point x="300" y="0" type="move" name="bottom"/>
    </contour>
  </outline>
</glyph>
<glyph name="w" format="1">
  <advance width="600"/>
  <unicode hex="0077"/>
  <outline>
    <contour>
      <point x="597" y="531" type="line"/>
      <point x="456" y="531" type="line"/>
      <point x="421" y="100" type="line"/>
      <point x="372" y="464" type="line"/>
      <point x="238" y="464" type="line"/>
      <point x="183" y="100" type="line"/>
      <point x="149" y="531" type="line"/>
      <point x="3" y="531" type="line"/>
      <point x="81" y="0" type="line"/>
      <point x="254" y="0" type="line"/>
      <point x="301" y="356" type="line"/>
      <point x="346" y="0" type="line"/>
      <point x="522" y="0" type="line"/>
    </contour>
    <contour>
      <point x="300" y="531" type="move" name="top"/>
    </contour>
    <contour>
      <point x="300" y="0" type="move" name="bottom"/>
    </contour>
  </outline>
</glyph>
<glyph name="x" format="1">
  <advance width="600"/>
  <unicode hex="0078"/>
  <outline>
    <contour>
      <point x="294" y="198" type="line"/>
      <point x="398" y="0" type="line"/>
      <point x="579" y="0" type="line"/>
      <point x="396" y="285" type="line"/>
      <point x="552" y="531" type="line"/>
      <point x="382" y="531" type="line"/>
      <point x="301" y="362" type="line"/>
      <point x="217" y="531" type="line"/>
      <point x="38" y="531" type="line"/>
      <point x="203" y="279" type="line"/>
      <point x="21" y="0" type="line"/>
      <point x="194" y="0" type="line"/>
    </contour>
    <contour>
      <point x="300" y="531" type="move" name="top"/>
    </contour>
    <contour>
      <point x="300" y="0" type="move" name="bottom"/>
    </contour>
    <contour>
      <point x="519" y="0" type="move" name="bottomright"/>
    </contour>
  </outline>
</glyph>
<glyph name="y" format="1">
  <advance width="600"/>
  <unicode hex="0079"/>
  <outline>
    <contour>
      <point x="409" y="531" type="line"/>
      <point x="298" y="102" type="line"/>
      <point x="196" y="531" type="line"/>
      <point x="27" y="531" type="line"/>
      <point x="195" y="0" type="line"/>
      <point x="250" y="0" type="line"/>
      <point x="221" y="-68"/>
      <point x="183" y="-97"/>
      <point x="79" y="-110" type="curve"/>
      <point x="97" y="-223" type="line"/>
      <point x="259" y="-214"/>
      <point x="349" y="-142"/>
      <point x="396" y="0" type="curve" smooth="yes"/>
      <point x="573" y="531" type="line"/>
    </contour>
    <contour>
      <point x="300" y="-222" type="move" name="bottom "/>
    </contour>
    <contour>
      <point x="300" y="531" type="move" name="top"/>
    </contour>
  </outline>
</glyph>
<glyph name="z" format="1">
  <advance width="600"/>
  <unicode hex="007A"/>
  <outline>
    <contour>
      <point x="520" y="419" type="line"/>
      <point x="520" y="531" type="line"/>
      <point x="93" y="531" type="line"/>
      <point x="93" y="411" type="line"/>
      <point x="334" y="411" type="line"/>
      <point x="71" y="113" type="line"/>
      <point x="71" y="0" type="line"/>
      <point x="510" y="0" type="line"/>
      <point x="525" y="121" type="line"/>
      <point x="260" y="121" type="line"/>
    </contour>
    <contour>
      <point x="307" y="531" type="move" name="top"/>
    </contour>
  </outline>
</glyph>
<glyph name="bar" format="1">
  <advance width="600"/>
  <unicode hex="007C"/>
  <outline>
    <contour>
      <point x="225" y="810" type="line"/>
      <point x="225" y="-105" type="line"/>
      <point x="374" y="-105" type="line"/>
      <point x="374" y="810" type="line"/>
    </contour>
  </outline>
</glyph>
<glyph name="braceright" format="1">
  <advance width="600"/>
  <unicode hex="007D"/>
  <outline>
    <contour>
      <point x="133" y="729" type="line"/>
      <point x="193" y="729"/>
      <point x="230" y="716"/>
      <point x="225" y="666" type="curve" smooth="yes"/>
      <point x="210" y="520" type="line" smooth="yes"/>
      <point x="198" y="406"/>
      <point x="259" y="366"/>
      <point x="367" y="350" type="curve"/>
      <point x="265" y="335"/>
      <point x="198" y="293"/>
      <point x="210" y="180" type="curve" smooth="yes"/>
      <point x="225" y="34" type="line" smooth="yes"/>
      <point x="230" y="-16"/>
      <point x="194" y="-29"/>
      <point x="133" y="-29" type="curve"/>
      <point x="133" y="-140" type="line"/>
      <point x="319" y="-140"/>
      <point x="388" y="-91"/>
      <point x="373" y="46" type="curve" smooth="yes"/>
      <point x="358" y="187" type="line" smooth="yes"/>
      <point x="350" y="263"/>
      <point x="412" y="285"/>
      <point x="495" y="285" type="curve"/>
      <point x="495" y="415" type="line"/>
      <point x="411" y="415"/>
      <point x="350" y="437"/>
      <point x="358" y="513" type="curve" smooth="yes"/>
      <point x="373" y="655" type="line" smooth="yes"/>
      <point x="387" y="790"/>
      <point x="319" y="840"/>
      <point x="133" y="840" type="curve"/>
    </contour>
  </outline>
</glyph>
<glyph name="exclamdown" format="1">
  <advance width="600"/>
  <unicode hex="00A1"/>
  <outline>
    <contour>
      <point x="236" y="239" type="line"/>
      <point x="215" y="-205" type="line"/>
      <point x="386" y="-205" type="line"/>
      <point x="364" y="239" type="line"/>
    </contour>
    <contour>
      <point x="250" y="512"/>
      <point x="209" y="470"/>
      <point x="209" y="420" type="curve" smooth="yes"/>
      <point x="209" y="371"/>
      <point x="250" y="330"/>
      <point x="300" y="330" type="curve" smooth="yes"/>
      <point x="351" y="330"/>
      <point x="391" y="371"/>
      <point x="391" y="420" type="curve" smooth="yes"/>
      <point x="391" y="470"/>
      <point x="351" y="512"/>
      <point x="300" y="512" type="curve" smooth="yes"/>
    </contour>
  </outline>
</glyph>
<glyph name="cent" format="1">
  <advance width="600"/>
  <unicode hex="00A2"/>
  <outline>
    <contour>
      <point x="279" y="692" type="line"/>
      <point x="279" y="541" type="line"/>
      <point x="152" y="515"/>
      <point x="78" y="406"/>
      <point x="78" y="262" type="curve" smooth="yes"/>
      <point x="78" y="119"/>
      <point x="150" y="16"/>
      <point x="278" y="-9" type="curve"/>
      <point x="278" y="-161" type="line"/>
      <point x="393" y="-161" type="line"/>
      <point x="393" y="-12" type="line"/>
      <point x="441" y="-4"/>
      <point x="483" y="15"/>
      <point x="522" y="46" type="curve"/>
      <point x="450" y="148" type="line"/>
      <point x="412" y="120"/>
      <point x="386" y="109"/>
      <point x="351" y="109" type="curve" smooth="yes"/>
      <point x="287" y="109"/>
      <point x="245" y="144"/>
      <point x="245" y="262" type="curve" smooth="yes"/>
      <point x="245" y="381"/>
      <point x="284" y="426"/>
      <point x="352" y="426" type="curve" smooth="yes"/>
      <point x="386" y="426"/>
      <point x="417" y="416"/>
      <point x="453" y="387" type="curve"/>
      <point x="522" y="483" type="line"/>
      <point x="484" y="515"/>
      <point x="441" y="535"/>
      <point x="393" y="543" type="curve"/>
      <point x="393" y="692" type="line"/>
    </contour>
    <contour>
      <point x="334" y="0" type="move" name="bottomAttach"/>
    </contour>
  </outline>
</glyph>
<glyph name="sterling" format="1">
  <advance width="600"/>
  <unicode hex="00A3"/>
  <outline>
    <contour>
      <point x="204" y="711"/>
      <point x="124" y="622"/>
      <point x="124" y="502" type="curve" smooth="yes"/>
      <point x="124" y="402" type="line"/>
      <point x="51" y="402" type="line"/>
      <point x="51" y="319" type="line"/>
      <point x="124" y="319" type="line"/>
      <point x="124" y="249" type="line" smooth="yes"/>
      <point x="124" y="174"/>
      <point x="117" y="139"/>
      <point x="41" y="115" type="curve"/>
      <point x="41" y="0" type="line"/>
      <point x="524" y="0" type="line"/>
      <point x="543" y="121" type="line"/>
      <point x="218" y="121" type="line"/>
      <point x="270" y="150"/>
      <point x="282" y="193"/>
      <point x="282" y="244" type="curve" smooth="yes"/>
      <point x="282" y="319" type="line"/>
      <point x="464" y="319" type="line"/>
      <point x="464" y="402" type="line"/>
      <point x="282" y="402" type="line"/>
      <point x="282" y="498" type="line" smooth="yes"/>
      <point x="282" y="563"/>
      <point x="313" y="591"/>
      <point x="366" y="591" type="curve" smooth="yes"/>
      <point x="406" y="591"/>
      <point x="434" y="577"/>
      <point x="461" y="538" type="curve"/>
      <point x="559" y="609" type="line"/>
      <point x="510" y="678"/>
      <point x="444" y="711"/>
      <point x="353" y="711" type="curve" smooth="yes"/>
    </contour>
  </outline>
</glyph>
<glyph name="brokenbar" format="1">
  <advance width="600"/>
  <unicode hex="00A6"/>
  <outline>
    <contour>
      <point x="225" y="810" type="line"/>
      <point x="225" y="446" type="line"/>
      <point x="374" y="446" type="line"/>
      <point x="374" y="810" type="line"/>
    </contour>
    <contour>
      <point x="225" y="259" type="line"/>
      <point x="225" y="-105" type="line"/>
      <point x="374" y="-105" type="line"/>
      <point x="374" y="259" type="line"/>
    </contour>
  </outline>
</glyph>
<glyph name="section" format="1">
  <advance width="600"/>
  <unicode hex="00A7"/>
  <outline>
    <contour>
      <point x="186" y="711"/>
      <point x="101" y="642"/>
      <point x="101" y="548" type="curve" smooth="yes"/>
      <point x="101" y="502"/>
      <point x="121" y="464"/>
      <point x="159" y="434" type="curve"/>
      <point x="114" y="406"/>
      <point x="77" y="364"/>
      <point x="77" y="307" type="curve" smooth="yes"/>
      <point x="77" y="221"/>
      <point x="133" y="181"/>
      <point x="228" y="152" type="curve" smooth="yes"/>
      <point x="334" y="119"/>
      <point x="347" y="104"/>
      <point x="347" y="73" type="curve" smooth="yes"/>
      <point x="347" y="46"/>
      <point x="318" y="27"/>
      <point x="269" y="27" type="curve" smooth="yes"/>
      <point x="222" y="27"/>
      <point x="180" y="43"/>
      <point x="137" y="70" type="curve"/>
      <point x="83" y="-28" type="line"/>
      <point x="132" y="-62"/>
      <point x="197" y="-84"/>
      <point x="277" y="-84" type="curve" smooth="yes"/>
      <point x="413" y="-84"/>
      <point x="500" y="-17"/>
      <point x="500" y="78" type="curve" smooth="yes"/>
      <point x="500" y="127"/>
      <point x="480" y="164"/>
      <point x="444" y="192" type="curve"/>
      <point x="488" y="220"/>
      <point x="523" y="263"/>
      <point x="523" y="321" type="curve" smooth="yes"/>
      <point x="523" y="408"/>
      <point x="466" y="448"/>
      <point x="371" y="477" type="curve" smooth="yes"/>
      <point x="270" y="508"/>
      <point x="255" y="522"/>
      <point x="255" y="554" type="curve" smooth="yes"/>
      <point x="255" y="581"/>
      <point x="279" y="600"/>
      <point x="326" y="600" type="curve" smooth="yes"/>
      <point x="371" y="600"/>
      <point x="414" y="588"/>
      <point x="456" y="562" type="curve"/>
      <point x="512" y="655" type="line"/>
      <point x="460" y="689"/>
      <point x="392" y="711"/>
      <point x="319" y="711" type="curve" smooth="yes"/>
    </contour>
    <contour>
      <point x="358" y="354"/>
      <point x="383" y="340"/>
      <point x="383" y="300" type="curve" smooth="yes"/>
      <point x="383" y="281"/>
      <point x="374" y="257"/>
      <point x="357" y="235" type="curve"/>
      <point x="242" y="274"/>
      <point x="217" y="287"/>
      <point x="217" y="330" type="curve" smooth="yes"/>
      <point x="217" y="349"/>
      <point x="224" y="372"/>
      <point x="242" y="393" type="curve"/>
    </contour>
  </outline>
</glyph>
<glyph name="dieresis" format="1">
  <advance width="600"/>
  <unicode hex="00A8"/>
  <outline>
    <contour>
      <point x="231" y="637"/>
      <point x="267" y="672"/>
      <point x="267" y="718" type="curve" smooth="yes"/>
      <point x="267" y="763"/>
      <point x="231" y="798"/>
      <point x="184" y="798" type="curve" smooth="yes"/>
      <point x="138" y="798"/>
      <point x="101" y="763"/>
      <point x="101" y="718" type="curve" smooth="yes"/>
      <point x="101" y="672"/>
      <point x="138" y="637"/>
      <point x="184" y="637" type="curve" smooth="yes"/>
    </contour>
    <contour>
      <point x="463" y="637"/>
      <point x="499" y="672"/>
      <point x="499" y="718" type="curve" smooth="yes"/>
      <point x="499" y="763"/>
      <point x="463" y="798"/>
      <point x="416" y="798" type="curve" smooth="yes"/>
      <point x="371" y="798"/>
      <point x="333" y="763"/>
      <point x="333" y="718" type="curve" smooth="yes"/>
      <point x="333" y="672"/>
      <point x="371" y="637"/>
      <point x="416" y="637" type="curve" smooth="yes"/>
    </contour>
    <contour>
      <point x="300" y="718" type="move" name="top"/>
    </contour>
    <contour>
      <point x="300" y="531" type="move" name="_top"/>
    </contour>
  </outline>
</glyph>
<glyph name="copyright" format="1">
  <advance width="600"/>
  <unicode hex="00A9"/>
  <outline>
    <contour>
      <point x="116" y="759"/>
      <point x="8" y="611"/>
      <point x="8" y="424" type="curve" smooth="yes"/>
      <point x="8" y="238"/>
      <point x="110" y="91"/>
      <point x="301" y="91" type="curve" smooth="yes"/>
      <point x="486" y="91"/>
      <point x="592" y="238"/>
      <point x="592" y="424" type="curve" smooth="yes"/>
      <point x="592" y="611"/>
      <point x="486" y="759"/>
      <point x="301" y="759" type="curve" smooth="yes"/>
    </contour>
    <contour>
      <point x="211" y="622"/>
      <point x="141" y="548"/>
      <point x="141" y="425" type="curve" smooth="yes"/>
      <point x="141" y="298"/>
      <point x="206" y="227"/>
      <point x="311" y="227" type="curve" smooth="yes"/>
      <point x="361" y="227"/>
      <point x="400" y="248"/>
      <point x="431" y="277" type="curve"/>
      <point x="386" y="343" type="line"/>
      <point x="369" y="328"/>
      <point x="348" y="316"/>
      <point x="321" y="316" type="curve" smooth="yes"/>
      <point x="281" y="316"/>
      <point x="255" y="346"/>
      <point x="255" y="425" type="curve" smooth="yes"/>
      <point x="255" y="505"/>
      <point x="283" y="535"/>
      <point x="321" y="535" type="curve" smooth="yes"/>
      <point x="343" y="535"/>
      <point x="359" y="527"/>
      <point x="377" y="513" type="curve"/>
      <point x="426" y="574" type="line"/>
      <point x="394" y="607"/>
      <point x="359" y="622"/>
      <point x="310" y="622" type="curve" smooth="yes"/>
    </contour>
    <contour>
      <point x="446" y="689"/>
      <point x="509" y="570"/>
      <point x="509" y="424" type="curve" smooth="yes"/>
      <point x="509" y="279"/>
      <point x="445" y="161"/>
      <point x="301" y="161" type="curve" smooth="yes"/>
      <point x="156" y="161"/>
      <point x="92" y="279"/>
      <point x="92" y="424" type="curve" smooth="yes"/>
      <point x="92" y="570"/>
      <point x="156" y="689"/>
      <point x="301" y="689" type="curve" smooth="yes"/>
    </contour>
  </outline>
</glyph>
<glyph name="ordfeminine" format="1">
  <advance width="600"/>
  <unicode hex="00AA"/>
  <outline>
    <contour>
      <point x="245" y="759"/>
      <point x="182" y="749"/>
      <point x="121" y="728" type="curve"/>
      <point x="154" y="637" type="line"/>
      <point x="201" y="653"/>
      <point x="246" y="660"/>
      <point x="271" y="660" type="curve" smooth="yes"/>
      <point x="330" y="660"/>
      <point x="353" y="649"/>
      <point x="353" y="602" type="curve" smooth="yes"/>
      <point x="353" y="590" type="line"/>
      <point x="300" y="590" type="line" smooth="yes"/>
      <point x="161" y="590"/>
      <point x="83" y="534"/>
      <point x="83" y="443" type="curve" smooth="yes"/>
      <point x="83" y="361"/>
      <point x="144" y="304"/>
      <point x="236" y="304" type="curve" smooth="yes"/>
      <point x="289" y="304"/>
      <point x="337" y="325"/>
      <point x="370" y="364" type="curve"/>
      <point x="390" y="328"/>
      <point x="424" y="312"/>
      <point x="482" y="306" type="curve"/>
      <point x="513" y="395" type="line"/>
      <point x="492" y="402"/>
      <point x="483" y="414"/>
      <point x="483" y="443" type="curve" smooth="yes"/>
      <point x="483" y="606" type="line" smooth="yes"/>
      <point x="483" y="705"/>
      <point x="430" y="759"/>
      <point x="291" y="759" type="curve" smooth="yes"/>
    </contour>
    <contour>
      <point x="100" y="109" type="line"/>
      <point x="100" y="0" type="line"/>
      <point x="514" y="0" type="line"/>
      <point x="514" y="109" type="line"/>
    </contour>
    <contour>
      <point x="353" y="445" type="line"/>
      <point x="334" y="416"/>
      <point x="305" y="398"/>
      <point x="276" y="398" type="curve" smooth="yes"/>
      <point x="244" y="398"/>
      <point x="227" y="415"/>
      <point x="227" y="448" type="curve" smooth="yes"/>
      <point x="227" y="488"/>
      <point x="253" y="507"/>
      <point x="322" y="507" type="curve" smooth="yes"/>
      <point x="353" y="507" type="line"/>
    </contour>
  </outline>
</glyph>
<glyph name="guillemotleft" format="1">
  <advance width="600"/>
  <unicode hex="00AB"/>
  <outline>
    <contour>
      <point x="198" y="287" type="line"/>
      <point x="313" y="499" type="line"/>
      <point x="221" y="557" type="line"/>
      <point x="51" y="337" type="line"/>
      <point x="51" y="236" type="line"/>
      <point x="221" y="16" type="line"/>
      <point x="313" y="74" type="line"/>
    </contour>
    <contour>
      <point x="434" y="287" type="line"/>
      <point x="549" y="499" type="line"/>
      <point x="457" y="557" type="line"/>
      <point x="286" y="337" type="line"/>
      <point x="286" y="236" type="line"/>
      <point x="457" y="16" type="line"/>
      <point x="549" y="74" type="line"/>
    </contour>
  </outline>
</glyph>
<glyph name="logicalnot" format="1">
  <advance width="600"/>
  <unicode hex="00AC"/>
  <outline>
    <contour>
      <point x="82" y="380" type="line"/>
      <point x="82" y="257" type="line"/>
      <point x="386" y="257" type="line"/>
      <point x="386" y="103" type="line"/>
      <point x="518" y="103" type="line"/>
      <point x="518" y="380" type="line"/>
    </contour>
  </outline>
</glyph>
<glyph name="uni00AD" format="1">
  <advance width="600"/>
  <unicode hex="00AD"/>
  <outline>
    <contour>
      <point x="465" y="251" type="line"/>
      <point x="465" y="375" type="line"/>
      <point x="135" y="375" type="line"/>
      <point x="135" y="251" type="line"/>
    </contour>
  </outline>
</glyph>
<glyph name="registered" format="1">
  <advance width="600"/>
  <unicode hex="00AE"/>
  <outline>
    <contour>
      <point x="143" y="759"/>
      <point x="24" y="640"/>
      <point x="24" y="484" type="curve" smooth="yes"/>
      <point x="24" y="329"/>
      <point x="143" y="211"/>
      <point x="301" y="211" type="curve" smooth="yes"/>
      <point x="457" y="211"/>
      <point x="575" y="329"/>
      <point x="575" y="484" type="curve" smooth="yes"/>
      <point x="575" y="640"/>
      <point x="457" y="759"/>
      <point x="301" y="759" type="curve" smooth="yes"/>
    </contour>
    <contour>
      <point x="415" y="692"/>
      <point x="497" y="602"/>
      <point x="497" y="484" type="curve" smooth="yes"/>
      <point x="497" y="367"/>
      <point x="415" y="279"/>
      <point x="301" y="279" type="curve" smooth="yes"/>
      <point x="186" y="279"/>
      <point x="102" y="367"/>
      <point x="102" y="484" type="curve" smooth="yes"/>
      <point x="102" y="602"/>
      <point x="186" y="692"/>
      <point x="301" y="692" type="curve" smooth="yes"/>
    </contour>
    <contour>
      <point x="193" y="635" type="line"/>
      <point x="193" y="351" type="line"/>
      <point x="265" y="351" type="line"/>
      <point x="265" y="454" type="line"/>
      <point x="288" y="454" type="line"/>
      <point x="350" y="351" type="line"/>
      <point x="433" y="351" type="line"/>
      <point x="356" y="469" type="line"/>
      <point x="390" y="482"/>
      <point x="414" y="509"/>
      <point x="414" y="547" type="curve" smooth="yes"/>
      <point x="414" y="607"/>
      <point x="369" y="635"/>
      <point x="280" y="635" type="curve" smooth="yes"/>
    </contour>
    <contour>
      <point x="324" y="581"/>
      <point x="340" y="570"/>
      <point x="340" y="549" type="curve" smooth="yes"/>
      <point x="340" y="523"/>
      <point x="321" y="512"/>
      <point x="288" y="512" type="curve" smooth="yes"/>
      <point x="265" y="512" type="line"/>
      <point x="265" y="581" type="line"/>
      <point x="287" y="581" type="line" smooth="yes"/>
    </contour>
  </outline>
</glyph>
<glyph name="macron" format="1">
  <advance width="600"/>
  <unicode hex="00AF"/>
  <outline>
    <contour>
      <point x="453" y="768" type="line"/>
      <point x="147" y="768" type="line"/>
      <point x="147" y="657" type="line"/>
      <point x="453" y="657" type="line"/>
    </contour>
    <contour>
      <point x="300" y="531" type="move" name="_top"/>
    </contour>
  </outline>
</glyph>
<glyph name="degree" format="1">
  <advance width="600"/>
  <unicode hex="00B0"/>
  <outline>
    <contour>
      <point x="162" y="759"/>
      <point x="71" y="697"/>
      <point x="71" y="590" type="curve" smooth="yes"/>
      <point x="71" y="483"/>
      <point x="162" y="419"/>
      <point x="250" y="419" type="curve" smooth="yes"/>
      <point x="338" y="419"/>
      <point x="429" y="483"/>
      <point x="429" y="590" type="curve" smooth="yes"/>
      <point x="429" y="697"/>
      <point x="338" y="759"/>
      <point x="250" y="759" type="curve" smooth="yes"/>
    </contour>
    <contour>
      <point x="292" y="667"/>
      <point x="319" y="637"/>
      <point x="319" y="590" type="curve" smooth="yes"/>
      <point x="319" y="543"/>
      <point x="292" y="512"/>
      <point x="250" y="512" type="curve" smooth="yes"/>
      <point x="208" y="512"/>
      <point x="181" y="543"/>
      <point x="181" y="590" type="curve" smooth="yes"/>
      <point x="181" y="637"/>
      <point x="208" y="667"/>
      <point x="250" y="667" type="curve" smooth="yes"/>
    </contour>
  </outline>
</glyph>
<glyph name="plusminus" format="1">
  <advance width="600"/>
  <unicode hex="00B1"/>
  <outline>
    <contour>
      <point x="233" y="559" type="line"/>
      <point x="233" y="402" type="line"/>
      <point x="82" y="402" type="line"/>
      <point x="82" y="281" type="line"/>
      <point x="233" y="281" type="line"/>
      <point x="233" y="175" type="line"/>
      <point x="367" y="175" type="line"/>
      <point x="367" y="281" type="line"/>
      <point x="518" y="281" type="line"/>
      <point x="518" y="402" type="line"/>
      <point x="367" y="402" type="line"/>
      <point x="367" y="559" type="line"/>
    </contour>
    <contour>
      <point x="82" y="121" type="line"/>
      <point x="82" y="0" type="line"/>
      <point x="518" y="0" type="line"/>
      <point x="518" y="121" type="line"/>
    </contour>
  </outline>
</glyph>
<glyph name="acute" format="1">
  <advance width="600"/>
  <unicode hex="00B4"/>
  <outline>
    <contour>
      <point x="157" y="703" type="line"/>
      <point x="201" y="622" type="line"/>
      <point x="438" y="716" type="line"/>
      <point x="376" y="836" type="line"/>
    </contour>
    <contour>
      <point x="300" y="531" type="move" name="_top"/>
    </contour>
  </outline>
</glyph>
<glyph name="cedilla" format="1">
  <advance width="600"/>
  <unicode hex="00B8"/>
  <outline>
    <contour>
      <point x="319" y="-168"/>
      <point x="299" y="-176"/>
      <point x="267" y="-176" type="curve" smooth="yes"/>
      <point x="245" y="-176"/>
      <point x="223" y="-169"/>
      <point x="203" y="-159" type="curve"/>
      <point x="166" y="-232" type="line"/>
      <point x="193" y="-248"/>
      <point x="236" y="-263"/>
      <point x="284" y="-263" type="curve" smooth="yes"/>
      <point x="375" y="-263"/>
      <point x="434" y="-215"/>
      <point x="434" y="-147" type="curve" smooth="yes"/>
      <point x="434" y="-93"/>
      <point x="400" y="-56"/>
      <point x="330" y="-48" type="curve"/>
      <point x="330" y="16" type="line"/>
      <point x="241" y="16" type="line"/>
      <point x="227" y="-112" type="line"/>
      <point x="288" y="-112"/>
      <point x="319" y="-119"/>
      <point x="319" y="-145" type="curve" smooth="yes"/>
    </contour>
    <contour>
      <point x="300" y="0" type="move" name="_bottom"/>
    </contour>
  </outline>
</glyph>
<glyph name="ordmasculine" format="1">
  <advance width="600"/>
  <unicode hex="00BA"/>
  <outline>
    <contour>
      <point x="162" y="759"/>
      <point x="78" y="661"/>
      <point x="78" y="532" type="curve" smooth="yes"/>
      <point x="78" y="396"/>
      <point x="161" y="304"/>
      <point x="300" y="304" type="curve" smooth="yes"/>
      <point x="438" y="304"/>
      <point x="522" y="397"/>
      <point x="522" y="532" type="curve" smooth="yes"/>
      <point x="522" y="662"/>
      <point x="438" y="759"/>
      <point x="300" y="759" type="curve" smooth="yes"/>
    </contour>
    <contour>
      <point x="93" y="109" type="line"/>
      <point x="93" y="0" type="line"/>
      <point x="507" y="0" type="line"/>
      <point x="507" y="109" type="line"/>
    </contour>
    <contour>
      <point x="351" y="660"/>
      <point x="382" y="624"/>
      <point x="382" y="532" type="curve" smooth="yes"/>
      <point x="382" y="439"/>
      <point x="351" y="404"/>
      <point x="300" y="404" type="curve" smooth="yes"/>
      <point x="249" y="404"/>
      <point x="218" y="439"/>
      <point x="218" y="532" type="curve" smooth="yes"/>
      <point x="218" y="624"/>
      <point x="249" y="660"/>
      <point x="300" y="660" type="curve" smooth="yes"/>
    </contour>
  </outline>
</glyph>
<glyph name="guillemotright" format="1">
  <advance width="600"/>
  <unicode hex="00BB"/>
  <outline>
    <contour>
      <point x="286" y="74" type="line"/>
      <point x="378" y="16" type="line"/>
      <point x="549" y="236" type="line"/>
      <point x="549" y="337" type="line"/>
      <point x="378" y="557" type="line"/>
      <point x="286" y="499" type="line"/>
      <point x="401" y="287" type="line"/>
    </contour>
    <contour>
      <point x="51" y="74" type="line"/>
      <point x="143" y="16" type="line"/>
      <point x="313" y="236" type="line"/>
      <point x="313" y="337" type="line"/>
      <point x="143" y="557" type="line"/>
      <point x="51" y="499" type="line"/>
      <point x="166" y="287" type="line"/>
    </contour>
  </outline>
</glyph>
<glyph name="questiondown" format="1">
  <advance width="600"/>
  <unicode hex="00BF"/>
  <outline>
    <contour>
      <point x="246" y="239" type="line"/>
      <point x="246" y="219" type="line" smooth="yes"/>
      <point x="246" y="96"/>
      <point x="60" y="108"/>
      <point x="60" y="-54" type="curve" smooth="yes"/>
      <point x="60" y="-143"/>
      <point x="138" y="-222"/>
      <point x="290" y="-222" type="curve" smooth="yes"/>
      <point x="396" y="-222"/>
      <point x="475" y="-181"/>
      <point x="532" y="-114" type="curve"/>
      <point x="430" y="-36" type="line"/>
      <point x="394" y="-76"/>
      <point x="351" y="-96"/>
      <point x="306" y="-96" type="curve" smooth="yes"/>
      <point x="259" y="-96"/>
      <point x="227" y="-76"/>
      <point x="227" y="-40" type="curve" smooth="yes"/>
      <point x="227" y="42"/>
      <point x="391" y="36"/>
      <point x="391" y="207" type="curve" smooth="yes"/>
      <point x="391" y="239" type="line"/>
    </contour>
    <contour>
      <point x="266" y="512"/>
      <point x="226" y="470"/>
      <point x="226" y="420" type="curve" smooth="yes"/>
      <point x="226" y="371"/>
      <point x="266" y="330"/>
      <point x="317" y="330" type="curve" smooth="yes"/>
      <point x="367" y="330"/>
      <point x="408" y="371"/>
      <point x="408" y="420" type="curve" smooth="yes"/>
      <point x="408" y="470"/>
      <point x="367" y="512"/>
      <point x="317" y="512" type="curve" smooth="yes"/>
    </contour>
  </outline>
</glyph>
<glyph name="Eth" format="1">
  <advance width="600"/>
  <unicode hex="00D0"/>
  <outline>
    <contour>
      <point x="64" y="403" type="line"/>
      <point x="9" y="403" type="line"/>
      <point x="9" y="303" type="line"/>
      <point x="230" y="303" type="line"/>
      <point x="349" y="303" type="line"/>
      <point x="349" y="403" type="line"/>
    </contour>
    <component base="D" xOffset="13"/>
  </outline>
</glyph>
<glyph name="multiply" format="1">
  <advance width="600"/>
  <unicode hex="00D7"/>
  <outline>
    <contour>
      <point x="300" y="393" type="line"/>
      <point x="185" y="510" type="line"/>
      <point x="97" y="422" type="line"/>
      <point x="214" y="307" type="line"/>
      <point x="97" y="192" type="line"/>
      <point x="185" y="104" type="line"/>
      <point x="300" y="221" type="line"/>
      <point x="415" y="104" type="line"/>
      <point x="503" y="192" type="line"/>
      <point x="386" y="307" type="line"/>
      <point x="503" y="422" type="line"/>
      <point x="415" y="510" type="line"/>
    </contour>
  </outline>
</glyph>
<glyph name="Oslash" format="1">
  <advance width="600"/>
  <unicode hex="00D8"/>
  <outline>
    <contour>
      <point x="118" y="711"/>
      <point x="22" y="567"/>
      <point x="22" y="347" type="curve" smooth="yes"/>
      <point x="22" y="122"/>
      <point x="128" y="-17"/>
      <point x="300" y="-17" type="curve" smooth="yes"/>
      <point x="482" y="-17"/>
      <point x="578" y="127"/>
      <point x="578" y="347" type="curve" smooth="yes"/>
      <point x="578" y="572"/>
      <point x="472" y="711"/>
      <point x="300" y="711" type="curve" smooth="yes"/>
    </contour>
    <contour>
      <point x="347" y="693" type="line"/>
      <point x="340" y="617" type="line"/>
      <point x="207" y="164" type="line"/>
      <point x="151" y="63" type="line"/>
      <point x="108" y="-76" type="line"/>
      <point x="220" y="-109" type="line"/>
      <point x="253" y="4" type="line"/>
      <point x="270" y="103" type="line"/>
      <point x="398" y="542" type="line"/>
      <point x="454" y="650" type="line"/>
      <point x="492" y="770" type="line"/>
      <point x="380" y="803" type="line"/>
    </contour>
    <contour>
      <point x="383" y="593"/>
      <point x="414" y="520"/>
      <point x="414" y="347" type="curve" smooth="yes"/>
      <point x="414" y="176"/>
      <point x="383" y="101"/>
      <point x="300" y="101" type="curve" smooth="yes"/>
      <point x="218" y="101"/>
      <point x="186" y="174"/>
      <point x="186" y="347" type="curve" smooth="yes"/>
      <point x="186" y="520"/>
      <point x="219" y="593"/>
      <point x="300" y="593" type="curve" smooth="yes"/>
    </contour>
    <contour>
      <point x="300" y="693" type="move" name="top"/>
    </contour>
    <contour>
      <point x="300" y="0" type="move" name="bottom"/>
    </contour>
  </outline>
</glyph>
<glyph name="germandbls" format="1">
  <advance width="600"/>
  <unicode hex="00DF"/>
  <outline>
    <contour>
      <point x="138" y="759"/>
      <point x="59" y="674"/>
      <point x="59" y="531" type="curve" smooth="yes"/>
      <point x="59" y="0" type="line"/>
      <point x="219" y="0" type="line"/>
      <point x="219" y="538" type="line" smooth="yes"/>
      <point x="219" y="611"/>
      <point x="238" y="647"/>
      <point x="287" y="647" type="curve" smooth="yes"/>
      <point x="319" y="647"/>
      <point x="339" y="629"/>
      <point x="339" y="596" type="curve" smooth="yes"/>
      <point x="339" y="524"/>
      <point x="265" y="494"/>
      <point x="265" y="404" type="curve" smooth="yes"/>
      <point x="265" y="273"/>
      <point x="413" y="276"/>
      <point x="413" y="167" type="curve" smooth="yes"/>
      <point x="413" y="128"/>
      <point x="394" y="106"/>
      <point x="356" y="106" type="curve" smooth="yes"/>
      <point x="338" y="106"/>
      <point x="320" y="111"/>
      <point x="300" y="121" type="curve"/>
      <point x="249" y="14" type="line"/>
      <point x="284" y="-5"/>
      <point x="325" y="-17"/>
      <point x="376" y="-17" type="curve" smooth="yes"/>
      <point x="492" y="-17"/>
      <point x="578" y="50"/>
      <point x="578" y="168" type="curve" smooth="yes"/>
      <point x="578" y="342"/>
      <point x="404" y="356"/>
      <point x="404" y="432" type="curve" smooth="yes"/>
      <point x="404" y="493"/>
      <point x="494" y="512"/>
      <point x="494" y="603" type="curve" smooth="yes"/>
      <point x="494" y="690"/>
      <point x="421" y="759"/>
      <point x="291" y="759" type="curve" smooth="yes"/>
    </contour>
  </outline>
</glyph>
<glyph name="divide" format="1">
  <advance width="600"/>
  <unicode hex="00F7"/>
  <outline>
    <contour>
      <point x="82" y="380" type="line"/>
      <point x="82" y="257" type="line"/>
      <point x="518" y="257" type="line"/>
      <point x="518" y="380" type="line"/>
    </contour>
    <contour>
      <point x="249" y="195"/>
      <point x="209" y="154"/>
      <point x="209" y="104" type="curve" smooth="yes"/>
      <point x="209" y="54"/>
      <point x="249" y="13"/>
      <point x="300" y="13" type="curve" smooth="yes"/>
      <point x="351" y="13"/>
      <point x="391" y="54"/>
      <point x="391" y="104" type="curve" smooth="yes"/>
      <point x="391" y="154"/>
      <point x="351" y="195"/>
      <point x="300" y="195" type="curve" smooth="yes"/>
    </contour>
    <contour>
      <point x="249" y="624"/>
      <point x="209" y="583"/>
      <point x="209" y="533" type="curve" smooth="yes"/>
      <point x="209" y="484"/>
      <point x="249" y="443"/>
      <point x="300" y="443" type="curve" smooth="yes"/>
      <point x="351" y="443"/>
      <point x="391" y="484"/>
      <point x="391" y="533" type="curve" smooth="yes"/>
      <point x="391" y="583"/>
      <point x="351" y="624"/>
      <point x="300" y="624" type="curve" smooth="yes"/>
    </contour>
  </outline>
</glyph>
<glyph name="oslash" format="1">
  <advance width="600"/>
  <unicode hex="00F8"/>
  <outline>
    <contour>
      <point x="137" y="549"/>
      <point x="41" y="435"/>
      <point x="41" y="266" type="curve" smooth="yes"/>
      <point x="41" y="87"/>
      <point x="137" y="-17"/>
      <point x="300" y="-17" type="curve" smooth="yes"/>
      <point x="463" y="-17"/>
      <point x="559" y="89"/>
      <point x="559" y="267" type="curve" smooth="yes"/>
      <point x="559" y="437"/>
      <point x="464" y="549"/>
      <point x="300" y="549" type="curve" smooth="yes"/>
    </contour>
    <contour>
      <point x="328" y="539" type="line"/>
      <point x="321" y="451" type="line"/>
      <point x="216" y="123" type="line"/>
      <point x="160" y="33" type="line"/>
      <point x="115" y="-103" type="line"/>
      <point x="232" y="-137" type="line"/>
      <point x="272" y="-7" type="line"/>
      <point x="281" y="79" type="line"/>
      <point x="384" y="401" type="line"/>
      <point x="442" y="499" type="line"/>
      <point x="485" y="629" type="line"/>
      <point x="369" y="663" type="line"/>
    </contour>
    <contour>
      <point x="377" y="434"/>
      <point x="397" y="394"/>
      <point x="397" y="267" type="curve" smooth="yes"/>
      <point x="397" y="146"/>
      <point x="367" y="97"/>
      <point x="300" y="97" type="curve" smooth="yes"/>
      <point x="223" y="97"/>
      <point x="203" y="136"/>
      <point x="203" y="266" type="curve" smooth="yes"/>
      <point x="203" y="384"/>
      <point x="233" y="434"/>
      <point x="300" y="434" type="curve" smooth="yes"/>
    </contour>
    <contour>
      <point x="300" y="531" type="move" name="top"/>
    </contour>
  </outline>
</glyph>
<glyph name="thorn" format="1">
  <advance width="600"/>
  <unicode hex="00FE"/>
  <outline>
    <contour>
      <point x="69" y="742" type="line"/>
      <point x="69" y="-222" type="line"/>
      <point x="229" y="-205" type="line"/>
      <point x="229" y="38" type="line"/>
      <point x="261" y="2"/>
      <point x="303" y="-17"/>
      <point x="355" y="-17" type="curve" smooth="yes"/>
      <point x="484" y="-17"/>
      <point x="559" y="103"/>
      <point x="559" y="267" type="curve" smooth="yes"/>
      <point x="559" y="440"/>
      <point x="503" y="549"/>
      <point x="365" y="549" type="curve" smooth="yes"/>
      <point x="309" y="549"/>
      <point x="261" y="523"/>
      <point x="229" y="478" type="curve"/>
      <point x="229" y="759" type="line"/>
    </contour>
    <contour>
      <point x="364" y="431"/>
      <point x="394" y="397"/>
      <point x="394" y="265" type="curve" smooth="yes"/>
      <point x="394" y="146"/>
      <point x="361" y="100"/>
      <point x="306" y="100" type="curve" smooth="yes"/>
      <point x="273" y="100"/>
      <point x="251" y="115"/>
      <point x="229" y="147" type="curve"/>
      <point x="229" y="370" type="line"/>
      <point x="252" y="408"/>
      <point x="279" y="431"/>
      <point x="315" y="431" type="curve" smooth="yes"/>
    </contour>
  </outline>
</glyph>
<glyph name="dcroat" format="1">
  <advance width="600"/>
  <unicode hex="0111"/>
  <outline>
    <contour>
      <point x="231" y="686" type="line"/>
      <point x="231" y="593" type="line"/>
      <point x="352" y="593" type="line"/>
      <point x="592" y="593" type="line"/>
      <point x="592" y="686" type="line"/>
      <point x="512" y="686" type="line"/>
    </contour>
    <component base="d" xOffset="-19"/>
  </outline>
</glyph>
<glyph name="Hbar" format="1">
  <advance width="600"/>
  <unicode hex="0126"/>
  <outline>
    <contour>
      <point x="378" y="693" type="line"/>
      <point x="378" y="425" type="line"/>
      <point x="222" y="425" type="line"/>
      <point x="222" y="693" type="line"/>
      <point x="56" y="693" type="line"/>
      <point x="56" y="0" type="line"/>
      <point x="222" y="0" type="line"/>
      <point x="222" y="296" type="line"/>
      <point x="378" y="296" type="line"/>
      <point x="378" y="0" type="line"/>
      <point x="544" y="0" type="line"/>
      <point x="544" y="693" type="line"/>
    </contour>
    <contour>
      <point x="544" y="592" type="line"/>
      <point x="56" y="592" type="line"/>
      <point x="2" y="592" type="line"/>
      <point x="2" y="500" type="line"/>
      <point x="598" y="500" type="line"/>
      <point x="598" y="592" type="line"/>
    </contour>
  </outline>
</glyph>
<glyph name="hbar" format="1">
  <advance width="600"/>
  <unicode hex="0127"/>
  <outline>
    <contour>
      <point x="69" y="686" type="line"/>
      <point x="8" y="686" type="line"/>
      <point x="8" y="593" type="line"/>
      <point x="229" y="593" type="line"/>
      <point x="369" y="593" type="line"/>
      <point x="369" y="686" type="line"/>
    </contour>
    <component base="h"/>
  </outline>
</glyph>
<glyph name="dotlessi" format="1">
  <advance width="600"/>
  <unicode hex="0131"/>
  <outline>
    <contour>
      <point x="90" y="531" type="line"/>
      <point x="90" y="422" type="line"/>
      <point x="235" y="422" type="line"/>
      <point x="235" y="109" type="line"/>
      <point x="85" y="109" type="line"/>
      <point x="85" y="0" type="line"/>
      <point x="530" y="0" type="line"/>
      <point x="530" y="109" type="line"/>
      <point x="395" y="109" type="line"/>
      <point x="395" y="531" type="line"/>
    </contour>
    <contour>
      <point x="405" y="0" type="move" name="ogonek"/>
    </contour>
    <contour>
      <point x="299" y="531" type="move" name="top"/>
    </contour>
  </outline>
</glyph>
<glyph name="IJ" format="1">
  <advance width="600"/>
  <unicode hex="0132"/>
  <outline>
    <contour>
      <point x="200" y="-184" type="line"/>
      <point x="463" y="-141"/>
      <point x="557" y="-19"/>
      <point x="557" y="170" type="curve" smooth="yes"/>
      <point x="557" y="693" type="line"/>
      <point x="8" y="693" type="line"/>
      <point x="8" y="591" type="line"/>
      <point x="80" y="591" type="line"/>
      <point x="80" y="103" type="line"/>
      <point x="8" y="103" type="line"/>
      <point x="8" y="0" type="line"/>
      <point x="285" y="0" type="line"/>
      <point x="285" y="103" type="line"/>
      <point x="233" y="103" type="line"/>
      <point x="233" y="591" type="line"/>
      <point x="397" y="591" type="line"/>
      <point x="397" y="163" type="line" smooth="yes"/>
      <point x="397" y="29"/>
      <point x="364" y="-40"/>
      <point x="181" y="-72" type="curve"/>
    </contour>
  </outline>
</glyph>
<glyph name="Lslash" format="1">
  <advance width="600"/>
  <unicode hex="0141"/>
  <outline>
    <contour>
      <point x="451" y="442" type="line"/>
      <point x="396" y="528" type="line"/>
      <point x="107" y="349" type="line"/>
      <point x="8" y="288" type="line"/>
      <point x="62" y="200" type="line"/>
    </contour>
    <component base="L" xOffset="15"/>
  </outline>
</glyph>
<glyph name="lslash" format="1">
  <advance width="600"/>
  <unicode hex="0142"/>
  <outline>
    <contour>
      <point x="88" y="319" type="line"/>
      <point x="144" y="230" type="line"/>
      <point x="348" y="354" type="line"/>
      <point x="469" y="428" type="line"/>
      <point x="412" y="518" type="line"/>
      <point x="188" y="380" type="line"/>
    </contour>
    <component base="l"/>
  </outline>
</glyph>
<glyph name="napostrophe" format="1">
  <advance width="600"/>
  <unicode hex="0149"/>
  <outline>
    <contour>
      <point x="15" y="764"/>
      <point x="-18" y="729"/>
      <point x="-18" y="689" type="curve" smooth="yes"/>
      <point x="-18" y="660"/>
      <point x="-4" y="640"/>
      <point x="14" y="626" type="curve"/>
      <point x="-7" y="535" type="line"/>
      <point x="72" y="535" type="line"/>
      <point x="113" y="615" type="line" smooth="yes"/>
      <point x="128" y="644"/>
      <point x="136" y="663"/>
      <point x="136" y="689" type="curve" smooth="yes"/>
      <point x="136" y="732"/>
      <point x="103" y="764"/>
      <point x="59" y="764" type="curve" smooth="yes"/>
    </contour>
    <component base="n" xOffset="20"/>
  </outline>
</glyph>
<glyph name="eng" format="1">
  <advance width="600"/>
  <unicode hex="014B"/>
  <outline>
    <contour>
      <point x="531" y="390" type="line" smooth="yes"/>
      <point x="531" y="491"/>
      <point x="479" y="549"/>
      <point x="385" y="549" type="curve" smooth="yes"/>
      <point x="322" y="549"/>
      <point x="267" y="523"/>
      <point x="220" y="470" type="curve"/>
      <point x="209" y="531" type="line"/>
      <point x="69" y="531" type="line"/>
      <point x="69" y="0" type="line"/>
      <point x="229" y="0" type="line"/>
      <point x="229" y="367" type="line"/>
      <point x="259" y="407"/>
      <point x="288" y="431"/>
      <point x="321" y="431" type="curve" smooth="yes"/>
      <point x="360" y="431"/>
      <point x="371" y="409"/>
      <point x="371" y="345" type="curve" smooth="yes"/>
      <point x="371" y="51" type="line" smooth="yes"/>
      <point x="371" y="-45"/>
      <point x="331" y="-75"/>
      <point x="262" y="-105" type="curve"/>
      <point x="318" y="-222" type="line"/>
      <point x="446" y="-170"/>
      <point x="531" y="-114"/>
      <point x="531" y="61" type="curve" smooth="yes"/>
    </contour>
  </outline>
</glyph>
<glyph name="oe" format="1">
  <advance width="600"/>
  <unicode hex="0153"/>
  <outline>
    <contour>
      <point x="372" y="549"/>
      <point x="331" y="515"/>
      <point x="305" y="466" type="curve"/>
      <point x="281" y="518"/>
      <point x="244" y="549"/>
      <point x="176" y="549" type="curve" smooth="yes"/>
      <point x="48" y="549"/>
      <point x="-8" y="435"/>
      <point x="-8" y="266" type="curve" smooth="yes"/>
      <point x="-8" y="87"/>
      <point x="49" y="-17"/>
      <point x="176" y="-17" type="curve" smooth="yes"/>
      <point x="241" y="-17"/>
      <point x="278" y="13"/>
      <point x="302" y="62" type="curve"/>
      <point x="334" y="12"/>
      <point x="384" y="-17"/>
      <point x="454" y="-17" type="curve" smooth="yes"/>
      <point x="519" y="-17"/>
      <point x="567" y="7"/>
      <point x="606" y="40" type="curve"/>
      <point x="546" y="120" type="line"/>
      <point x="517" y="99"/>
      <point x="493" y="88"/>
      <point x="462" y="88" type="curve" smooth="yes"/>
      <point x="407" y="88"/>
      <point x="377" y="130"/>
      <point x="369" y="226" type="curve"/>
      <point x="603" y="226" type="line"/>
      <point x="605" y="242"/>
      <point x="606" y="258"/>
      <point x="606" y="276" type="curve" smooth="yes"/>
      <point x="606" y="452"/>
      <point x="561" y="549"/>
      <point x="438" y="549" type="curve" smooth="yes"/>
    </contour>
    <contour>
      <point x="224" y="431"/>
      <point x="240" y="387"/>
      <point x="240" y="267" type="curve" smooth="yes"/>
      <point x="240" y="139"/>
      <point x="224" y="100"/>
      <point x="182" y="100" type="curve" smooth="yes"/>
      <point x="139" y="100"/>
      <point x="124" y="141"/>
      <point x="124" y="266" type="curve" smooth="yes"/>
      <point x="124" y="387"/>
      <point x="139" y="431"/>
      <point x="182" y="431" type="curve" smooth="yes"/>
    </contour>
    <contour>
      <point x="475" y="449"/>
      <point x="485" y="406"/>
      <point x="486" y="312" type="curve"/>
      <point x="368" y="312" type="line"/>
      <point x="373" y="416"/>
      <point x="393" y="449"/>
      <point x="432" y="449" type="curve" smooth="yes"/>
    </contour>
  </outline>
</glyph>
<glyph name="Tbar" format="1">
  <advance width="600"/>
  <unicode hex="0166"/>
  <outline>
    <contour>
      <point x="499" y="313" type="line"/>
      <point x="499" y="406" type="line"/>
      <point x="216" y="406" type="line"/>
      <point x="100" y="406" type="line"/>
      <point x="100" y="313" type="line"/>
      <point x="382" y="313" type="line"/>
    </contour>
    <component base="T"/>
  </outline>
</glyph>
<glyph name="tbar" format="1">
  <advance width="600"/>
  <unicode hex="0167"/>
  <outline>
    <contour>
      <point x="168" y="361" type="line"/>
      <point x="69" y="361" type="line"/>
      <point x="69" y="261" type="line"/>
      <point x="328" y="261" type="line"/>
      <point x="482" y="261" type="line"/>
      <point x="482" y="361" type="line"/>
    </contour>
    <component base="t"/>
  </outline>
</glyph>
<glyph name="florin" format="1">
  <advance width="600"/>
  <unicode hex="0192"/>
  <outline>
    <contour>
      <point x="241" y="759"/>
      <point x="174" y="679"/>
      <point x="174" y="577" type="curve" smooth="yes"/>
      <point x="174" y="531" type="line"/>
      <point x="92" y="531" type="line"/>
      <point x="92" y="420" type="line"/>
      <point x="174" y="420" type="line"/>
      <point x="174" y="51" type="line" smooth="yes"/>
      <point x="174" y="-45"/>
      <point x="133" y="-74"/>
      <point x="65" y="-106" type="curve"/>
      <point x="121" y="-222" type="line"/>
      <point x="245" y="-177"/>
      <point x="333" y="-113"/>
      <point x="333" y="64" type="curve" smooth="yes"/>
      <point x="333" y="420" type="line"/>
      <point x="441" y="420" type="line"/>
      <point x="459" y="531" type="line"/>
      <point x="333" y="531" type="line"/>
      <point x="333" y="571" type="line" smooth="yes"/>
      <point x="333" y="622"/>
      <point x="349" y="641"/>
      <point x="403" y="641" type="curve" smooth="yes"/>
      <point x="429" y="641"/>
      <point x="456" y="636"/>
      <point x="490" y="621" type="curve"/>
      <point x="534" y="725" type="line"/>
      <point x="491" y="745"/>
      <point x="439" y="759"/>
      <point x="378" y="759" type="curve" smooth="yes"/>
    </contour>
  </outline>
</glyph>
<glyph name="uni02B9" format="1">
  <advance width="600"/>
  <unicode hex="02B9"/>
  <outline>
    <contour>
      <point x="294" y="414" type="line"/>
      <point x="413" y="693" type="line"/>
      <point x="269" y="693" type="line"/>
      <point x="188" y="414" type="line"/>
    </contour>
  </outline>
</glyph>
<glyph name="uni02BC" format="1">
  <advance width="600"/>
  <unicode hex="02BC"/>
  <outline>
    <contour>
      <point x="245" y="758"/>
      <point x="211" y="723"/>
      <point x="211" y="680" type="curve" smooth="yes"/>
      <point x="211" y="651"/>
      <point x="225" y="630"/>
      <point x="244" y="615" type="curve"/>
      <point x="226" y="537" type="line"/>
      <point x="306" y="537" type="line"/>
      <point x="342" y="604" type="line" smooth="yes"/>
      <point x="358" y="634"/>
      <point x="370" y="660"/>
      <point x="370" y="684" type="curve" smooth="yes"/>
      <point x="370" y="725"/>
      <point x="336" y="758"/>
      <point x="291" y="758" type="curve" smooth="yes"/>
    </contour>
  </outline>
</glyph>
<glyph name="circumflex" format="1">
  <advance width="600"/>
  <unicode hex="02C6"/>
  <outline>
    <contour>
      <point x="300" y="705" type="line"/>
      <point x="433" y="611" type="line"/>
      <point x="490" y="676" type="line"/>
      <point x="349" y="816" type="line"/>
      <point x="251" y="816" type="line"/>
      <point x="109" y="676" type="line"/>
      <point x="167" y="611" type="line"/>
    </contour>
    <contour>
      <point x="300" y="531" type="move" name="_top"/>
    </contour>
  </outline>
</glyph>
<glyph name="caron" format="1">
  <advance width="600"/>
  <unicode hex="02C7"/>
  <outline>
    <contour>
      <point x="300" y="722" type="line"/>
      <point x="167" y="816" type="line"/>
      <point x="109" y="751" type="line"/>
      <point x="251" y="611" type="line"/>
      <point x="349" y="611" type="line"/>
      <point x="490" y="751" type="line"/>
      <point x="433" y="816" type="line"/>
    </contour>
    <contour>
      <point x="300" y="531" type="move" name="_top"/>
    </contour>
  </outline>
</glyph>
<glyph name="uni02C9" format="1">
  <advance width="600"/>
  <unicode hex="02C9"/>
  <outline>
    <contour>
      <point x="453" y="782" type="line"/>
      <point x="146" y="782" type="line"/>
      <point x="146" y="671" type="line"/>
      <point x="453" y="671" type="line"/>
    </contour>
  </outline>
</glyph>
<glyph name="dotaccent" format="1">
  <advance width="600"/>
  <unicode hex="02D9"/>
  <outline>
    <contour>
      <point x="244" y="810"/>
      <point x="205" y="771"/>
      <point x="205" y="720" type="curve" smooth="yes"/>
      <point x="205" y="669"/>
      <point x="244" y="630"/>
      <point x="300" y="630" type="curve" smooth="yes"/>
      <point x="355" y="630"/>
      <point x="394" y="669"/>
      <point x="394" y="720" type="curve" smooth="yes"/>
      <point x="394" y="771"/>
      <point x="355" y="810"/>
      <point x="300" y="810" type="curve" smooth="yes"/>
    </contour>
    <contour>
      <point x="300" y="720" type="move" name="_center"/>
    </contour>
    <contour>
      <point x="300" y="531" type="move" name="_top"/>
    </contour>
  </outline>
</glyph>
<glyph name="ring" format="1">
  <advance width="600"/>
  <unicode hex="02DA"/>
  <outline>
    <contour>
      <point x="213" y="866"/>
      <point x="160" y="805"/>
      <point x="160" y="734" type="curve" smooth="yes"/>
      <point x="160" y="663"/>
      <point x="213" y="601"/>
      <point x="299" y="601" type="curve" smooth="yes"/>
      <point x="386" y="601"/>
      <point x="439" y="663"/>
      <point x="439" y="734" type="curve" smooth="yes"/>
      <point x="439" y="805"/>
      <point x="386" y="866"/>
      <point x="299" y="866" type="curve" smooth="yes"/>
    </contour>
    <contour>
      <point x="326" y="783"/>
      <point x="344" y="767"/>
      <point x="344" y="734" type="curve" smooth="yes"/>
      <point x="344" y="700"/>
      <point x="326" y="684"/>
      <point x="299" y="684" type="curve" smooth="yes"/>
      <point x="273" y="684"/>
      <point x="255" y="700"/>
      <point x="255" y="734" type="curve" smooth="yes"/>
      <point x="255" y="767"/>
      <point x="273" y="783"/>
      <point x="299" y="783" type="curve" smooth="yes"/>
    </contour>
    <contour>
      <point x="300" y="531" type="move" name="_top"/>
    </contour>
  </outline>
</glyph>
<glyph name="ogonek" format="1">
  <advance width="600"/>
  <unicode hex="02DB"/>
  <outline>
    <contour>
      <point x="261" y="17"/>
      <point x="169" y="-24"/>
      <point x="169" y="-130" type="curve" smooth="yes"/>
      <point x="169" y="-210"/>
      <point x="236" y="-254"/>
      <point x="321" y="-254" type="curve" smooth="yes"/>
      <point x="344" y="-254"/>
      <point x="362" y="-251"/>
      <point x="380" y="-246" type="curve"/>
      <point x="392" y="-152" type="line"/>
      <point x="375" y="-156"/>
      <point x="359" y="-159"/>
      <point x="338" y="-159" type="curve" smooth="yes"/>
      <point x="303" y="-159"/>
      <point x="280" y="-143"/>
      <point x="280" y="-110" type="curve" smooth="yes"/>
      <point x="280" y="-69"/>
      <point x="302" y="-32"/>
      <point x="395" y="0" type="curve"/>
      <point x="377" y="52" type="line"/>
    </contour>
    <contour>
      <point x="405" y="0" type="move" name="_ogonek"/>
    </contour>
  </outline>
</glyph>
<glyph name="tilde" format="1">
  <advance width="600"/>
  <unicode hex="02DC"/>
  <outline>
    <contour>
      <point x="416" y="634"/>
      <point x="461" y="685"/>
      <point x="487" y="752" type="curve"/>
      <point x="407" y="791" type="line"/>
      <point x="390" y="762"/>
      <point x="377" y="748"/>
      <point x="355" y="748" type="curve" smooth="yes"/>
      <point x="321" y="748"/>
      <point x="300" y="793"/>
      <point x="239" y="793" type="curve" smooth="yes"/>
      <point x="178" y="793"/>
      <point x="134" y="738"/>
      <point x="109" y="674" type="curve"/>
      <point x="189" y="635" type="line"/>
      <point x="205" y="664"/>
      <point x="217" y="679"/>
      <point x="242" y="679" type="curve" smooth="yes"/>
      <point x="275" y="679"/>
      <point x="298" y="634"/>
      <point x="356" y="634" type="curve" smooth="yes"/>
    </contour>
    <contour>
      <point x="300" y="531" type="move" name="_top"/>
    </contour>
  </outline>
</glyph>
<glyph name="hungarumlaut" format="1">
  <advance width="600"/>
  <unicode hex="02DD"/>
  <outline>
    <contour>
      <point x="197" y="625" type="line"/>
      <point x="322" y="808" type="line"/>
      <point x="214" y="858" type="line"/>
      <point x="114" y="661" type="line"/>
    </contour>
    <contour>
      <point x="359" y="624" type="line"/>
      <point x="485" y="806" type="line"/>
      <point x="378" y="858" type="line"/>
      <point x="277" y="663" type="line"/>
    </contour>
    <contour>
      <point x="255" y="531" type="move" name="_top"/>
    </contour>
  </outline>
</glyph>
<glyph name="gravecomb" format="1">
  <advance width="600"/>
  <unicode hex="0300"/>
  <outline>
    <contour>
      <point x="162" y="716" type="line"/>
      <point x="399" y="622" type="line"/>
      <point x="443" y="703" type="line"/>
      <point x="224" y="836" type="line"/>
    </contour>
    <contour>
      <point x="300" y="531" type="move" name="_top"/>
    </contour>
  </outline>
</glyph>
<glyph name="acutecomb" format="1">
  <advance width="600"/>
  <unicode hex="0301"/>
  <outline>
    <contour>
      <point x="157" y="703" type="line"/>
      <point x="201" y="622" type="line"/>
      <point x="438" y="716" type="line"/>
      <point x="376" y="836" type="line"/>
    </contour>
    <contour>
      <point x="300" y="531" type="move" name="_top"/>
    </contour>
  </outline>
</glyph>
<glyph name="uni0302" format="1">
  <advance width="600"/>
  <unicode hex="0302"/>
  <outline>
    <contour>
      <point x="252" y="782" type="line"/>
      <point x="110" y="651" type="line"/>
      <point x="168" y="586" type="line"/>
      <point x="301" y="671" type="line"/>
      <point x="434" y="586" type="line"/>
      <point x="491" y="651" type="line"/>
      <point x="350" y="782" type="line"/>
    </contour>
    <contour>
      <point x="301" y="531" type="move" name="_top"/>
    </contour>
  </outline>
</glyph>
<glyph name="tildecomb" format="1">
  <advance width="600"/>
  <unicode hex="0303"/>
  <outline>
    <component base="tilde"/>
    <contour>
      <point x="300" y="531" type="move" name="_top"/>
    </contour>
  </outline>
</glyph>
<glyph name="uni0304" format="1">
  <advance width="600"/>
  <unicode hex="0304"/>
  <outline>
    <component base="macron" yOffset="-37"/>
    <contour>
      <point x="300" y="531" type="move" name="_top"/>
    </contour>
  </outline>
</glyph>
<glyph name="uni0306" format="1">
  <advance width="600"/>
  <unicode hex="0306"/>
  <outline>
    <contour>
      <point x="411" y="589"/>
      <point x="464" y="658"/>
      <point x="473" y="744" type="curve"/>
      <point x="385" y="760" type="line"/>
      <point x="372" y="718"/>
      <point x="346" y="700"/>
      <point x="300" y="700" type="curve" smooth="yes"/>
      <point x="254" y="700"/>
      <point x="228" y="718"/>
      <point x="215" y="760" type="curve"/>
      <point x="127" y="744" type="line"/>
      <point x="137" y="658"/>
      <point x="189" y="589"/>
      <point x="300" y="589" type="curve" smooth="yes"/>
    </contour>
    <contour>
      <point x="300" y="531" type="move" name="_top"/>
    </contour>
  </outline>
</glyph>
<glyph name="uni0307" format="1">
  <advance width="600"/>
  <unicode hex="0307"/>
  <outline>
    <component base="dotaccent" xOffset="1" yOffset="-37"/>
    <contour>
      <point x="301" y="683" type="move" name="_center"/>
    </contour>
    <contour>
      <point x="301" y="531" type="move" name="_top"/>
    </contour>
  </outline>
</glyph>
<glyph name="uni0308" format="1">
  <advance width="600"/>
  <unicode hex="0308"/>
  <outline>
    <component base="dieresis"/>
    <contour>
      <point x="300" y="718" type="move" name="top"/>
    </contour>
    <contour>
      <point x="300" y="531" type="move" name="_top"/>
    </contour>
  </outline>
</glyph>
<glyph name="uni030A" format="1">
  <advance width="600"/>
  <unicode hex="030A"/>
  <outline>
    <component base="ring" xOffset="1" yOffset="-37"/>
    <contour>
      <point x="301" y="531" type="move" name="_top"/>
    </contour>
  </outline>
</glyph>
<glyph name="uni030B" format="1">
  <advance width="600"/>
  <unicode hex="030B"/>
  <outline>
    <component base="hungarumlaut" xOffset="1" yOffset="-37"/>
    <contour>
      <point x="271" y="531" type="move" name="_top"/>
    </contour>
  </outline>
</glyph>
<glyph name="uni030C" format="1">
  <advance width="600"/>
  <unicode hex="030C"/>
  <outline>
    <contour>
      <point x="301" y="700" type="line"/>
      <point x="168" y="785" type="line"/>
      <point x="110" y="720" type="line"/>
      <point x="252" y="589" type="line"/>
      <point x="350" y="589" type="line"/>
      <point x="491" y="720" type="line"/>
      <point x="434" y="785" type="line"/>
    </contour>
    <contour>
      <point x="301" y="531" type="move" name="_top"/>
    </contour>
  </outline>
</glyph>
<glyph name="uni030F" format="1">
  <advance width="600"/>
  <unicode hex="030F"/>
  <outline>
    <component base="hungarumlaut" xOffset="600" xScale="-1"/>
    <contour>
      <point x="275" y="857" type="move" name="top"/>
    </contour>
    <contour>
      <point x="355" y="531" type="move" name="_top"/>
    </contour>
  </outline>
</glyph>
<glyph name="uni0314" format="1">
  <advance width="600"/>
  <unicode hex="0314"/>
  <outline>
    <component base="uni0326" xOffset="597" yOffset="502" xScale="-1" yScale="-1"/>
    <contour>
      <point x="296" y="531" type="move" name="_top"/>
    </contour>
  </outline>
</glyph>
<glyph name="uni0326" format="1">
  <advance width="600"/>
  <unicode hex="0326"/>
  <outline>
    <contour>
      <point x="255" y="-65"/>
      <point x="221" y="-100"/>
      <point x="221" y="-143" type="curve" smooth="yes"/>
      <point x="221" y="-172"/>
      <point x="235" y="-193"/>
      <point x="254" y="-208" type="curve"/>
      <point x="227" y="-323" type="line"/>
      <point x="307" y="-323" type="line"/>
      <point x="356" y="-226" type="line" smooth="yes"/>
      <point x="371" y="-196"/>
      <point x="380" y="-167"/>
      <point x="380" y="-143" type="curve" smooth="yes"/>
      <point x="380" y="-98"/>
      <point x="346" y="-65"/>
      <point x="301" y="-65" type="curve" smooth="yes"/>
    </contour>
    <contour>
      <point x="301" y="0" type="move" name="_bottom"/>
    </contour>
  </outline>
</glyph>
<glyph name="uni0327" format="1">
  <advance width="600"/>
  <unicode hex="0327"/>
  <outline>
    <component base="cedilla"/>
    <contour>
      <point x="300" y="0" type="move" name="_bottom"/>
    </contour>
  </outline>
</glyph>
<glyph name="strokelongoverlay" format="1">
  <advance width="600"/>
  <unicode hex="0336"/>
  <outline>
    <contour>
      <point x="634" y="376" type="line"/>
      <point x="-34" y="376" type="line"/>
      <point x="-34" y="282" type="line"/>
      <point x="634" y="282" type="line"/>
    </contour>
  </outline>
</glyph>
<glyph name="uni0342" format="1">
  <advance width="600"/>
  <unicode hex="0342"/>
  <outline>
    <component base="tildecomb"/>
    <contour>
      <point x="307" y="749" type="move" name="top"/>
    </contour>
    <contour>
      <point x="300" y="531" type="move" name="_top"/>
    </contour>
  </outline>
</glyph>
<glyph name="uni0345" format="1">
  <advance width="600"/>
  <unicode hex="0345"/>
  <outline>
    <contour>
      <point x="363" y="-204"/>
      <point x="397" y="-187"/>
      <point x="423" y="-167" type="curve"/>
      <point x="382" y="-98" type="line"/>
      <point x="365" y="-108"/>
      <point x="351" y="-113"/>
      <point x="331" y="-113" type="curve" smooth="yes"/>
      <point x="304" y="-113"/>
      <point x="292" y="-99"/>
      <point x="292" y="-73" type="curve" smooth="yes"/>
      <point x="292" y="-42" type="line"/>
      <point x="178" y="-42" type="line"/>
      <point x="178" y="-76" type="line" smooth="yes"/>
      <point x="178" y="-151"/>
      <point x="224" y="-204"/>
      <point x="311" y="-204" type="curve" smooth="yes"/>
    </contour>
    <contour>
      <point x="235" y="0" type="move" name="_bottom"/>
    </contour>
    <contour>
      <point x="312" y="-204" type="move" name="bottom"/>
    </contour>
  </outline>
</glyph>
<glyph name="uni0370" format="1">
  <advance width="600"/>
  <unicode hex="0370"/>
  <outline>
    <contour>
      <point x="505" y="427" type="line"/>
      <point x="261" y="427" type="line"/>
      <point x="261" y="693" type="line"/>
      <point x="96" y="693" type="line"/>
      <point x="96" y="0" type="line"/>
      <point x="261" y="0" type="line"/>
      <point x="261" y="293" type="line"/>
      <point x="505" y="293" type="line"/>
    </contour>
  </outline>
</glyph>
<glyph name="uni0371" format="1">
  <advance width="600"/>
  <unicode hex="0371"/>
  <outline>
    <contour>
      <point x="533" y="332" type="line"/>
      <point x="208" y="332" type="line"/>
      <point x="208" y="209" type="line"/>
      <point x="533" y="209" type="line"/>
    </contour>
    <contour>
      <point x="88" y="525" type="line"/>
      <point x="99" y="491"/>
      <point x="110" y="439"/>
      <point x="110" y="383" type="curve" smooth="yes"/>
      <point x="110" y="0" type="line"/>
      <point x="270" y="0" type="line"/>
      <point x="270" y="345" type="line" smooth="yes"/>
      <point x="270" y="456"/>
      <point x="255" y="507"/>
      <point x="236" y="545" type="curve"/>
    </contour>
    <contour>
      <point x="300" y="531" type="move" name="top"/>
    </contour>
    <contour>
      <point x="300" y="0" type="move" name="bottom"/>
    </contour>
  </outline>
</glyph>
<glyph name="uni0372" format="1">
  <advance width="600"/>
  <unicode hex="0372"/>
  <outline>
    <contour>
      <point x="383" y="0" type="line"/>
      <point x="383" y="568" type="line"/>
      <point x="585" y="568" type="line"/>
      <point x="585" y="693" type="line"/>
      <point x="16" y="693" type="line"/>
      <point x="16" y="568" type="line"/>
      <point x="217" y="568" type="line"/>
      <point x="217" y="0" type="line"/>
    </contour>
    <contour>
      <point x="139" y="399" type="line"/>
      <point x="139" y="630" type="line"/>
      <point x="16" y="630" type="line"/>
      <point x="16" y="399" type="line"/>
    </contour>
    <contour>
      <point x="585" y="399" type="line"/>
      <point x="585" y="624" type="line"/>
      <point x="462" y="624" type="line"/>
      <point x="462" y="399" type="line"/>
    </contour>
  </outline>
</glyph>
<glyph name="uni0373" format="1">
  <advance width="600"/>
  <unicode hex="0373"/>
  <outline>
    <contour>
      <point x="218" y="495" type="line"/>
      <point x="218" y="-222" type="line"/>
      <point x="378" y="-205" type="line"/>
      <point x="378" y="495" type="line"/>
    </contour>
    <contour>
      <point x="66" y="410"/>
      <point x="108" y="412"/>
      <point x="137" y="412" type="curve" smooth="yes"/>
      <point x="569" y="412" type="line"/>
      <point x="569" y="531" type="line"/>
      <point x="132" y="531" type="line" smooth="yes"/>
      <point x="79" y="531"/>
      <point x="42" y="526"/>
      <point x="11" y="513" type="curve"/>
      <point x="35" y="401" type="line"/>
    </contour>
  </outline>
</glyph>
<glyph name="uni0377" format="1">
  <advance width="600"/>
  <unicode hex="0377"/>
  <outline>
    <contour>
      <point x="228" y="0" type="line"/>
      <point x="413" y="395" type="line"/>
      <point x="527" y="531" type="line"/>
      <point x="367" y="531" type="line"/>
      <point x="188" y="138" type="line"/>
      <point x="206" y="203"/>
      <point x="216" y="282"/>
      <point x="216" y="362" type="curve" smooth="yes"/>
      <point x="216" y="531" type="line"/>
      <point x="65" y="531" type="line"/>
      <point x="65" y="0" type="line"/>
    </contour>
    <contour>
      <point x="570" y="99" type="line"/>
      <point x="536" y="115"/>
      <point x="527" y="135"/>
      <point x="527" y="180" type="curve" smooth="yes"/>
      <point x="527" y="531" type="line"/>
      <point x="413" y="395" type="line"/>
      <point x="402" y="342"/>
      <point x="379" y="196"/>
      <point x="379" y="144" type="curve" smooth="yes"/>
      <point x="379" y="49"/>
      <point x="434" y="2"/>
      <point x="523" y="-17" type="curve"/>
    </contour>
  </outline>
</glyph>
<glyph name="uni037A" format="1">
  <advance width="600"/>
  <unicode hex="037A"/>
  <outline>
    <component base="uni0345"/>
    <contour>
      <point x="235" y="0" type="move" name="_bottom"/>
    </contour>
  </outline>
</glyph>
<glyph name="reversedlunatesigmasymbol" format="1">
  <advance width="600"/>
  <unicode hex="037B"/>
  <outline>
    <contour>
      <point x="429" y="-17"/>
      <point x="532" y="96"/>
      <point x="532" y="262" type="curve" smooth="yes"/>
      <point x="532" y="438"/>
      <point x="444" y="549"/>
      <point x="268" y="549" type="curve" smooth="yes"/>
      <point x="181" y="549"/>
      <point x="120" y="526"/>
      <point x="59" y="482" type="curve"/>
      <point x="128" y="386" type="line"/>
      <point x="171" y="411"/>
      <point x="210" y="426"/>
      <point x="258" y="426" type="curve" smooth="yes"/>
      <point x="333" y="426"/>
      <point x="365" y="381"/>
      <point x="365" y="262" type="curve" smooth="yes"/>
      <point x="365" y="145"/>
      <point x="315" y="109"/>
      <point x="248" y="109" type="curve" smooth="yes"/>
      <point x="205" y="109"/>
      <point x="168" y="128"/>
      <point x="130" y="154" type="curve"/>
      <point x="59" y="53" type="line"/>
      <point x="106" y="13"/>
      <point x="174" y="-17"/>
      <point x="257" y="-17" type="curve" smooth="yes"/>
    </contour>
    <contour>
      <point x="229" y="265" type="move" name="center"/>
    </contour>
  </outline>
</glyph>
<glyph name="tonos" format="1">
  <advance width="600"/>
  <unicode hex="0384"/>
  <outline>
    <contour>
      <point x="204" y="604" type="line"/>
      <point x="308" y="587" type="line"/>
      <point x="397" y="816" type="line"/>
      <point x="242" y="848" type="line"/>
    </contour>
    <contour>
      <point x="255" y="531" type="move" name="_top"/>
    </contour>
  </outline>
</glyph>
<glyph name="dieresistonos" format="1">
  <advance width="600"/>
  <unicode hex="0385"/>
  <outline>
    <contour>
      <point x="252" y="754" type="line"/>
      <point x="340" y="740" type="line"/>
      <point x="412" y="931" type="line"/>
      <point x="281" y="955" type="line"/>
    </contour>
    <contour>
      <point x="121" y="760"/>
      <point x="86" y="725"/>
      <point x="86" y="680" type="curve" smooth="yes"/>
      <point x="86" y="636"/>
      <point x="121" y="600"/>
      <point x="168" y="600" type="curve" smooth="yes"/>
      <point x="213" y="600"/>
      <point x="249" y="636"/>
      <point x="249" y="680" type="curve" smooth="yes"/>
      <point x="249" y="725"/>
      <point x="213" y="760"/>
      <point x="168" y="760" type="curve" smooth="yes"/>
    </contour>
    <contour>
      <point x="386" y="760"/>
      <point x="351" y="725"/>
      <point x="351" y="680" type="curve" smooth="yes"/>
      <point x="351" y="636"/>
      <point x="386" y="600"/>
      <point x="432" y="600" type="curve" smooth="yes"/>
      <point x="478" y="600"/>
      <point x="514" y="636"/>
      <point x="514" y="680" type="curve" smooth="yes"/>
      <point x="514" y="725"/>
      <point x="478" y="760"/>
      <point x="432" y="760" type="curve" smooth="yes"/>
    </contour>
    <contour>
      <point x="300" y="531" type="move" name="_top"/>
    </contour>
  </outline>
</glyph>
<glyph name="Delta" format="1">
  <advance width="600"/>
  <unicode hex="0394"/>
  <outline>
    <contour>
      <point x="200" y="693" type="line"/>
      <point x="-12" y="0" type="line"/>
      <point x="613" y="0" type="line"/>
      <point x="401" y="693" type="line"/>
    </contour>
    <contour>
      <point x="403" y="135" type="line"/>
      <point x="194" y="135" type="line"/>
      <point x="298" y="574" type="line"/>
    </contour>
    <component base="Delta"/>
  </outline>
</glyph>
<glyph name="Theta" format="1">
  <advance width="600"/>
  <unicode hex="0398"/>
  <outline>
    <contour>
      <point x="374" y="398" type="line"/>
      <point x="225" y="398" type="line"/>
      <point x="225" y="307" type="line"/>
      <point x="374" y="307" type="line"/>
    </contour>
    <contour>
      <point x="578" y="572"/>
      <point x="482" y="711"/>
      <point x="300" y="711" type="curve" smooth="yes"/>
      <point x="118" y="711"/>
      <point x="22" y="567"/>
      <point x="22" y="347" type="curve" smooth="yes"/>
      <point x="22" y="122"/>
      <point x="118" y="-17"/>
      <point x="300" y="-17" type="curve" smooth="yes"/>
      <point x="482" y="-17"/>
      <point x="578" y="127"/>
      <point x="578" y="347" type="curve" smooth="yes"/>
    </contour>
    <contour>
      <point x="414" y="175"/>
      <point x="379" y="104"/>
      <point x="300" y="104" type="curve" smooth="yes"/>
      <point x="224" y="104"/>
      <point x="186" y="174"/>
      <point x="186" y="347" type="curve" smooth="yes"/>
      <point x="186" y="521"/>
      <point x="223" y="590"/>
      <point x="300" y="590" type="curve" smooth="yes"/>
      <point x="377" y="590"/>
      <point x="414" y="520"/>
      <point x="414" y="347" type="curve" smooth="yes"/>
    </contour>
    <contour>
      <point x="300" y="693" type="move" name="top"/>
    </contour>
    <contour>
      <point x="300" y="0" type="move" name="bottom"/>
    </contour>
  </outline>
</glyph>
<glyph name="Lambda" format="1">
  <advance width="600"/>
  <unicode hex="039B"/>
  <outline>
    <contour>
      <point x="200" y="693" type="line"/>
      <point x="-8" y="0" type="line"/>
      <point x="167" y="0" type="line"/>
      <point x="299" y="570" type="line"/>
      <point x="430" y="0" type="line"/>
      <point x="608" y="0" type="line"/>
      <point x="401" y="693" type="line"/>
    </contour>
  </outline>
</glyph>
<glyph name="Xi" format="1">
  <advance width="600"/>
  <unicode hex="039E"/>
  <outline>
    <contour>
      <point x="52" y="136" type="line"/>
      <point x="52" y="0" type="line"/>
      <point x="548" y="0" type="line"/>
      <point x="548" y="136" type="line"/>
    </contour>
    <contour>
      <point x="112" y="414" type="line"/>
      <point x="112" y="290" type="line"/>
      <point x="485" y="290" type="line"/>
      <point x="485" y="414" type="line"/>
    </contour>
    <contour>
      <point x="52" y="693" type="line"/>
      <point x="52" y="562" type="line"/>
      <point x="529" y="562" type="line"/>
      <point x="548" y="693" type="line"/>
    </contour>
  </outline>
</glyph>
<glyph name="Sigma" format="1">
  <advance width="600"/>
  <unicode hex="03A3"/>
  <outline>
    <contour>
      <point x="423" y="376" type="line"/>
      <point x="238" y="573" type="line"/>
      <point x="546" y="573" type="line"/>
      <point x="546" y="693" type="line"/>
      <point x="54" y="693" type="line"/>
      <point x="54" y="573" type="line"/>
      <point x="265" y="341" type="line"/>
      <point x="54" y="120" type="line"/>
      <point x="54" y="0" type="line"/>
      <point x="546" y="0" type="line"/>
      <point x="546" y="123" type="line"/>
      <point x="236" y="123" type="line"/>
      <point x="423" y="311" type="line"/>
    </contour>
  </outline>
</glyph>
<glyph name="Psi" format="1">
  <advance width="600"/>
  <unicode hex="03A8"/>
  <outline>
    <contour>
      <point x="373" y="0" type="line"/>
      <point x="373" y="184" type="line"/>
      <point x="521" y="206"/>
      <point x="589" y="293"/>
      <point x="589" y="423" type="curve" smooth="yes"/>
      <point x="589" y="693" type="line"/>
      <point x="449" y="693" type="line"/>
      <point x="449" y="419" type="line" smooth="yes"/>
      <point x="449" y="342"/>
      <point x="433" y="305"/>
      <point x="363" y="290" type="curve"/>
      <point x="363" y="693" type="line"/>
      <point x="238" y="693" type="line"/>
      <point x="238" y="289" type="line"/>
      <point x="165" y="303"/>
      <point x="151" y="341"/>
      <point x="151" y="419" type="curve" smooth="yes"/>
      <point x="151" y="693" type="line"/>
      <point x="11" y="693" type="line"/>
      <point x="11" y="423" type="line" smooth="yes"/>
      <point x="11" y="289"/>
      <point x="78" y="204"/>
      <point x="227" y="183" type="curve"/>
      <point x="227" y="0" type="line"/>
    </contour>
  </outline>
</glyph>
<glyph name="alpha" format="1">
  <advance width="600"/>
  <unicode hex="03B1"/>
  <outline>
    <contour>
      <point x="118" y="549"/>
      <point x="34" y="428"/>
      <point x="34" y="263" type="curve" smooth="yes"/>
      <point x="34" y="86"/>
      <point x="110" y="-17"/>
      <point x="235" y="-17" type="curve" smooth="yes"/>
      <point x="321" y="-17"/>
      <point x="375" y="29"/>
      <point x="400" y="130" type="curve"/>
      <point x="411" y="77" type="line" smooth="yes"/>
      <point x="425" y="10"/>
      <point x="462" y="-7"/>
      <point x="520" y="-17" type="curve"/>
      <point x="572" y="103" type="line"/>
      <point x="543" y="109"/>
      <point x="525" y="121"/>
      <point x="514" y="169" type="curve" smooth="yes"/>
      <point x="487" y="284" type="line"/>
      <point x="572" y="531" type="line"/>
      <point x="428" y="531" type="line"/>
      <point x="404" y="405" type="line"/>
      <point x="393" y="494"/>
      <point x="343" y="549"/>
      <point x="246" y="549" type="curve" smooth="yes"/>
    </contour>
    <contour>
      <point x="311" y="432"/>
      <point x="341" y="387"/>
      <point x="360" y="266" type="curve"/>
      <point x="337" y="133"/>
      <point x="300" y="99"/>
      <point x="264" y="99" type="curve" smooth="yes"/>
      <point x="224" y="99"/>
      <point x="196" y="144"/>
      <point x="196" y="263" type="curve" smooth="yes"/>
      <point x="196" y="379"/>
      <point x="222" y="432"/>
      <point x="268" y="432" type="curve" smooth="yes"/>
    </contour>
    <contour>
      <point x="280" y="531" type="move" name="top"/>
    </contour>
    <contour>
      <point x="309" y="0" type="move" name="bottom"/>
    </contour>
  </outline>
</glyph>
<glyph name="beta" format="1">
  <advance width="600"/>
  <unicode hex="03B2"/>
  <outline>
    <contour>
      <point x="151" y="764"/>
      <point x="52" y="687"/>
      <point x="52" y="549" type="curve" smooth="yes"/>
      <point x="52" y="-227" type="line"/>
      <point x="213" y="-200" type="line"/>
      <point x="213" y="558" type="line" smooth="yes"/>
      <point x="213" y="618"/>
      <point x="240" y="646"/>
      <point x="284" y="646" type="curve" smooth="yes"/>
      <point x="327" y="646"/>
      <point x="351" y="614"/>
      <point x="351" y="552" type="curve" smooth="yes"/>
      <point x="351" y="486"/>
      <point x="324" y="452"/>
      <point x="284" y="452" type="curve" smooth="yes"/>
      <point x="265" y="452" type="line"/>
      <point x="255" y="338" type="line"/>
      <point x="287" y="338" type="line" smooth="yes"/>
      <point x="352" y="338"/>
      <point x="402" y="301"/>
      <point x="402" y="220" type="curve" smooth="yes"/>
      <point x="402" y="134"/>
      <point x="356" y="99"/>
      <point x="299" y="99" type="curve" smooth="yes"/>
      <point x="250" y="99"/>
      <point x="215" y="119"/>
      <point x="177" y="148" type="curve"/>
      <point x="140" y="85" type="line"/>
      <point x="199" y="19"/>
      <point x="268" y="-20"/>
      <point x="343" y="-20" type="curve" smooth="yes"/>
      <point x="483" y="-20"/>
      <point x="567" y="75"/>
      <point x="567" y="210" type="curve" smooth="yes"/>
      <point x="567" y="361"/>
      <point x="460" y="398"/>
      <point x="381" y="406" type="curve"/>
      <point x="472" y="429"/>
      <point x="514" y="482"/>
      <point x="514" y="567" type="curve" smooth="yes"/>
      <point x="514" y="677"/>
      <point x="428" y="764"/>
      <point x="284" y="764" type="curve" smooth="yes"/>
    </contour>
    <contour>
      <point x="300" y="742" type="move" name="top"/>
    </contour>
    <contour>
      <point x="300" y="-222" type="move" name="bottom"/>
    </contour>
  </outline>
</glyph>
<glyph name="gamma" format="1">
  <advance width="600"/>
  <unicode hex="03B3"/>
  <outline>
    <contour>
      <point x="302" y="140" type="line"/>
      <point x="279" y="320"/>
      <point x="228" y="459"/>
      <point x="172" y="547" type="curve"/>
      <point x="14" y="490" type="line"/>
      <point x="103" y="377"/>
      <point x="171" y="225"/>
      <point x="225" y="13" type="curve"/>
      <point x="196" y="-70"/>
      <point x="197" y="-146"/>
      <point x="233" y="-220" type="curve"/>
      <point x="359" y="-207" type="line"/>
      <point x="343" y="-116"/>
      <point x="345" y="-46"/>
      <point x="376" y="26" type="curve" smooth="yes"/>
      <point x="586" y="508" type="line"/>
      <point x="426" y="545" type="line"/>
    </contour>
  </outline>
</glyph>
<glyph name="epsilon" format="1">
  <advance width="600"/>
  <unicode hex="03B5"/>
  <outline>
    <contour>
      <point x="435" y="324" type="line"/>
      <point x="328" y="324" type="line" smooth="yes"/>
      <point x="271" y="324"/>
      <point x="245" y="348"/>
      <point x="245" y="383" type="curve" smooth="yes"/>
      <point x="245" y="420"/>
      <point x="278" y="438"/>
      <point x="336" y="438" type="curve" smooth="yes"/>
      <point x="386" y="438"/>
      <point x="435" y="428"/>
      <point x="473" y="407" type="curve"/>
      <point x="543" y="493" type="line"/>
      <point x="479" y="532"/>
      <point x="399" y="549"/>
      <point x="315" y="549" type="curve" smooth="yes"/>
      <point x="183" y="549"/>
      <point x="83" y="497"/>
      <point x="83" y="405" type="curve" smooth="yes"/>
      <point x="83" y="345"/>
      <point x="119" y="302"/>
      <point x="205" y="283" type="curve"/>
      <point x="106" y="269"/>
      <point x="63" y="228"/>
      <point x="63" y="149" type="curve" smooth="yes"/>
      <point x="63" y="40"/>
      <point x="172" y="-17"/>
      <point x="325" y="-17" type="curve" smooth="yes"/>
      <point x="429" y="-17"/>
      <point x="512" y="7"/>
      <point x="575" y="48" type="curve"/>
      <point x="503" y="137" type="line"/>
      <point x="455" y="110"/>
      <point x="401" y="97"/>
      <point x="338" y="97" type="curve" smooth="yes"/>
      <point x="265" y="97"/>
      <point x="229" y="121"/>
      <point x="229" y="162" type="curve" smooth="yes"/>
      <point x="229" y="200"/>
      <point x="254" y="222"/>
      <point x="321" y="222" type="curve" smooth="yes"/>
      <point x="420" y="222" type="line"/>
    </contour>
    <contour>
      <point x="315" y="531" type="move" name="top"/>
    </contour>
    <contour>
      <point x="319" y="0" type="move" name="bottom"/>
    </contour>
  </outline>
</glyph>
<glyph name="theta" format="1">
  <advance width="600"/>
  <unicode hex="03B8"/>
  <outline>
    <contour>
      <point x="137" y="759"/>
      <point x="41" y="624"/>
      <point x="41" y="372" type="curve" smooth="yes"/>
      <point x="41" y="116"/>
      <point x="137" y="-17"/>
      <point x="300" y="-17" type="curve" smooth="yes"/>
      <point x="463" y="-17"/>
      <point x="559" y="118"/>
      <point x="559" y="373" type="curve" smooth="yes"/>
      <point x="559" y="627"/>
      <point x="464" y="759"/>
      <point x="300" y="759" type="curve" smooth="yes"/>
    </contour>
    <contour>
      <point x="399" y="148"/>
      <point x="364" y="98"/>
      <point x="300" y="98" type="curve" smooth="yes"/>
      <point x="236" y="98"/>
      <point x="200" y="148"/>
      <point x="195" y="324" type="curve"/>
      <point x="404" y="324" type="line"/>
    </contour>
    <contour>
      <point x="365" y="644"/>
      <point x="399" y="593"/>
      <point x="404" y="417" type="curve"/>
      <point x="196" y="417" type="line"/>
      <point x="200" y="593"/>
      <point x="236" y="644"/>
      <point x="300" y="644" type="curve" smooth="yes"/>
    </contour>
  </outline>
</glyph>
<glyph name="iota" format="1">
  <advance width="600"/>
  <unicode hex="03B9"/>
  <outline>
    <contour>
      <point x="200" y="161" type="line" smooth="yes"/>
      <point x="200" y="52"/>
      <point x="271" y="-17"/>
      <point x="387" y="-17" type="curve" smooth="yes"/>
      <point x="455" y="-17"/>
      <point x="505" y="-1"/>
      <point x="541" y="18" type="curve"/>
      <point x="503" y="125" type="line"/>
      <point x="481" y="116"/>
      <point x="455" y="109"/>
      <point x="428" y="109" type="curve" smooth="yes"/>
      <point x="386" y="109"/>
      <point x="360" y="125"/>
      <point x="360" y="167" type="curve" smooth="yes"/>
      <point x="360" y="531" type="line"/>
      <point x="50" y="531" type="line"/>
      <point x="37" y="415" type="line"/>
      <point x="200" y="415" type="line"/>
    </contour>
    <contour>
      <point x="290" y="531" type="move" name="top"/>
    </contour>
  </outline>
</glyph>
<glyph name="lambda" format="1">
  <advance width="600"/>
  <unicode hex="03BB"/>
  <outline>
    <contour>
      <point x="26" y="20" type="line"/>
      <point x="184" y="-17" type="line"/>
      <point x="294" y="418" type="line"/>
      <point x="328" y="199"/>
      <point x="364" y="86"/>
      <point x="433" y="-17" type="curve"/>
      <point x="591" y="33" type="line"/>
      <point x="520" y="123"/>
      <point x="474" y="235"/>
      <point x="421" y="455" type="curve" smooth="yes"/>
      <point x="370" y="666"/>
      <point x="303" y="733"/>
      <point x="103" y="758" type="curve"/>
      <point x="84" y="649" type="line"/>
      <point x="191" y="634"/>
      <point x="225" y="607"/>
      <point x="254" y="531" type="curve"/>
      <point x="202" y="531" type="line"/>
    </contour>
  </outline>
</glyph>
<glyph name="pi" format="1">
  <advance width="600"/>
  <unicode hex="03C0"/>
  <outline>
    <contour>
      <point x="96" y="432" type="line"/>
      <point x="96" y="0" type="line"/>
      <point x="248" y="0" type="line"/>
      <point x="248" y="432" type="line"/>
    </contour>
    <contour>
      <point x="353" y="432" type="line"/>
      <point x="353" y="159" type="line" smooth="yes"/>
      <point x="353" y="50"/>
      <point x="412" y="-1"/>
      <point x="505" y="-17" type="curve"/>
      <point x="552" y="100" type="line"/>
      <point x="521" y="115"/>
      <point x="508" y="136"/>
      <point x="508" y="180" type="curve" smooth="yes"/>
      <point x="508" y="433" type="line"/>
    </contour>
    <contour>
      <point x="114" y="531" type="line" smooth="yes"/>
      <point x="73" y="531"/>
      <point x="39" y="523"/>
      <point x="4" y="509" type="curve"/>
      <point x="30" y="400" type="line"/>
      <point x="68" y="414"/>
      <point x="108" y="416"/>
      <point x="164" y="416" type="curve" smooth="yes"/>
      <point x="577" y="416" type="line"/>
      <point x="577" y="531" type="line"/>
    </contour>
    <contour>
      <point x="300" y="531" type="move" name="top"/>
    </contour>
    <contour>
      <point x="300" y="0" type="move" name="bottom"/>
    </contour>
  </outline>
</glyph>
<glyph name="sigma" format="1">
  <advance width="600"/>
  <unicode hex="03C3"/>
  <outline>
    <contour>
      <point x="133" y="540"/>
      <point x="41" y="430"/>
      <point x="41" y="263" type="curve" smooth="yes"/>
      <point x="41" y="86"/>
      <point x="138" y="-17"/>
      <point x="300" y="-17" type="curve" smooth="yes"/>
      <point x="462" y="-17"/>
      <point x="559" y="88"/>
      <point x="559" y="254" type="curve" smooth="yes"/>
      <point x="559" y="346"/>
      <point x="521" y="410"/>
      <point x="459" y="447" type="curve"/>
      <point x="338" y="441" type="line"/>
      <point x="369" y="418"/>
      <point x="393" y="375"/>
      <point x="393" y="263" type="curve" smooth="yes"/>
      <point x="393" y="148"/>
      <point x="363" y="100"/>
      <point x="300" y="100" type="curve" smooth="yes"/>
      <point x="236" y="100"/>
      <point x="206" y="148"/>
      <point x="206" y="263" type="curve" smooth="yes"/>
      <point x="206" y="409"/>
      <point x="257" y="438"/>
      <point x="363" y="435" type="curve"/>
      <point x="451" y="435" type="line"/>
      <point x="578" y="425" type="line"/>
      <point x="578" y="529" type="line"/>
      <point x="500" y="534"/>
      <point x="397" y="540"/>
      <point x="307" y="540" type="curve" smooth="yes"/>
    </contour>
  </outline>
</glyph>
<glyph name="tau" format="1">
  <advance width="600"/>
  <unicode hex="03C4"/>
  <outline>
    <contour>
      <point x="142" y="531" type="line" smooth="yes"/>
      <point x="89" y="531"/>
      <point x="52" y="526"/>
      <point x="21" y="513" type="curve"/>
      <point x="45" y="403" type="line"/>
      <point x="76" y="412"/>
      <point x="118" y="414"/>
      <point x="147" y="414" type="curve" smooth="yes"/>
      <point x="537" y="414" type="line"/>
      <point x="537" y="531" type="line"/>
    </contour>
    <contour>
      <point x="194" y="430" type="line"/>
      <point x="194" y="161" type="line" smooth="yes"/>
      <point x="194" y="52"/>
      <point x="264" y="-17"/>
      <point x="381" y="-17" type="curve" smooth="yes"/>
      <point x="449" y="-17"/>
      <point x="499" y="-1"/>
      <point x="535" y="18" type="curve"/>
      <point x="497" y="125" type="line"/>
      <point x="475" y="116"/>
      <point x="449" y="109"/>
      <point x="421" y="109" type="curve" smooth="yes"/>
      <point x="380" y="109"/>
      <point x="354" y="125"/>
      <point x="354" y="167" type="curve" smooth="yes"/>
      <point x="354" y="430" type="line"/>
    </contour>
    <contour>
      <point x="300" y="531" type="move" name="top"/>
    </contour>
    <contour>
      <point x="300" y="0" type="move" name="bottom"/>
    </contour>
  </outline>
</glyph>
<glyph name="upsilon" format="1">
  <advance width="600"/>
  <unicode hex="03C5"/>
  <outline>
    <contour>
      <point x="365" y="531" type="line"/>
      <point x="381" y="448"/>
      <point x="392" y="353"/>
      <point x="392" y="265" type="curve" smooth="yes"/>
      <point x="392" y="147"/>
      <point x="351" y="100"/>
      <point x="293" y="100" type="curve" smooth="yes"/>
      <point x="248" y="100"/>
      <point x="224" y="125"/>
      <point x="224" y="190" type="curve" smooth="yes"/>
      <point x="224" y="531" type="line"/>
      <point x="64" y="531" type="line"/>
      <point x="64" y="180" type="line" smooth="yes"/>
      <point x="64" y="49"/>
      <point x="154" y="-17"/>
      <point x="282" y="-17" type="curve" smooth="yes"/>
      <point x="426" y="-17"/>
      <point x="552" y="67"/>
      <point x="552" y="256" type="curve" smooth="yes"/>
      <point x="552" y="363"/>
      <point x="539" y="452"/>
      <point x="523" y="531" type="curve"/>
    </contour>
    <contour>
      <point x="300" y="531" type="move" name="top"/>
    </contour>
  </outline>
</glyph>
<glyph name="chi" format="1">
  <advance width="600"/>
  <unicode hex="03C7"/>
  <outline>
    <contour>
      <point x="16" y="494" type="line"/>
      <point x="99" y="419"/>
      <point x="171" y="304"/>
      <point x="214" y="174" type="curve"/>
      <point x="298" y="73" type="line"/>
      <point x="427" y="-237" type="line"/>
      <point x="585" y="-193" type="line"/>
      <point x="383" y="173" type="line"/>
      <point x="303" y="271" type="line"/>
      <point x="274" y="391"/>
      <point x="228" y="475"/>
      <point x="170" y="548" type="curve"/>
    </contour>
    <contour>
      <point x="303" y="271" type="line"/>
      <point x="214" y="174" type="line"/>
      <point x="14" y="-200" type="line"/>
      <point x="173" y="-237" type="line"/>
      <point x="298" y="73" type="line"/>
      <point x="383" y="173" type="line"/>
      <point x="565" y="514" type="line"/>
      <point x="414" y="547" type="line"/>
    </contour>
    <contour>
      <point x="300" y="531" type="move" name="top"/>
    </contour>
    <contour>
      <point x="300" y="-222" type="move" name="bottom"/>
    </contour>
  </outline>
</glyph>
<glyph name="psi" format="1">
  <advance width="600"/>
  <unicode hex="03C8"/>
  <outline>
    <contour>
      <point x="239" y="531" type="line"/>
      <point x="239" y="92" type="line"/>
      <point x="185" y="101"/>
      <point x="161" y="136"/>
      <point x="161" y="205" type="curve" smooth="yes"/>
      <point x="161" y="531" type="line"/>
      <point x="28" y="531" type="line"/>
      <point x="28" y="203" type="line" smooth="yes"/>
      <point x="28" y="89"/>
      <point x="76" y="4"/>
      <point x="239" y="-13" type="curve"/>
      <point x="239" y="-222" type="line"/>
      <point x="362" y="-205" type="line"/>
      <point x="362" y="-13" type="line"/>
      <point x="520" y="12"/>
      <point x="580" y="91"/>
      <point x="580" y="256" type="curve" smooth="yes"/>
      <point x="580" y="360"/>
      <point x="569" y="450"/>
      <point x="552" y="531" type="curve"/>
      <point x="424" y="531" type="line"/>
      <point x="437" y="429"/>
      <point x="446" y="350"/>
      <point x="446" y="260" type="curve" smooth="yes"/>
      <point x="446" y="146"/>
      <point x="431" y="107"/>
      <point x="362" y="92" type="curve"/>
      <point x="362" y="531" type="line"/>
    </contour>
  </outline>
</glyph>
<glyph name="uni03CF" format="1">
  <advance width="600"/>
  <unicode hex="03CF"/>
  <outline>
    <contour>
      <point x="413" y="0" type="line"/>
      <point x="582" y="0" type="line"/>
      <point x="582" y="127" type="line"/>
      <point x="413" y="127" type="line"/>
    </contour>
    <contour>
      <point x="215" y="693" type="line"/>
      <point x="49" y="693" type="line"/>
      <point x="49" y="0" type="line"/>
      <point x="215" y="0" type="line"/>
    </contour>
    <contour>
      <point x="388" y="0" type="line"/>
      <point x="575" y="0" type="line"/>
      <point x="387" y="382" type="line"/>
      <point x="556" y="693" type="line"/>
      <point x="387" y="693" type="line"/>
      <point x="220" y="370" type="line"/>
    </contour>
    <component base="hookHELPER.case" xOffset="184"/>
  </outline>
</glyph>
<glyph name="uni03D0" format="1">
  <advance width="600"/>
  <unicode hex="03D0"/>
  <outline>
    <contour>
      <point x="178" y="759"/>
      <point x="52" y="605"/>
      <point x="52" y="344" type="curve" smooth="yes"/>
      <point x="52" y="121"/>
      <point x="124" y="-17"/>
      <point x="298" y="-17" type="curve" smooth="yes"/>
      <point x="450" y="-17"/>
      <point x="549" y="87"/>
      <point x="549" y="231" type="curve" smooth="yes"/>
      <point x="549" y="357"/>
      <point x="487" y="431"/>
      <point x="388" y="431" type="curve" smooth="yes"/>
      <point x="370" y="431"/>
      <point x="350" y="428"/>
      <point x="328" y="422" type="curve"/>
      <point x="453" y="463"/>
      <point x="504" y="530"/>
      <point x="504" y="615" type="curve" smooth="yes"/>
      <point x="504" y="688"/>
      <point x="454" y="759"/>
      <point x="334" y="759" type="curve" smooth="yes"/>
    </contour>
    <contour>
      <point x="346" y="647"/>
      <point x="361" y="632"/>
      <point x="361" y="600" type="curve" smooth="yes"/>
      <point x="361" y="532"/>
      <point x="331" y="479"/>
      <point x="238" y="444" type="curve" smooth="yes"/>
      <point x="197" y="428" type="line"/>
      <point x="196" y="324" type="line"/>
      <point x="233" y="339" type="line" smooth="yes"/>
      <point x="263" y="351"/>
      <point x="283" y="357"/>
      <point x="305" y="357" type="curve" smooth="yes"/>
      <point x="358" y="357"/>
      <point x="384" y="310"/>
      <point x="384" y="226" type="curve" smooth="yes"/>
      <point x="384" y="142"/>
      <point x="351" y="99"/>
      <point x="299" y="99" type="curve" smooth="yes"/>
      <point x="240" y="99"/>
      <point x="211" y="165"/>
      <point x="213" y="364" type="curve" smooth="yes"/>
      <point x="215" y="583"/>
      <point x="272" y="647"/>
      <point x="323" y="647" type="curve" smooth="yes"/>
    </contour>
  </outline>
</glyph>
<glyph name="uni03D1" format="1">
  <advance width="600"/>
  <unicode hex="03D1"/>
  <outline>
    <contour>
      <point x="451" y="-17"/>
      <point x="518" y="122"/>
      <point x="518" y="403" type="curve" smooth="yes"/>
      <point x="518" y="622"/>
      <point x="435" y="759"/>
      <point x="265" y="759" type="curve" smooth="yes"/>
      <point x="145" y="759"/>
      <point x="62" y="673"/>
      <point x="62" y="572" type="curve" smooth="yes"/>
      <point x="62" y="470"/>
      <point x="133" y="400"/>
      <point x="280" y="401" type="curve" smooth="yes"/>
      <point x="552" y="402" type="line"/>
      <point x="552" y="509" type="line"/>
      <point x="280" y="508" type="line" smooth="yes"/>
      <point x="234" y="508"/>
      <point x="204" y="532"/>
      <point x="204" y="576" type="curve" smooth="yes"/>
      <point x="204" y="616"/>
      <point x="227" y="644"/>
      <point x="265" y="644" type="curve" smooth="yes"/>
      <point x="320" y="644"/>
      <point x="355" y="590"/>
      <point x="355" y="400" type="curve" smooth="yes"/>
      <point x="355" y="167"/>
      <point x="329" y="98"/>
      <point x="274" y="98" type="curve" smooth="yes"/>
      <point x="248" y="98"/>
      <point x="229" y="119"/>
      <point x="229" y="171" type="curve" smooth="yes"/>
      <point x="229" y="353" type="line"/>
      <point x="76" y="353" type="line"/>
      <point x="76" y="181" type="line" smooth="yes"/>
      <point x="76" y="42"/>
      <point x="162" y="-17"/>
      <point x="266" y="-17" type="curve" smooth="yes"/>
    </contour>
    <contour>
      <point x="300" y="742" type="move" name="top"/>
    </contour>
    <contour>
      <point x="300" y="0" type="move" name="bottom"/>
    </contour>
  </outline>
</glyph>
<glyph name="uni03D2" format="1">
  <advance width="600"/>
  <unicode hex="03D2"/>
  <outline>
    <contour>
      <point x="600" y="701" type="line"/>
      <point x="583" y="707"/>
      <point x="561" y="711"/>
      <point x="534" y="711" type="curve" smooth="yes"/>
      <point x="446" y="711"/>
      <point x="407" y="675"/>
      <point x="376" y="592" type="curve" smooth="yes"/>
      <point x="302" y="396" type="line"/>
      <point x="194" y="693" type="line"/>
      <point x="12" y="693" type="line"/>
      <point x="217" y="259" type="line"/>
      <point x="217" y="0" type="line"/>
      <point x="384" y="0" type="line"/>
      <point x="384" y="260" type="line"/>
      <point x="509" y="545" type="line" smooth="yes"/>
      <point x="524" y="580"/>
      <point x="535" y="591"/>
      <point x="555" y="591" type="curve" smooth="yes"/>
      <point x="564" y="591"/>
      <point x="569" y="590"/>
      <point x="576" y="588" type="curve"/>
    </contour>
    <contour>
      <point x="303" y="693" type="move" name="top"/>
    </contour>
    <contour>
      <point x="-9" y="693" type="move" name="topleft"/>
    </contour>
  </outline>
</glyph>
<glyph name="uni03D5" format="1">
  <advance width="600"/>
  <unicode hex="03D5"/>
  <outline>
    <contour>
      <point x="355" y="435" type="line"/>
      <point x="405" y="432"/>
      <point x="442" y="390"/>
      <point x="442" y="268" type="curve" smooth="yes"/>
      <point x="442" y="150"/>
      <point x="409" y="101"/>
      <point x="354" y="98" type="curve"/>
      <point x="355" y="4" type="line"/>
      <point x="467" y="8"/>
      <point x="581" y="87"/>
      <point x="581" y="268" type="curve" smooth="yes"/>
      <point x="581" y="448"/>
      <point x="467" y="524"/>
      <point x="355" y="528" type="curve"/>
    </contour>
    <contour>
      <point x="132" y="524"/>
      <point x="18" y="445"/>
      <point x="18" y="264" type="curve" smooth="yes"/>
      <point x="18" y="84"/>
      <point x="133" y="8"/>
      <point x="243" y="4" type="curve"/>
      <point x="245" y="98" type="line"/>
      <point x="194" y="101"/>
      <point x="157" y="149"/>
      <point x="157" y="264" type="curve" smooth="yes"/>
      <point x="157" y="386"/>
      <point x="191" y="432"/>
      <point x="245" y="434" type="curve"/>
      <point x="243" y="528" type="line"/>
    </contour>
    <contour>
      <point x="224" y="742" type="line"/>
      <point x="224" y="508" type="line"/>
      <point x="237" y="442" type="line"/>
      <point x="237" y="89" type="line"/>
      <point x="225" y="21" type="line"/>
      <point x="224" y="-222" type="line"/>
      <point x="374" y="-205" type="line"/>
      <point x="375" y="21" type="line"/>
      <point x="362" y="89" type="line"/>
      <point x="362" y="442" type="line"/>
      <point x="374" y="508" type="line"/>
      <point x="374" y="758" type="line"/>
    </contour>
  </outline>
</glyph>
<glyph name="uni03D6" format="1">
  <advance width="600"/>
  <unicode hex="03D6"/>
  <outline>
    <contour>
      <point x="42" y="421"/>
      <point x="56" y="423"/>
      <point x="102" y="423" type="curve" smooth="yes"/>
      <point x="579" y="424" type="line"/>
      <point x="579" y="531" type="line"/>
      <point x="153" y="531" type="line" smooth="yes"/>
      <point x="51" y="531"/>
      <point x="21" y="524"/>
      <point x="-16" y="508" type="curve"/>
      <point x="12" y="412" type="line"/>
    </contour>
    <contour>
      <point x="392" y="531" type="line"/>
      <point x="415" y="434"/>
      <point x="430" y="344"/>
      <point x="430" y="251" type="curve" smooth="yes"/>
      <point x="430" y="146"/>
      <point x="424" y="100"/>
      <point x="391" y="100" type="curve" smooth="yes"/>
      <point x="359" y="100"/>
      <point x="352" y="133"/>
      <point x="352" y="239" type="curve" smooth="yes"/>
      <point x="352" y="339" type="line"/>
      <point x="243" y="322" type="line"/>
      <point x="243" y="234" type="line" smooth="yes"/>
      <point x="243" y="134"/>
      <point x="236" y="100"/>
      <point x="206" y="100" type="curve" smooth="yes"/>
      <point x="174" y="100"/>
      <point x="164" y="146"/>
      <point x="164" y="251" type="curve" smooth="yes"/>
      <point x="164" y="345"/>
      <point x="178" y="433"/>
      <point x="202" y="531" type="curve"/>
      <point x="142" y="531" type="line"/>
      <point x="75" y="444"/>
      <point x="29" y="340"/>
      <point x="29" y="232" type="curve" smooth="yes"/>
      <point x="29" y="68"/>
      <point x="90" y="-17"/>
      <point x="185" y="-17" type="curve" smooth="yes"/>
      <point x="237" y="-17"/>
      <point x="274" y="13"/>
      <point x="296" y="87" type="curve"/>
      <point x="317" y="11"/>
      <point x="357" y="-17"/>
      <point x="413" y="-17" type="curve" smooth="yes"/>
      <point x="507" y="-17"/>
      <point x="565" y="70"/>
      <point x="565" y="232" type="curve" smooth="yes"/>
      <point x="565" y="340"/>
      <point x="519" y="442"/>
      <point x="452" y="531" type="curve"/>
    </contour>
    <contour>
      <point x="300" y="531" type="move" name="top"/>
    </contour>
    <contour>
      <point x="300" y="0" type="move" name="bottom"/>
    </contour>
  </outline>
</glyph>
<glyph name="uni03D7" format="1">
  <advance width="600"/>
  <unicode hex="03D7"/>
  <outline>
    <contour>
      <point x="482" y="-228"/>
      <point x="556" y="-164"/>
      <point x="556" y="-36" type="curve" smooth="yes"/>
      <point x="556" y="90" type="line"/>
      <point x="417" y="64" type="line"/>
      <point x="416" y="-50" type="line" smooth="yes"/>
      <point x="416" y="-92"/>
      <point x="391" y="-111"/>
      <point x="352" y="-111" type="curve" smooth="yes"/>
      <point x="316" y="-111"/>
      <point x="295" y="-103"/>
      <point x="270" y="-91" type="curve"/>
      <point x="216" y="-185" type="line"/>
      <point x="248" y="-209"/>
      <point x="298" y="-228"/>
      <point x="362" y="-228" type="curve" smooth="yes"/>
    </contour>
    <contour>
      <point x="413" y="357" type="line"/>
      <point x="514" y="510" type="line"/>
      <point x="419" y="545" type="line"/>
      <point x="184" y="175" type="line"/>
      <point x="85" y="22" type="line"/>
      <point x="178" y="-13" type="line"/>
    </contour>
    <contour>
      <point x="556" y="91" type="line"/>
      <point x="524" y="107"/>
      <point x="513" y="123"/>
      <point x="513" y="180" type="curve" smooth="yes"/>
      <point x="514" y="510" type="line"/>
      <point x="413" y="357" type="line"/>
      <point x="393" y="292"/>
      <point x="366" y="200"/>
      <point x="366" y="138" type="curve" smooth="yes"/>
      <point x="366" y="53"/>
      <point x="421" y="21"/>
      <point x="510" y="3" type="curve"/>
    </contour>
    <contour>
      <point x="43" y="434" type="line"/>
      <point x="75" y="418"/>
      <point x="86" y="399"/>
      <point x="86" y="352" type="curve" smooth="yes"/>
      <point x="85" y="22" type="line"/>
      <point x="184" y="175" type="line"/>
      <point x="204" y="240"/>
      <point x="233" y="332"/>
      <point x="233" y="394" type="curve" smooth="yes"/>
      <point x="233" y="479"/>
      <point x="178" y="531"/>
      <point x="89" y="549" type="curve"/>
    </contour>
  </outline>
</glyph>
<glyph name="uni03D8" format="1">
  <advance width="600"/>
  <unicode hex="03D8"/>
  <outline>
    <contour>
      <point x="379" y="-210" type="line"/>
      <point x="379" y="0" type="line"/>
      <point x="221" y="0" type="line"/>
      <point x="221" y="-210" type="line"/>
    </contour>
    <component base="O"/>
  </outline>
</glyph>
<glyph name="uni03D9" format="1">
  <advance width="600"/>
  <unicode hex="03D9"/>
  <outline>
    <contour>
      <point x="222" y="4" type="line"/>
      <point x="222" y="-222" type="line"/>
      <point x="378" y="-205" type="line"/>
      <point x="378" y="4" type="line"/>
    </contour>
    <component base="o"/>
  </outline>
</glyph>
<glyph name="uni03DA" format="1">
  <advance width="600"/>
  <unicode hex="03DA"/>
  <outline>
    <contour>
      <point x="496" y="-171"/>
      <point x="551" y="-114"/>
      <point x="551" y="-35" type="curve" smooth="yes"/>
      <point x="551" y="52"/>
      <point x="485" y="89"/>
      <point x="374" y="135" type="curve" smooth="yes"/>
      <point x="239" y="191"/>
      <point x="212" y="234"/>
      <point x="212" y="349" type="curve" smooth="yes"/>
      <point x="212" y="474"/>
      <point x="272" y="561"/>
      <point x="424" y="561" type="curve" smooth="yes"/>
      <point x="568" y="561" type="line"/>
      <point x="586" y="693" type="line"/>
      <point x="404" y="693" type="line" smooth="yes"/>
      <point x="171" y="693"/>
      <point x="42" y="545"/>
      <point x="42" y="344" type="curve" smooth="yes"/>
      <point x="42" y="158"/>
      <point x="133" y="84"/>
      <point x="261" y="31" type="curve" smooth="yes"/>
      <point x="358" y="-9"/>
      <point x="391" y="-25"/>
      <point x="391" y="-52" type="curve" smooth="yes"/>
      <point x="391" y="-82"/>
      <point x="359" y="-102"/>
      <point x="314" y="-128" type="curve"/>
      <point x="373" y="-223" type="line"/>
    </contour>
    <contour>
      <point x="300" y="693" type="move" name="top"/>
    </contour>
  </outline>
</glyph>
<glyph name="uni03DB" format="1">
  <advance width="600"/>
  <unicode hex="03DB"/>
  <outline>
    <contour>
      <point x="401" y="519"/>
      <point x="350" y="519"/>
      <point x="244" y="485" type="curve" smooth="yes"/>
      <point x="129" y="448"/>
      <point x="57" y="394"/>
      <point x="57" y="253" type="curve" smooth="yes"/>
      <point x="57" y="118"/>
      <point x="120" y="68"/>
      <point x="239" y="25" type="curve" smooth="yes"/>
      <point x="327" y="-7"/>
      <point x="358" y="-22"/>
      <point x="358" y="-48" type="curve" smooth="yes"/>
      <point x="358" y="-82"/>
      <point x="329" y="-102"/>
      <point x="281" y="-128" type="curve"/>
      <point x="341" y="-223" type="line"/>
      <point x="463" y="-171"/>
      <point x="523" y="-116"/>
      <point x="523" y="-35" type="curve" smooth="yes"/>
      <point x="523" y="46"/>
      <point x="469" y="80"/>
      <point x="365" y="116" type="curve" smooth="yes"/>
      <point x="253" y="155"/>
      <point x="223" y="185"/>
      <point x="223" y="259" type="curve" smooth="yes"/>
      <point x="223" y="342"/>
      <point x="261" y="363"/>
      <point x="361" y="392" type="curve" smooth="yes"/>
      <point x="473" y="425"/>
      <point x="536" y="448"/>
      <point x="536" y="575" type="curve"/>
      <point x="401" y="586" type="line"/>
    </contour>
    <contour>
      <point x="300" y="531" type="move" name="top"/>
    </contour>
    <contour>
      <point x="300" y="-222" type="move" name="bottom"/>
    </contour>
  </outline>
</glyph>
<glyph name="uni03DC" format="1">
  <advance width="600"/>
  <unicode hex="03DC"/>
  <outline>
    <contour>
      <point x="500" y="367" type="line"/>
      <point x="468" y="387"/>
      <point x="433" y="396"/>
      <point x="380" y="396" type="curve" smooth="yes"/>
      <point x="137" y="396" type="line"/>
      <point x="137" y="276" type="line"/>
      <point x="370" y="276" type="line" smooth="yes"/>
      <point x="412" y="276"/>
      <point x="436" y="270"/>
      <point x="462" y="260" type="curve"/>
    </contour>
    <component base="Gamma" xOffset="-4"/>
  </outline>
</glyph>
<glyph name="uni03DD" format="1">
  <advance width="600"/>
  <unicode hex="03DD"/>
  <outline>
    <contour>
      <point x="162" y="531"/>
      <point x="90" y="446"/>
      <point x="90" y="338" type="curve" smooth="yes"/>
      <point x="90" y="-223" type="line"/>
      <point x="250" y="-200" type="line"/>
      <point x="250" y="334" type="line" smooth="yes"/>
      <point x="250" y="384"/>
      <point x="276" y="411"/>
      <point x="319" y="411" type="curve" smooth="yes"/>
      <point x="524" y="412" type="line"/>
      <point x="540" y="531" type="line"/>
      <point x="299" y="531" type="line" smooth="yes"/>
    </contour>
    <contour>
      <point x="503" y="222" type="line"/>
      <point x="472" y="241"/>
      <point x="437" y="250"/>
      <point x="383" y="250" type="curve" smooth="yes"/>
      <point x="166" y="250" type="line"/>
      <point x="166" y="134" type="line"/>
      <point x="374" y="134" type="line" smooth="yes"/>
      <point x="412" y="134"/>
      <point x="440" y="128"/>
      <point x="466" y="118" type="curve"/>
    </contour>
  </outline>
</glyph>
<glyph name="uni03DE" format="1">
  <advance width="600"/>
  <unicode hex="03DE"/>
  <outline>
    <contour>
      <point x="340" y="0" type="line"/>
      <point x="555" y="284" type="line"/>
      <point x="407" y="319" type="line"/>
      <point x="165" y="0" type="line"/>
    </contour>
    <contour>
      <point x="556" y="284" type="line"/>
      <point x="529" y="414" type="line"/>
      <point x="44" y="414" type="line"/>
      <point x="70" y="284" type="line"/>
    </contour>
    <contour>
      <point x="434" y="693" type="line"/>
      <point x="259" y="693" type="line"/>
      <point x="44" y="414" type="line"/>
      <point x="193" y="379" type="line"/>
    </contour>
    <contour>
      <point x="300" y="693" type="move" name="top"/>
    </contour>
    <contour>
      <point x="300" y="0" type="move" name="bottom"/>
    </contour>
  </outline>
</glyph>
<glyph name="uni03DF" format="1">
  <advance width="600"/>
  <unicode hex="03DF"/>
  <outline>
    <contour>
      <point x="388" y="44"/>
      <point x="404" y="93"/>
      <point x="452" y="192" type="curve" smooth="yes"/>
      <point x="542" y="379" type="line"/>
      <point x="437" y="438" type="line"/>
      <point x="348" y="288" type="line" smooth="yes"/>
      <point x="274" y="168"/>
      <point x="238" y="91"/>
      <point x="235" y="16" type="curve"/>
      <point x="377" y="-17" type="line"/>
    </contour>
    <contour>
      <point x="543" y="379" type="line"/>
      <point x="503" y="487" type="line"/>
      <point x="58" y="358" type="line"/>
      <point x="98" y="250" type="line"/>
    </contour>
    <contour>
      <point x="255" y="455" type="line" smooth="yes"/>
      <point x="330" y="575"/>
      <point x="365" y="652"/>
      <point x="368" y="727" type="curve"/>
      <point x="226" y="760" type="line"/>
      <point x="215" y="699"/>
      <point x="200" y="650"/>
      <point x="151" y="551" type="curve" smooth="yes"/>
      <point x="58" y="358" type="line"/>
      <point x="166" y="305" type="line"/>
    </contour>
    <contour>
      <point x="300" y="742" type="move" name="top"/>
    </contour>
    <contour>
      <point x="300" y="0" type="move" name="bottom"/>
    </contour>
  </outline>
</glyph>
<glyph name="uni03E0" format="1">
  <advance width="600"/>
  <unicode hex="03E0"/>
  <outline>
    <contour>
      <point x="596" y="0" type="line"/>
      <point x="348" y="693" type="line"/>
      <point x="223" y="693" type="line"/>
      <point x="280" y="558" type="line"/>
      <point x="453" y="0" type="line"/>
    </contour>
    <contour>
      <point x="153" y="0" type="line"/>
      <point x="349" y="614" type="line"/>
      <point x="251" y="641" type="line"/>
      <point x="4" y="0" type="line"/>
    </contour>
    <contour>
      <point x="314" y="0" type="line"/>
      <point x="428" y="398" type="line"/>
      <point x="337" y="409" type="line"/>
      <point x="213" y="1" type="line"/>
    </contour>
    <contour>
      <point x="300" y="693" type="move" name="top"/>
    </contour>
    <contour>
      <point x="300" y="0" type="move" name="bottom"/>
    </contour>
  </outline>
</glyph>
<glyph name="uni03E1" format="1">
  <advance width="600"/>
  <unicode hex="03E1"/>
  <outline>
    <contour>
      <point x="135" y="0" type="line"/>
      <point x="367" y="507" type="line"/>
      <point x="278" y="585" type="line"/>
      <point x="8" y="0" type="line"/>
    </contour>
    <contour>
      <point x="320" y="0" type="line"/>
      <point x="458" y="342" type="line"/>
      <point x="386" y="402" type="line"/>
      <point x="217" y="0" type="line"/>
    </contour>
    <contour>
      <point x="33" y="668" type="line"/>
      <point x="314" y="536"/>
      <point x="429" y="382"/>
      <point x="429" y="91" type="curve" smooth="yes"/>
      <point x="429" y="-18"/>
      <point x="417" y="-113"/>
      <point x="398" y="-203" type="curve"/>
      <point x="508" y="-221" type="line"/>
      <point x="532" y="-135"/>
      <point x="552" y="-7"/>
      <point x="552" y="91" type="curve" smooth="yes"/>
      <point x="552" y="439"/>
      <point x="389" y="639"/>
      <point x="81" y="762" type="curve"/>
    </contour>
  </outline>
</glyph>
<glyph name="uni03F0" format="1">
  <advance width="600"/>
  <unicode hex="03F0"/>
  <outline>
    <contour>
      <point x="415" y="357" type="line"/>
      <point x="514" y="507" type="line"/>
      <point x="420" y="545" type="line"/>
      <point x="186" y="175" type="line"/>
      <point x="87" y="22" type="line"/>
      <point x="180" y="-13" type="line"/>
    </contour>
    <contour>
      <point x="556" y="98" type="line"/>
      <point x="524" y="114"/>
      <point x="513" y="133"/>
      <point x="513" y="180" type="curve" smooth="yes"/>
      <point x="514" y="507" type="line"/>
      <point x="415" y="357" type="line"/>
      <point x="395" y="292"/>
      <point x="366" y="200"/>
      <point x="366" y="138" type="curve" smooth="yes"/>
      <point x="366" y="53"/>
      <point x="421" y="1"/>
      <point x="510" y="-17" type="curve"/>
    </contour>
    <contour>
      <point x="45" y="434" type="line"/>
      <point x="77" y="418"/>
      <point x="88" y="399"/>
      <point x="88" y="352" type="curve" smooth="yes"/>
      <point x="87" y="22" type="line"/>
      <point x="186" y="175" type="line"/>
      <point x="206" y="240"/>
      <point x="235" y="332"/>
      <point x="235" y="394" type="curve" smooth="yes"/>
      <point x="235" y="479"/>
      <point x="180" y="531"/>
      <point x="91" y="549" type="curve"/>
    </contour>
  </outline>
</glyph>
<glyph name="uni03F1" format="1">
  <advance width="600"/>
  <unicode hex="03F1"/>
  <outline>
    <contour>
      <point x="508" y="-190" type="line"/>
      <point x="490" y="-121"/>
      <point x="446" y="-88"/>
      <point x="350" y="-73" type="curve" smooth="yes"/>
      <point x="256" y="-59"/>
      <point x="227" y="-44"/>
      <point x="227" y="16" type="curve"/>
      <point x="67" y="38" type="line"/>
      <point x="67" y="-99"/>
      <point x="131" y="-155"/>
      <point x="250" y="-172" type="curve" smooth="yes"/>
      <point x="340" y="-185"/>
      <point x="357" y="-192"/>
      <point x="370" y="-223" type="curve"/>
    </contour>
    <contour>
      <point x="248" y="44"/>
      <point x="298" y="21"/>
      <point x="353" y="21" type="curve"/>
      <point x="479" y="21"/>
      <point x="559" y="144"/>
      <point x="559" y="289" type="curve" smooth="yes"/>
      <point x="559" y="452"/>
      <point x="469" y="549"/>
      <point x="310" y="549" type="curve" smooth="yes"/>
      <point x="147" y="549"/>
      <point x="67" y="451"/>
      <point x="67" y="275" type="curve"/>
      <point x="67" y="38" type="line"/>
      <point x="227" y="16" type="line"/>
      <point x="227" y="260" type="line" smooth="yes"/>
      <point x="227" y="380"/>
      <point x="250" y="432"/>
      <point x="312" y="432" type="curve" smooth="yes"/>
      <point x="359" y="432"/>
      <point x="393" y="396"/>
      <point x="393" y="287" type="curve" smooth="yes"/>
      <point x="393" y="188"/>
      <point x="357" y="138"/>
      <point x="306" y="138" type="curve" smooth="yes"/>
      <point x="269" y="138"/>
      <point x="240" y="159"/>
      <point x="216" y="214" type="curve"/>
      <point x="209" y="111" type="line"/>
    </contour>
  </outline>
</glyph>
<glyph name="uni03FB" format="1">
  <advance width="600"/>
  <unicode hex="03FB"/>
  <outline>
    <contour>
      <point x="139" y="-212" type="line"/>
      <point x="166" y="137" type="line" smooth="yes"/>
      <point x="174" y="239"/>
      <point x="171" y="313"/>
      <point x="170" y="420" type="curve"/>
      <point x="226" y="67" type="line"/>
      <point x="360" y="67" type="line"/>
      <point x="433" y="423" type="line"/>
      <point x="428" y="317"/>
      <point x="426" y="243"/>
      <point x="430" y="141" type="curve" smooth="yes"/>
      <point x="436" y="0" type="line"/>
      <point x="577" y="0" type="line"/>
      <point x="532" y="531" type="line"/>
      <point x="359" y="531" type="line"/>
      <point x="298" y="193" type="line"/>
      <point x="247" y="531" type="line"/>
      <point x="71" y="531" type="line"/>
      <point x="1" y="-222" type="line"/>
    </contour>
  </outline>
</glyph>
<glyph name="uni03FC" format="1">
  <advance width="600"/>
  <unicode hex="03FC"/>
  <outline>
    <contour>
      <point x="29" y="-146" type="line"/>
      <point x="90" y="-146" type="line"/>
      <point x="387" y="-146" type="line"/>
      <point x="387" y="-52" type="line"/>
      <point x="29" y="-52" type="line"/>
    </contour>
    <component base="rho" xOffset="23"/>
  </outline>
</glyph>
<glyph name="uni03FD" format="1">
  <advance width="600"/>
  <unicode hex="03FD"/>
  <outline>
    <contour>
      <point x="157" y="711"/>
      <point x="88" y="685"/>
      <point x="19" y="635" type="curve"/>
      <point x="88" y="538" type="line"/>
      <point x="136" y="569"/>
      <point x="184" y="588"/>
      <point x="244" y="588" type="curve" smooth="yes"/>
      <point x="345" y="588"/>
      <point x="395" y="517"/>
      <point x="395" y="348" type="curve" smooth="yes"/>
      <point x="395" y="182"/>
      <point x="329" y="111"/>
      <point x="235" y="111" type="curve" smooth="yes"/>
      <point x="166" y="111"/>
      <point x="124" y="142"/>
      <point x="85" y="171" type="curve"/>
      <point x="10" y="77" type="line"/>
      <point x="62" y="25"/>
      <point x="137" y="-17"/>
      <point x="244" y="-17" type="curve" smooth="yes"/>
      <point x="433" y="-17"/>
      <point x="567" y="110"/>
      <point x="567" y="348" type="curve" smooth="yes"/>
      <point x="567" y="580"/>
      <point x="446" y="711"/>
      <point x="252" y="711" type="curve" smooth="yes"/>
    </contour>
    <contour>
      <point x="230" y="351" type="move" name="center"/>
    </contour>
  </outline>
</glyph>
<glyph name="uni0402" format="1">
  <advance width="600"/>
  <unicode hex="0402"/>
  <outline>
    <contour>
      <point x="424" y="575" type="line"/>
      <point x="441" y="693" type="line"/>
      <point x="-8" y="693" type="line"/>
      <point x="-8" y="575" type="line"/>
      <point x="130" y="575" type="line"/>
      <point x="130" y="0" type="line"/>
      <point x="285" y="0" type="line"/>
      <point x="285" y="320" type="line"/>
      <point x="304" y="338"/>
      <point x="327" y="352"/>
      <point x="360" y="352" type="curve" smooth="yes"/>
      <point x="408" y="352"/>
      <point x="427" y="329"/>
      <point x="427" y="267" type="curve" smooth="yes"/>
      <point x="427" y="102" type="line" smooth="yes"/>
      <point x="427" y="18"/>
      <point x="411" y="-24"/>
      <point x="329" y="-58" type="curve"/>
      <point x="372" y="-171" type="line"/>
      <point x="489" y="-132"/>
      <point x="582" y="-66"/>
      <point x="582" y="99" type="curve" smooth="yes"/>
      <point x="582" y="252" type="line" smooth="yes"/>
      <point x="582" y="398"/>
      <point x="520" y="471"/>
      <point x="403" y="471" type="curve" smooth="yes"/>
      <point x="355" y="471"/>
      <point x="317" y="454"/>
      <point x="285" y="427" type="curve"/>
      <point x="285" y="575" type="line"/>
    </contour>
    <contour>
      <point x="300" y="693" type="move" name="top"/>
    </contour>
    <contour>
      <point x="300" y="-222" type="move" name="bottom"/>
    </contour>
  </outline>
</glyph>
<glyph name="uni0404" format="1">
  <advance width="600"/>
  <unicode hex="0404"/>
  <outline>
    <contour>
      <point x="172" y="711"/>
      <point x="33" y="580"/>
      <point x="33" y="348" type="curve" smooth="yes"/>
      <point x="33" y="110"/>
      <point x="163" y="-17"/>
      <point x="354" y="-17" type="curve" smooth="yes"/>
      <point x="464" y="-17"/>
      <point x="539" y="24"/>
      <point x="590" y="73" type="curve"/>
      <point x="515" y="166" type="line"/>
      <point x="476" y="135"/>
      <point x="433" y="108"/>
      <point x="365" y="108" type="curve" smooth="yes"/>
      <point x="276" y="108"/>
      <point x="210" y="166"/>
      <point x="202" y="291" type="curve"/>
      <point x="457" y="291" type="line"/>
      <point x="457" y="418" type="line"/>
      <point x="202" y="418" type="line"/>
      <point x="212" y="537"/>
      <point x="282" y="591"/>
      <point x="369" y="591" type="curve" smooth="yes"/>
      <point x="422" y="591"/>
      <point x="462" y="572"/>
      <point x="500" y="541" type="curve"/>
      <point x="581" y="634" type="line"/>
      <point x="523" y="681"/>
      <point x="457" y="711"/>
      <point x="357" y="711" type="curve" smooth="yes"/>
    </contour>
  </outline>
</glyph>
<glyph name="uni0409" format="1">
  <advance width="600"/>
  <unicode hex="0409"/>
  <outline>
    <contour>
      <point x="60" y="693" type="line"/>
      <point x="40" y="322" type="line" smooth="yes"/>
      <point x="30" y="135"/>
      <point x="13" y="99"/>
      <point x="-15" y="75" type="curve"/>
      <point x="44" y="-20" type="line"/>
      <point x="122" y="32"/>
      <point x="158" y="70"/>
      <point x="169" y="304" type="curve" smooth="yes"/>
      <point x="182" y="588" type="line"/>
      <point x="238" y="588" type="line"/>
      <point x="238" y="0" type="line"/>
      <point x="365" y="0" type="line" smooth="yes"/>
      <point x="508" y="0"/>
      <point x="600" y="74"/>
      <point x="600" y="236" type="curve" smooth="yes"/>
      <point x="600" y="388"/>
      <point x="514" y="460"/>
      <point x="364" y="460" type="curve"/>
      <point x="364" y="693" type="line"/>
    </contour>
    <contour>
      <point x="439" y="356"/>
      <point x="464" y="312"/>
      <point x="464" y="235" type="curve" smooth="yes"/>
      <point x="464" y="155"/>
      <point x="440" y="107"/>
      <point x="379" y="107" type="curve" smooth="yes"/>
      <point x="364" y="107" type="line"/>
      <point x="364" y="356" type="line"/>
      <point x="374" y="356" type="line" smooth="yes"/>
    </contour>
  </outline>
</glyph>
<glyph name="uni040A" format="1">
  <advance width="600"/>
  <unicode hex="040A"/>
  <outline>
    <contour>
      <point x="240" y="693" type="line"/>
      <point x="240" y="435" type="line"/>
      <point x="158" y="435" type="line"/>
      <point x="158" y="693" type="line"/>
      <point x="28" y="693" type="line"/>
      <point x="28" y="0" type="line"/>
      <point x="158" y="0" type="line"/>
      <point x="158" y="321" type="line"/>
      <point x="240" y="321" type="line"/>
      <point x="240" y="0" type="line"/>
      <point x="360" y="0" type="line" smooth="yes"/>
      <point x="520" y="0"/>
      <point x="600" y="76"/>
      <point x="600" y="227" type="curve" smooth="yes"/>
      <point x="600" y="369"/>
      <point x="511" y="433"/>
      <point x="370" y="435" type="curve"/>
      <point x="370" y="693" type="line"/>
    </contour>
    <contour>
      <point x="439" y="323"/>
      <point x="467" y="298"/>
      <point x="467" y="226" type="curve" smooth="yes"/>
      <point x="467" y="149"/>
      <point x="443" y="116"/>
      <point x="375" y="114" type="curve"/>
      <point x="370" y="114" type="line"/>
      <point x="370" y="324" type="line"/>
      <point x="375" y="324" type="line"/>
    </contour>
  </outline>
</glyph>
<glyph name="uni040B" format="1">
  <advance width="600"/>
  <unicode hex="040B"/>
  <outline>
    <contour>
      <point x="-8" y="693" type="line"/>
      <point x="-8" y="575" type="line"/>
      <point x="130" y="575" type="line"/>
      <point x="130" y="0" type="line"/>
      <point x="285" y="0" type="line"/>
      <point x="285" y="320" type="line"/>
      <point x="304" y="338"/>
      <point x="327" y="352"/>
      <point x="360" y="352" type="curve" smooth="yes"/>
      <point x="408" y="352"/>
      <point x="427" y="329"/>
      <point x="427" y="267" type="curve" smooth="yes"/>
      <point x="427" y="0" type="line"/>
      <point x="582" y="0" type="line"/>
      <point x="582" y="252" type="line" smooth="yes"/>
      <point x="582" y="398"/>
      <point x="520" y="471"/>
      <point x="403" y="471" type="curve" smooth="yes"/>
      <point x="355" y="471"/>
      <point x="317" y="454"/>
      <point x="285" y="427" type="curve"/>
      <point x="285" y="575" type="line"/>
      <point x="424" y="575" type="line"/>
      <point x="441" y="693" type="line"/>
    </contour>
  </outline>
</glyph>
<glyph name="uni0413" format="1">
  <advance width="600"/>
  <unicode hex="0413"/>
  <outline>
    <contour>
      <point x="89" y="693" type="line"/>
      <point x="89" y="0" type="line"/>
      <point x="255" y="0" type="line"/>
      <point x="255" y="563" type="line"/>
      <point x="543" y="563" type="line"/>
      <point x="559" y="693" type="line"/>
    </contour>
    <contour>
      <point x="332" y="693" type="move" name="top"/>
    </contour>
    <contour>
      <point x="285" y="0" type="move" name="bottomright"/>
    </contour>
  </outline>
</glyph>
<glyph name="uni0414" format="1">
  <advance width="600"/>
  <unicode hex="0414"/>
  <outline>
    <contour>
      <point x="138" y="693" type="line"/>
      <point x="118" y="475" type="line" smooth="yes"/>
      <point x="96" y="240"/>
      <point x="73" y="170"/>
      <point x="29" y="123" type="curve"/>
      <point x="116" y="0" type="line"/>
      <point x="451" y="-1" type="line"/>
      <point x="525" y="123" type="line"/>
      <point x="525" y="693" type="line"/>
    </contour>
    <contour>
      <point x="373" y="123" type="line"/>
      <point x="159" y="123" type="line"/>
      <point x="224" y="177"/>
      <point x="251" y="260"/>
      <point x="270" y="489" type="curve" smooth="yes"/>
      <point x="277" y="576" type="line"/>
      <point x="373" y="576" type="line"/>
    </contour>
    <component base="descStraight-cy.case" xOffset="185"/>
    <component base="descStraight-cy.case" xOffset="382" xScale="-1"/>
    <contour>
      <point x="300" y="693" type="move" name="top"/>
    </contour>
    <contour>
      <point x="300" y="-222" type="move" name="bottom"/>
    </contour>
  </outline>
</glyph>
<glyph name="uni0416" format="1">
  <advance width="600"/>
  <unicode hex="0416"/>
  <outline>
    <contour>
      <point x="250" y="0" type="line"/>
      <point x="350" y="0" type="line"/>
      <point x="350" y="320" type="line"/>
      <point x="377" y="320" type="line"/>
      <point x="455" y="0" type="line"/>
      <point x="598" y="0" type="line"/>
      <point x="491" y="379" type="line"/>
      <point x="588" y="693" type="line"/>
      <point x="452" y="693" type="line"/>
      <point x="376" y="402" type="line"/>
      <point x="350" y="402" type="line"/>
      <point x="350" y="693" type="line"/>
      <point x="250" y="693" type="line"/>
      <point x="250" y="402" type="line"/>
      <point x="224" y="402" type="line"/>
      <point x="148" y="693" type="line"/>
      <point x="12" y="693" type="line"/>
      <point x="109" y="379" type="line"/>
      <point x="2" y="0" type="line"/>
      <point x="143" y="0" type="line"/>
      <point x="221" y="320" type="line"/>
      <point x="250" y="320" type="line"/>
    </contour>
    <contour>
      <point x="300" y="693" type="move" name="top"/>
    </contour>
    <contour>
      <point x="583" y="0" type="move" name="bottomright"/>
    </contour>
  </outline>
</glyph>
